{
.appVersion = "1141";
DisplayStrings = (
"Advent Pro\012ABCDEFGHIJKLMNOPQRSTUVWXYZ\012abcdefghijklmnopqrstuvwxyz\0121234567890 &"
);
classes = (
{
automatic = 1;
code = "A Aacute Abreve Acircumflex Adieresis Agrave Amacron Aogonek Aring Atilde AE B C Cacute Ccaron Ccedilla Ccircumflex Cdotaccent D Eth Dcaron Dcroat E Eacute Ecaron Ecircumflex Edieresis Edotaccent Egrave Emacron Eogonek F G Gbreve Gcircumflex Gcommaaccent Gdotaccent H Hbar Hcircumflex I Iacute Ibreve Icircumflex Idieresis Idot Igrave Imacron Iogonek Itilde J Jcircumflex K Kcommaaccent L Lacute Lcaron Lcommaaccent Lslash M N Nacute Ncaron Ncommaaccent Eng Ntilde O Oacute Ocircumflex Odieresis Ograve Ohungarumlaut Omacron Oslash Otilde OE P Thorn Q R Racute Rcaron Rcommaaccent S Sacute Scaron Scircumflex Scommaaccent T Tbar Tcaron Tcommaaccent U Uacute Ubreve Ucircumflex Udieresis Ugrave Uhungarumlaut Umacron Uogonek Uring Utilde V W X Y Yacute Ydieresis Z Zacute Zcaron Zdotaccent Y.ss01 Yacute.ss01 Ydieresis.ss01 Alpha Beta Gamma Delta Epsilon Zeta Eta Theta Iota Kappa Lambda Mu Nu Xi Omicron Pi Rho Sigma Tau Upsilon Phi Chi Psi Omega Alphatonos Epsilontonos Etatonos Iotatonos Omicrontonos Upsilontonos Omegatonos Iotadieresis Upsilondieresis Upsilon.ss01 Upsilontonos.ss01 Upsilondieresis.ss01";
name = Uppercase;
}
);
copyright = "Copyright (c) 2008 Andreas Kalpakidis (hello@inderesting.com), with Reserved Font Name \"Advent Pro\"";
customParameters = (
{
name = openTypeNameLicense;
value = "This Font Software is licensed under the SIL Open Font License, Version 1.1. This license is available with a FAQ at: http://scripts.sil.org/OFL";
},
{
name = openTypeNameLicenseURL;
value = "http://scripts.sil.org/OFL";
},
{
name = openTypeNameSampleText;
value = "";
},
{
name = codePageRanges;
value = (
1252,
1250,
1253,
1254,
1257
);
},
{
name = fsType;
value = (
);
},
{
name = unicodeRanges;
value = (
0,
1,
2,
3,
5,
7,
31,
33,
35,
38,
45,
60
);
},
{
name = vendorID;
value = ADBE;
},
{
name = blueFuzz;

glyphs = (
{
glyphname = A;
lastChange = "2018-08-13 21:01:16 +0000";
layers = (
{
anchors = (
{
name = bottom;
position = "{264, 0}";
},
{
name = ogonek;
position = "{517, 0}";
},
{
name = top;
position = "{264, 694}";
}
);
layerId = "BADA37E3-C95E-4946-BA48-1F986F6D85A7";
paths = (
{
closed = 1;
nodes = (
"71 0 LINE",
"149 245 LINE",
"377 245 LINE",
"457 0 LINE",
"517 0 LINE",
"289 700 LINE",
"236 700 LINE",
"12 0 LINE"
);
},
{
closed = 1;
nodes = (
"262 613 LINE",
"362 300 LINE",
"165 300 LINE"
);
}
);
width = 527;
},
{
anchors = (
{
name = bottom;
position = "{264, 0}";
},
{
name = ogonek;
position = "{517, 0}";
},
{
name = top;
position = "{264, 694}";
}
);
layerId = "77B00D75-0619-4FB7-8D17-EB9FCD2DF18B";
paths = (
{
closed = 1;
nodes = (
"31 0 LINE",
"130 281 LINE",
"398 281 LINE",
"496 0 LINE",
"517 0 LINE",
"271 700 LINE",
"257 700 LINE",
"12 0 LINE"
);
},
{
closed = 1;
nodes = (
"264 660 LINE",
"391 300 LINE",
"137 300 LINE"
);
}
);
width = 527;
},
{
anchors = (
{
name = bottom;
position = "{264, 0}";
},
{
name = ogonek;
position = "{517, 0}";
},
{
name = top;
position = "{264, 694}";
}
);
layerId = "8A94633D-DA21-409C-A8B7-00A83612E8B2";
paths = (
{
closed = 1;
nodes = (
"145 0 LINE",
"184 183 LINE",
"345 183 LINE",
"386 0 LINE",
"517 0 LINE",
"340 700 LINE",
"185 700 LINE",
"21 0 LINE"
);
},
{
closed = 1;
nodes = (
"262 516 LINE",
"319 300 LINE",
"210 300 LINE"
);
}
);
width = 527;
}
);
leftKerningGroup = A;
rightKerningGroup = A;
unicode = 0041;
},
{
glyphname = Aring;
lastChange = "2018-08-14 14:22:35 +0000";
layers = (
{
anchors = (
{
name = _top;
position = "{264, 694}";
},
{
name = bottom;
position = "{264, 0}";
},
{
name = ogonek;
position = "{517, 0}";
},
{
name = top;
position = "{264, 694}";
}
);
layerId = "BADA37E3-C95E-4946-BA48-1F986F6D85A7";
paths = (
{
closed = 1;
nodes = (
"71 0 LINE",
"149 245 LINE",
"377 245 LINE",
"457 0 LINE",
"517 0 LINE",
"289 700 LINE",
"236 700 LINE",
"12 0 LINE"
);
},
{
closed = 1;
nodes = (
"262 613 LINE",
"362 300 LINE",
"165 300 LINE"
);
},
{
closed = 1;
nodes = (
"326 669 OFFCURVE",
"378 719 OFFCURVE",
"378 781 CURVE SMOOTH",
"378 842 OFFCURVE",
"326 893 OFFCURVE",
"264 893 CURVE SMOOTH",
"202 893 OFFCURVE",
"150 842 OFFCURVE",
"150 781 CURVE SMOOTH",
"150 719 OFFCURVE",
"202 669 OFFCURVE",
"264 669 CURVE SMOOTH"
);
},
{
closed = 1;
nodes = (
"226 712 OFFCURVE",
"195 741 OFFCURVE",
"195 781 CURVE SMOOTH",
"195 821 OFFCURVE",
"226 850 OFFCURVE",
"264 850 CURVE SMOOTH",
"302 850 OFFCURVE",
"333 821 OFFCURVE",
"333 781 CURVE SMOOTH",
"333 741 OFFCURVE",
"302 712 OFFCURVE",
"264 712 CURVE SMOOTH"
);
}
);
width = 527;
},
{
anchors = (
{
name = _top;
position = "{264, 694}";
},
{
name = bottom;
position = "{264, 0}";
},
{
name = ogonek;
position = "{517, 0}";
},
{
name = top;
position = "{264, 694}";
}
);
layerId = "77B00D75-0619-4FB7-8D17-EB9FCD2DF18B";
paths = (
{
closed = 1;
nodes = (
"31 0 LINE",
"130 281 LINE",
"398 281 LINE",
"496 0 LINE",
"517 0 LINE",
"271 700 LINE",
"257 700 LINE",
"12 0 LINE"
);
},
{
closed = 1;
nodes = (
"264 660 LINE",
"391 300 LINE",
"137 300 LINE"
);
},
{
closed = 1;
nodes = (
"323 681 OFFCURVE",
"371 730 OFFCURVE",
"371 788 CURVE SMOOTH",
"371 845 OFFCURVE",
"323 894 OFFCURVE",
"264 894 CURVE SMOOTH",
"204 894 OFFCURVE",
"157 845 OFFCURVE",
"157 788 CURVE SMOOTH",
"157 730 OFFCURVE",
"204 681 OFFCURVE",
"264 681 CURVE SMOOTH"
);
},
{
closed = 1;
nodes = (
"216 702 OFFCURVE",
"178 741 OFFCURVE",
"178 788 CURVE SMOOTH",
"178 835 OFFCURVE",
"216 873 OFFCURVE",
"264 873 CURVE SMOOTH",
"312 873 OFFCURVE",
"349 835 OFFCURVE",
"349 788 CURVE SMOOTH",
"349 741 OFFCURVE",
"312 702 OFFCURVE",
"264 702 CURVE SMOOTH"
);
}
);
width = 527;
},
{
anchors = (
{
name = _top;
position = "{264, 694}";
},
{
name = bottom;
position = "{264, 0}";
},
{
name = ogonek;
position = "{517, 0}";
},
{
name = top;
position = "{264, 694}";
}
);
layerId = "8A94633D-DA21-409C-A8B7-00A83612E8B2";
paths = (
{
closed = 1;
nodes = (
"145 0 LINE",
"184 183 LINE",
"345 183 LINE",
"386 0 LINE",
"517 0 LINE",
"340 700 LINE",
"185 700 LINE",
"21 0 LINE"
);
},
{
closed = 1;
nodes = (
"262 516 LINE",
"319 300 LINE",
"210 300 LINE"
);
},
{
closed = 1;
nodes = (
"328 669 OFFCURVE",
"377 717 OFFCURVE",
"377 776 CURVE SMOOTH",
"377 837 OFFCURVE",
"328 885 OFFCURVE",
"262 885 CURVE SMOOTH",
"201 885 OFFCURVE",
"151 836 OFFCURVE",
"151 776 CURVE SMOOTH",
"151 717 OFFCURVE",
"201 669 OFFCURVE",
"266 669 CURVE SMOOTH"
);
},
{
closed = 1;
nodes = (
"244 742 OFFCURVE",
"229 756 OFFCURVE",
"229 776 CURVE SMOOTH",
"229 796 OFFCURVE",
"244 812 OFFCURVE",
"264 812 CURVE SMOOTH",
"284 812 OFFCURVE",
"299 796 OFFCURVE",
"299 776 CURVE SMOOTH",
"299 756 OFFCURVE",
"284 742 OFFCURVE",
"264 742 CURVE SMOOTH"
);
}
);
width = 527;
}
);
leftKerningGroup = A;
leftMetricsKey = A;
rightKerningGroup = A;
rightMetricsKey = A;
unicode = 00C5;
},
{
glyphname = AE;
lastChange = "2018-08-13 17:22:54 +0000";
layers = (
{
layerId = "BADA37E3-C95E-4946-BA48-1F986F6D85A7";
paths = (
{
closed = 1;
nodes = (
"137 0 LINE",
"265 245 LINE",
"445 245 LINE",
"444 0 LINE",
"777 0 LINE",
"777 50 LINE",
"501 50 LINE",
"501 358 LINE",
"673 358 LINE",
"692 413 LINE",
"501 413 LINE",
"501 648 LINE",
"779 648 LINE",
"779 700 LINE",
"444 700 LINE",
"78 0 LINE"
);
},
{
closed = 1;
nodes = (
"445 590 LINE",
"445 300 LINE",
"293 300 LINE"
);
}
);
width = 812;
},
{
layerId = "77B00D75-0619-4FB7-8D17-EB9FCD2DF18B";
paths = (
{
closed = 1;
nodes = (
"100 0 LINE",
"247 281 LINE",
"445 281 LINE",
"444 0 LINE",
"777 0 LINE",
"777 20 LINE",
"464 20 LINE",
"464 394 LINE",
"685 394 LINE",
"692 413 LINE",
"464 413 LINE",
"464 681 LINE",
"779 681 LINE",
"779 700 LINE",
"444 700 LINE",
"78 0 LINE"
);
},
{
closed = 1;
nodes = (
"445 664 LINE",
"445 300 LINE",
"256 300 LINE"
);
}
);
width = 818;
},
{
layerId = "8A94633D-DA21-409C-A8B7-00A83612E8B2";
paths = (
{
closed = 1;
nodes = (
"208 0 LINE",
"308 195 LINE",
"445 195 LINE",
"444 0 LINE",
"777 0 LINE",
"777 101 LINE",
"555 101 LINE",
"555 308 LINE",
"673 308 LINE",
"707 413 LINE",
"555 413 LINE",
"555 590 LINE",
"779 590 LINE",
"779 700 LINE",
"444 700 LINE",
"78 0 LINE"
);
},
{
closed = 1;
nodes = (
"445 462 LINE",
"445 300 LINE",
"363 300 LINE"
);
}
);
width = 818;
}
);
leftKerningGroup = A;
rightKerningGroup = E;
unicode = 00C6;
},
{
glyphname = B;
lastChange = "2018-08-13 21:17:12 +0000";
layers = (
{
anchors = (
{
name = bottom;
position = "{272, 0}";
},
{
name = top;
position = "{272, 694}";
}
);
layerId = "BADA37E3-C95E-4946-BA48-1F986F6D85A7";
paths = (
{
closed = 1;
nodes = (
"308 0 LINE SMOOTH",
"439 0 OFFCURVE",
"511 80 OFFCURVE",
"511 209 CURVE SMOOTH",
"511 305 OFFCURVE",
"465 364 OFFCURVE",
"400 391 CURVE",
"454 423 OFFCURVE",
"475 477 OFFCURVE",
"475 537 CURVE SMOOTH",
"475 639 OFFCURVE",
"411 700 OFFCURVE",
"299 700 CURVE SMOOTH",
"78 700 LINE",
"78 0 LINE"
);
},
{
closed = 1;
nodes = (
"134 358 LINE",
"323 358 LINE SMOOTH",
"392.333 358 OFFCURVE",
"451 312 OFFCURVE",
"451 210 CURVE SMOOTH",
"451 106.333 OFFCURVE",
"402.667 53 OFFCURVE",
"306 53 CURVE SMOOTH",
"134 53 LINE"
);
},
{
closed = 1;
nodes = (
"134 647 LINE",
"291 647 LINE SMOOTH",
"375 647 OFFCURVE",
"417 608 OFFCURVE",
"417 530 CURVE SMOOTH",
"417 454 OFFCURVE",
"371.667 413 OFFCURVE",
"297 413 CURVE SMOOTH",
"134 413 LINE"
);
}
);
width = 544;
},
{
anchors = (
{
name = bottom;
position = "{275, 0}";
},
{
name = top;
position = "{275, 694}";
}
);
layerId = "77B00D75-0619-4FB7-8D17-EB9FCD2DF18B";
paths = (
{
closed = 1;
nodes = (
"308 0 LINE SMOOTH",
"439 0 OFFCURVE",
"511 80 OFFCURVE",
"511 209 CURVE SMOOTH",
"511 305 OFFCURVE",
"469 372 OFFCURVE",
"378 403 CURVE",
"430 419 OFFCURVE",
"475 465 OFFCURVE",
"475 545 CURVE SMOOTH",
"475 642.667 OFFCURVE",
"408.333 700 OFFCURVE",
"299 700 CURVE SMOOTH",
"78 700 LINE",
"78 0 LINE"
);
},
{
closed = 1;
nodes = (
"97 394 LINE",
"309 394 LINE SMOOTH",
"423.667 394 OFFCURVE",
"492 319.667 OFFCURVE",
"492 205 CURVE SMOOTH",
"492 90.333 OFFCURVE",
"426 19 OFFCURVE",
"306 19 CURVE SMOOTH",
"97 19 LINE"
);
},
{
closed = 1;
nodes = (
"97 681 LINE",
"291 681 LINE SMOOTH",
"404.333 681 OFFCURVE",
"456 625.667 OFFCURVE",
"456 543 CURVE SMOOTH",
"456 469 OFFCURVE",
"403 413 OFFCURVE",
"335 413 CURVE SMOOTH",
"97 413 LINE"
);
}
);
width = 550;
},
{
anchors = (
{
name = bottom;
position = "{271, 0}";
},
{
name = top;
position = "{261, 694}";
}
);
layerId = "8A94633D-DA21-409C-A8B7-00A83612E8B2";
paths = (
{
closed = 1;
nodes = (
"297 0 LINE SMOOTH",
"441.901 0 OFFCURVE",
"511 91.948 OFFCURVE",
"511 205 CURVE SMOOTH",
"511 295 OFFCURVE",
"465 353 OFFCURVE",
"403 381 CURVE",
"451 411 OFFCURVE",
"475 458 OFFCURVE",
"475 519 CURVE SMOOTH",
"475 636 OFFCURVE",
"392.667 700 OFFCURVE",
"282 700 CURVE SMOOTH",
"78 700 LINE",
"78 0 LINE"
);
},
{
closed = 1;
nodes = (
"188 307 LINE",
"258 307 LINE SMOOTH",
"342.667 307 OFFCURVE",
"385 276 OFFCURVE",
"385 202 CURVE SMOOTH",
"385 120.333 OFFCURVE",
"341 101 OFFCURVE",
"249 101 CURVE SMOOTH",
"188 101 LINE"
);
},
{
closed = 1;
nodes = (
"188 590 LINE",
"246 590 LINE SMOOTH",
"314 590 OFFCURVE",
"347 568.667 OFFCURVE",
"347 506 CURVE SMOOTH",
"347 438 OFFCURVE",
"312 413 OFFCURVE",
"236 413 CURVE SMOOTH",
"188 413 LINE"
);
}
);
width = 550;
}
);
leftKerningGroup = H;
rightKerningGroup = B;
unicode = 0042;
},
{
glyphname = C;
lastChange = "2018-08-13 21:30:03 +0000";
layers = (
{
anchors = (
{
name = bottom;
position = "{265, 0}";
},
{
name = top;
position = "{251, 694}";
}
);
layerId = "BADA37E3-C95E-4946-BA48-1F986F6D85A7";
paths = (
{
closed = 1;
nodes = (
"316.333 -10 OFFCURVE",
"370.333 1 OFFCURVE",
"427 23 CURVE",
"415 70 LINE",
"358.333 50 OFFCURVE",
"310 40 OFFCURVE",
"270 40 CURVE SMOOTH",
"180 40 OFFCURVE",
"122 87 OFFCURVE",
"122 185 CURVE SMOOTH",
"122 513 LINE SMOOTH",
"122 611 OFFCURVE",
"174 660 OFFCURVE",
"278 660 CURVE SMOOTH",
"312 660 OFFCURVE",
"348 653 OFFCURVE",
"386 639 CURVE",
"402 677 LINE",
"358.667 699 OFFCURVE",
"311.333 710 OFFCURVE",
"260 710 CURVE SMOOTH",
"218.667 710 OFFCURVE",
"183 701.667 OFFCURVE",
"153 685 CURVE SMOOTH",
"94.333 649 OFFCURVE",
"66 605.333 OFFCURVE",
"66 504 CURVE SMOOTH",
"66 183 LINE SMOOTH",
"66 22.813 OFFCURVE",
"173.015 -10 OFFCURVE",
"265 -10 CURVE SMOOTH"
);
}
);
width = 436;
},
{
anchors = (
{
name = bottom;
position = "{254, 0}";
},
{
name = top;
position = "{260, 694}";
}
);
layerId = "77B00D75-0619-4FB7-8D17-EB9FCD2DF18B";
paths = (
{
closed = 1;
nodes = (
"316.333 -10 OFFCURVE",
"370.333 1 OFFCURVE",
"427 23 CURVE",
"421 41 LINE",
"363 18 OFFCURVE",
"309 7 OFFCURVE",
"261 7 CURVE SMOOTH",
"147 7 OFFCURVE",
"85 75 OFFCURVE",
"85 185 CURVE SMOOTH",
"85 513 LINE SMOOTH",
"85 627.948 OFFCURVE",
"149.295 691 OFFCURVE",
"263 691 CURVE SMOOTH",
"303.667 691 OFFCURVE",
"347.333 680.667 OFFCURVE",
"394 660 CURVE",
"402 677 LINE",
"361.333 699 OFFCURVE",
"314 710 OFFCURVE",
"260 710 CURVE SMOOTH",
"218 710 OFFCURVE",
"182.333 701.667 OFFCURVE",
"153 685 CURVE SMOOTH",
"94.333 649 OFFCURVE",
"66 605.333 OFFCURVE",
"66 504 CURVE SMOOTH",
"66 183 LINE SMOOTH",
"66 22.813 OFFCURVE",
"173.015 -10 OFFCURVE",
"265 -10 CURVE SMOOTH"
);
}
);
width = 430;
},
{
anchors = (
{
name = bottom;
position = "{260, 0}";
},
{
name = top;
position = "{257, 694}";
}
);
layerId = "8A94633D-DA21-409C-A8B7-00A83612E8B2";
paths = (
{
closed = 1;
nodes = (
"311 -10 OFFCURVE",
"375 3 OFFCURVE",
"427 23 CURVE",
"410 127 LINE",
"364 114 OFFCURVE",
"317 102 OFFCURVE",
"265 102 CURVE SMOOTH",
"208 102 OFFCURVE",
"176 121 OFFCURVE",
"176 185 CURVE SMOOTH",
"176 513 LINE SMOOTH",
"176 560 OFFCURVE",
"214 594 OFFCURVE",
"270 594 CURVE SMOOTH",
"306.667 594 OFFCURVE",
"340.333 588.333 OFFCURVE",
"371 577 CURVE",
"402 677 LINE",
"359 699 OFFCURVE",
"309 710 OFFCURVE",
"260 710 CURVE SMOOTH",
"219 710 OFFCURVE",
"183 702 OFFCURVE",
"153 684 CURVE SMOOTH",
"94 649 OFFCURVE",
"66 605 OFFCURVE",
"66 504 CURVE SMOOTH",
"66 183 LINE SMOOTH",
"66 59 OFFCURVE",
"133 -10 OFFCURVE",
"265 -10 CURVE SMOOTH"
);
}
);
width = 430;
}
);
leftKerningGroup = O;
rightKerningGroup = C;
unicode = 0043;
},
{
glyphname = D;
lastChange = "2018-08-14 19:17:28 +0000";
layers = (
{
anchors = (
{
name = bottom;
position = "{270, 0}";
},
{
name = center;
position = "{133, 354}";
},
{
name = top;
position = "{270, 694}";
}
);
layerId = "BADA37E3-C95E-4946-BA48-1F986F6D85A7";
paths = (
{
closed = 1;
nodes = (
"286 0 LINE SMOOTH",
"427.333 0 OFFCURVE",
"498 66.667 OFFCURVE",
"498 200 CURVE SMOOTH",
"498 474 LINE SMOOTH",
"498 611.333 OFFCURVE",
"416.667 701 OFFCURVE",
"266 701 CURVE SMOOTH",
"78 701 LINE",
"78 0 LINE"
);
},
{
closed = 1;
nodes = (
"134 650 LINE",
"276 650 LINE SMOOTH",
"364 650 OFFCURVE",
"442 596 OFFCURVE",
"442 484 CURVE SMOOTH",
"442 190 LINE SMOOTH",
"442 96.667 OFFCURVE",
"384.667 50 OFFCURVE",
"270 50 CURVE SMOOTH",
"134 50 LINE"
);
}
);
width = 576;
},
{
anchors = (
{
name = bottom;
position = "{280, 0}";
},
{
name = center;
position = "{134, 354}";
},
{
name = top;
position = "{280, 694}";
}
);
layerId = "77B00D75-0619-4FB7-8D17-EB9FCD2DF18B";
paths = (
{
closed = 1;
nodes = (
"286 0 LINE SMOOTH",
"427.333 0 OFFCURVE",
"498 66.667 OFFCURVE",
"498 200 CURVE SMOOTH",
"498 474 LINE SMOOTH",
"498 611.333 OFFCURVE",
"416.667 701 OFFCURVE",
"266 701 CURVE SMOOTH",
"78 701 LINE",
"78 0 LINE"
);
},
{
closed = 1;
nodes = (
"97 680 LINE",
"276 680 LINE SMOOTH",
"390.667 680 OFFCURVE",
"479 610.667 OFFCURVE",
"479 468 CURVE SMOOTH",
"479 214 LINE SMOOTH",
"479 75 OFFCURVE",
"413 20 OFFCURVE",
"276 20 CURVE SMOOTH",
"97 20 LINE"
);
}
);
width = 576;
},
{
anchors = (
{
name = bottom;
position = "{270, 0}";
},
{
name = center;
position = "{138, 354}";
},
{
name = top;
position = "{272, 694}";
}
);
layerId = "8A94633D-DA21-409C-A8B7-00A83612E8B2";
paths = (
{
closed = 1;
nodes = (
"286 0 LINE SMOOTH",
"427.333 0 OFFCURVE",
"498 66.667 OFFCURVE",
"498 200 CURVE SMOOTH",
"498 474 LINE SMOOTH",
"498 611.333 OFFCURVE",
"416.667 701 OFFCURVE",
"266 701 CURVE SMOOTH",
"78 701 LINE",
"78 0 LINE"
);
},
{
closed = 1;
nodes = (
"188 590 LINE",
"276 590 LINE SMOOTH",
"352 590 OFFCURVE",
"388 557.333 OFFCURVE",
"388 484 CURVE SMOOTH",
"388 190 LINE SMOOTH",
"388 113.132 OFFCURVE",
"336.46 101 OFFCURVE",
"270 101 CURVE SMOOTH",
"188 101 LINE"
);
}
);
width = 576;
}
);
leftKerningGroup = H;
rightKerningGroup = O;
unicode = 0044;
},
{
glyphname = E;
lastChange = "2018-08-20 13:52:14 +0000";
layers = (
{
anchors = (
{
name = bottom;
position = "{245, 0}";
},
{
name = ogonek;
position = "{410, 0}";
},
{
name = top;
position = "{245, 694}";
},
{
name = topleft;
position = "{50, 694}";
}
);
layerId = "BADA37E3-C95E-4946-BA48-1F986F6D85A7";
paths = (
{
closed = 1;
nodes = (
"410 0 LINE",
"410 50 LINE",
"134 50 LINE",
"134 358 LINE",
"306 358 LINE",
"325 413 LINE",
"134 413 LINE",
"134 648 LINE",
"412 648 LINE",
"412 700 LINE",
"78 700 LINE",
"78 0 LINE"
);
}
);
width = 465;
},
{
anchors = (
{
name = bottom;
position = "{249, 0}";
},
{
name = ogonek;
position = "{419, 10}";
},
{
name = top;
position = "{245, 694}";
},
{
name = topleft;
position = "{35, 694}";
}
);
layerId = "77B00D75-0619-4FB7-8D17-EB9FCD2DF18B";
paths = (
{
closed = 1;
nodes = (
"410 0 LINE",
"410 19 LINE",
"97 19 LINE",
"97 394 LINE",
"318 394 LINE",
"325 413 LINE",
"97 413 LINE",
"97 681 LINE",
"412 681 LINE",
"412 700 LINE",
"78 700 LINE",
"78 0 LINE"
);
}
);
width = 465;
},
{
anchors = (
{
name = bottom;
position = "{245, 0}";
},
{
name = ogonek;
position = "{410, 0}";
},
{
name = top;
position = "{245, 694}";
},
{
name = topleft;
position = "{70, 694}";
}
);
layerId = "8A94633D-DA21-409C-A8B7-00A83612E8B2";
paths = (
{
closed = 1;
nodes = (
"410 0 LINE",
"410 100 LINE",
"188 100 LINE",
"188 308 LINE",
"294 308 LINE",
"325 413 LINE",
"188 413 LINE",
"188 590 LINE",
"412 590 LINE",
"412 700 LINE",
"78 700 LINE",
"78 0 LINE"
);
}
);
width = 465;
}
);
leftKerningGroup = H;
rightKerningGroup = E;
unicode = 0045;
},
{
glyphname = F;
lastChange = "2018-08-13 21:30:08 +0000";
layers = (
{
anchors = (
{
name = bottom;
position = "{106, 0}";
},
{
name = top;
position = "{245, 694}";
}
);
layerId = "BADA37E3-C95E-4946-BA48-1F986F6D85A7";
paths = (
{
closed = 1;
nodes = (
"134 0 LINE",
"134 358 LINE",
"282 358 LINE",
"305 413 LINE",
"134 413 LINE",
"134 647 LINE",
"412 647 LINE",
"412 700 LINE",
"78 700 LINE",
"78 0 LINE"
);
}
);
width = 445;
},
{
anchors = (
{
name = bottom;
position = "{88, 0}";
},
{
name = top;
position = "{245, 694}";
}
);
layerId = "77B00D75-0619-4FB7-8D17-EB9FCD2DF18B";
paths = (
{
closed = 1;
nodes = (
"98 0 LINE",
"98 394 LINE",
"297 394 LINE",
"305 413 LINE",
"98 413 LINE",
"98 680 LINE",
"412 680 LINE",
"412 700 LINE",
"78 700 LINE",
"78 0 LINE"
);
}
);
width = 451;
},
{
anchors = (
{
name = bottom;
position = "{133, 0}";
},
{
name = top;
position = "{245, 694}";
}
);
layerId = "8A94633D-DA21-409C-A8B7-00A83612E8B2";
paths = (
{
closed = 1;
nodes = (
"188 0 LINE",
"188 308 LINE",
"292 308 LINE",
"328 413 LINE",
"188 413 LINE",
"188 590 LINE",
"412 590 LINE",
"412 700 LINE",
"78 700 LINE",
"78 0 LINE"
);
}
);
width = 451;
}
);
leftKerningGroup = H;
rightKerningGroup = F;
unicode = 0046;
},
{
glyphname = G;
lastChange = "2018-08-13 21:30:08 +0000";
layers = (
{
anchors = (
{
name = bottom;
position = "{269, 0}";
},
{
name = top;
position = "{268, 694}";
}
);
layerId = "BADA37E3-C95E-4946-BA48-1F986F6D85A7";
paths = (
{
closed = 1;
nodes = (
"335 -10 OFFCURVE",
"385 10 OFFCURVE",
"421 49 CURVE",
"435 0 LINE",
"476 0 LINE",
"476 300 LINE",
"338 300 LINE",
"357 245 LINE",
"423 245 LINE",
"423 186 LINE SMOOTH",
"423 92 OFFCURVE",
"345 43 OFFCURVE",
"269 43 CURVE SMOOTH",
"195 43 OFFCURVE",
"121 90 OFFCURVE",
"121 187 CURVE SMOOTH",
"121 512 LINE SMOOTH",
"121 610 OFFCURVE",
"173 659 OFFCURVE",
"277 659 CURVE SMOOTH",
"311 659 OFFCURVE",
"347 652 OFFCURVE",
"385 638 CURVE",
"401 676 LINE",
"357.667 698 OFFCURVE",
"310.333 709 OFFCURVE",
"259 709 CURVE SMOOTH",
"133 709 OFFCURVE",
"65 631 OFFCURVE",
"65 503 CURVE SMOOTH",
"65 189 LINE SMOOTH",
"65 57 OFFCURVE",
"155 -10 OFFCURVE",
"272 -10 CURVE SMOOTH"
);
}
);
width = 537;
},
{
anchors = (
{
name = bottom;
position = "{269, 0}";
},
{
name = top;
position = "{269, 694}";
}
);
layerId = "77B00D75-0619-4FB7-8D17-EB9FCD2DF18B";
paths = (
{
closed = 1;
nodes = (
"359 -10 OFFCURVE",
"426.333 22.667 OFFCURVE",
"457 88 CURVE",
"457 0 LINE",
"476 0 LINE",
"476 300 LINE",
"338 300 LINE",
"346 281 LINE",
"457 281 LINE",
"457 182 LINE SMOOTH",
"457 84.667 OFFCURVE",
"403.833 9 OFFCURVE",
"280.5 9 CURVE SMOOTH",
"157.167 9 OFFCURVE",
"84 83 OFFCURVE",
"84 187 CURVE SMOOTH",
"84 497 LINE SMOOTH",
"84 617 OFFCURVE",
"140 691 OFFCURVE",
"260 691 CURVE SMOOTH",
"300.667 691 OFFCURVE",
"344.667 680.333 OFFCURVE",
"394 659 CURVE",
"401 676 LINE",
"357.667 698 OFFCURVE",
"310.333 709 OFFCURVE",
"260 709 CURVE SMOOTH",
"133 709 OFFCURVE",
"65 631 OFFCURVE",
"65 503 CURVE SMOOTH",
"65 189 LINE SMOOTH",
"65 57 OFFCURVE",
"158.667 -10 OFFCURVE",
"277 -10 CURVE SMOOTH"
);
}
);
width = 537;
},
{
anchors = (
{
name = bottom;
position = "{269, 0}";
},
{
name = top;
position = "{269, 694}";
}
);
layerId = "8A94633D-DA21-409C-A8B7-00A83612E8B2";
paths = (
{
closed = 1;
nodes = (
"305 -10 OFFCURVE",
"335 -4 OFFCURVE",
"366 12 CURVE",
"372 0 LINE",
"476 0 LINE",
"476 300 LINE",
"274 300 LINE",
"309 195 LINE",
"366 195 LINE",
"366 186 LINE SMOOTH",
"366 129.333 OFFCURVE",
"335 101 OFFCURVE",
"272 101 CURVE SMOOTH",
"212 101 OFFCURVE",
"175 126 OFFCURVE",
"175 187 CURVE SMOOTH",
"175 508 LINE SMOOTH",
"175 575 OFFCURVE",
"216 595 OFFCURVE",
"274 595 CURVE SMOOTH",
"305.667 595 OFFCURVE",
"336 589 OFFCURVE",
"368 577 CURVE",
"401 676 LINE",
"357 698 OFFCURVE",
"306 709 OFFCURVE",
"257 709 CURVE SMOOTH",
"132 709 OFFCURVE",
"65 631 OFFCURVE",
"65 503 CURVE SMOOTH",
"65 189 LINE SMOOTH",
"65 57 OFFCURVE",
"158.667 -10 OFFCURVE",
"269 -10 CURVE SMOOTH"
);
}
);
width = 537;
}
);
leftKerningGroup = O;
rightKerningGroup = G;
unicode = 0047;
},
{
glyphname = H;
lastChange = "2018-08-20 13:52:32 +0000";
layers = (
{
anchors = (
{
name = bottom;
position = "{294, 0}";
},
{
name = center;
position = "{294, 511}";
},
{
name = top;
position = "{294, 694}";
},
{
name = topleft;
position = "{50, 694}";
}
);
layerId = "BADA37E3-C95E-4946-BA48-1F986F6D85A7";
paths = (
{
closed = 1;
nodes = (
"134 0 LINE",
"134 358 LINE",
"452 358 LINE",
"452 0 LINE",
"508 0 LINE",
"508 700 LINE",
"452 700 LINE",
"452 413 LINE",
"134 413 LINE",
"134 700 LINE",
"78 700 LINE",
"78 0 LINE"
);
}
);
width = 588;
},
{
anchors = (
{
name = bottom;
position = "{294, 0}";
},
{
name = center;
position = "{294, 530}";
},
{
name = top;
position = "{294, 694}";
},
{
name = topleft;
position = "{35, 694}";
}
);
layerId = "77B00D75-0619-4FB7-8D17-EB9FCD2DF18B";
paths = (
{
closed = 1;
nodes = (
"97 0 LINE",
"97 394 LINE",
"489 394 LINE",
"489 0 LINE",
"508 0 LINE",
"508 700 LINE",
"489 700 LINE",
"489 413 LINE",
"97 413 LINE",
"97 700 LINE",
"78 700 LINE",
"78 0 LINE"
);
}
);
width = 588;
},
{
anchors = (
{
name = bottom;
position = "{294, 0}";
},
{
name = center;
position = "{294, 526}";
},
{
name = top;
position = "{294, 694}";
},
{
name = topleft;
position = "{70, 694}";
}
);
layerId = "8A94633D-DA21-409C-A8B7-00A83612E8B2";
paths = (
{
closed = 1;
nodes = (
"188 0 LINE",
"188 308 LINE",
"399 308 LINE",
"399 0 LINE",
"508 0 LINE",
"508 700 LINE",
"399 700 LINE",
"399 413 LINE",
"188 413 LINE",
"188 700 LINE",
"78 700 LINE",
"78 0 LINE"
);
}
);
width = 588;
}
);
leftKerningGroup = H;
rightKerningGroup = H;
unicode = 0048;
},
{
glyphname = I;
lastChange = "2018-08-14 21:38:01 +0000";
layers = (
{
anchors = (
{
name = bottom;
position = "{162, 0}";
},
{
name = ogonek;
position = "{189, 0}";
},
{
name = top;
position = "{162, 694}";
},
{
name = topleft;
position = "{37, 694}";
}
);
layerId = "BADA37E3-C95E-4946-BA48-1F986F6D85A7";
paths = (
{
closed = 1;
nodes = (
"189 0 LINE",
"190 700 LINE",
"66 700 LINE",
"66 651 LINE",
"134 649 LINE",
"133 0 LINE"
);
}
);
width = 264;
},
{
anchors = (
{
name = bottom;
position = "{126, 0}";
},
{
name = ogonek;
position = "{135, 0}";
},
{
name = top;
position = "{126, 694}";
},
{
name = topleft;
position = "{7, 694}";
}
);
layerId = "77B00D75-0619-4FB7-8D17-EB9FCD2DF18B";
paths = (
{
closed = 1;
nodes = (
"135 0 LINE",
"135 700 LINE",
"30 700 LINE",
"30 681 LINE",
"116 679 LINE",
"116 0 LINE"
);
}
);
width = 193;
},
{
anchors = (
{
name = bottom;
position = "{178, 0}";
},
{
name = ogonek;
position = "{233, 0}";
},
{
name = top;
position = "{178, 694}";
},
{
name = topleft;
position = "{54, 694}";
}
);
layerId = "8A94633D-DA21-409C-A8B7-00A83612E8B2";
paths = (
{
closed = 1;
nodes = (
"233 0 LINE",
"233 700 LINE",
"61 700 LINE",
"61 594 LINE",
"123 592 LINE",
"123 0 LINE"
);
}
);
width = 313;
}
);
leftKerningGroup = H;
rightKerningGroup = H;
unicode = 0049;
},
{
glyphname = J;
lastChange = "2018-08-13 21:30:08 +0000";
layers = (
{
anchors = (
{
name = bottom;
position = "{90, 0}";
},
{
name = top;
position = "{125, 694}";
}
);
layerId = "BADA37E3-C95E-4946-BA48-1F986F6D85A7";
paths = (
{
closed = 1;
nodes = (
"105.667 -37 OFFCURVE",
"153 19.333 OFFCURVE",
"153 118 CURVE SMOOTH",
"153 700 LINE",
"29 700 LINE",
"29 651 LINE",
"96 649 LINE",
"96 114 LINE SMOOTH",
"96 34 OFFCURVE",
"58 0 OFFCURVE",
"14 0 CURVE",
"27 -37 LINE"
);
}
);
width = 196;
},
{
anchors = (
{
name = bottom;
position = "{65, 0}";
},
{
name = top;
position = "{104, 694}";
}
);
layerId = "77B00D75-0619-4FB7-8D17-EB9FCD2DF18B";
paths = (
{
closed = 1;
nodes = (
"83.667 -23.667 OFFCURVE",
"113 22 OFFCURVE",
"113 122 CURVE SMOOTH",
"113 700 LINE",
"11 700 LINE",
"11 681 LINE",
"95 679 LINE",
"95 118 LINE SMOOTH",
"95 35.333 OFFCURVE",
"64.333 -10.333 OFFCURVE",
"3 -19 CURVE",
"9 -37 LINE"
);
}
);
width = 177;
},
{
anchors = (
{
name = bottom;
position = "{106, 0}";
},
{
name = top;
position = "{144, 694}";
}
);
layerId = "8A94633D-DA21-409C-A8B7-00A83612E8B2";
paths = (
{
closed = 1;
nodes = (
"155.667 -35.667 OFFCURVE",
"198 12.333 OFFCURVE",
"198 139 CURVE SMOOTH",
"198 700 LINE",
"30 700 LINE",
"30 594 LINE",
"90 592 LINE",
"90 156 LINE SMOOTH",
"90 90 OFFCURVE",
"55 57 OFFCURVE",
"-15 57 CURVE",
"21 -37 LINE"
);
}
);
width = 234;
}
);
leftKerningGroup = J;
rightKerningGroup = J;
unicode = 004A;
},
{
glyphname = K;
lastChange = "2018-08-13 21:30:08 +0000";
layers = (
{
anchors = (
{
name = bottom;
position = "{252, 0}";
},
{
name = top;
position = "{233, 694}";
}
);
layerId = "BADA37E3-C95E-4946-BA48-1F986F6D85A7";
paths = (
{
closed = 1;
nodes = (
"135 0 LINE",
"135 269 LINE",
"183 345 LINE",
"409 0 LINE",
"476 0 LINE",
"219 398 LINE",
"424 701 LINE",
"359 701 LINE",
"135 367 LINE",
"135 701 LINE",
"79 701 LINE",
"79 0 LINE"
);
}
);
width = 475;
},
{
anchors = (
{
name = bottom;
position = "{250, 0}";
},
{
name = top;
position = "{240, 694}";
}
);
layerId = "77B00D75-0619-4FB7-8D17-EB9FCD2DF18B";
paths = (
{
closed = 1;
nodes = (
"98 0 LINE",
"98 280 LINE",
"195 403 LINE",
"455 0 LINE",
"476 0 LINE",
"207 418 LINE",
"424 700 LINE",
"402 700 LINE",
"98 308 LINE",
"98 700 LINE",
"79 700 LINE",
"79 0 LINE"
);
}
);
width = 479;
},
{
anchors = (
{
name = bottom;
position = "{287, 0}";
},
{
name = top;
position = "{271, 694}";
}
);
layerId = "8A94633D-DA21-409C-A8B7-00A83612E8B2";
paths = (
{
closed = 1;
nodes = (
"197 0 LINE",
"197 268 LINE",
"204 278 LINE",
"393 0 LINE",
"530 0 LINE",
"269 376 LINE",
"491 701 LINE",
"359 701 LINE",
"197 460 LINE",
"197 701 LINE",
"79 701 LINE",
"79 0 LINE"
);
}
);
width = 532;
}
);
leftKerningGroup = H;
rightKerningGroup = K;
unicode = 004B;
},
{
glyphname = L;
lastChange = "2018-08-14 18:28:13 +0000";
layers = (
{
anchors = (
{
name = bottom;
position = "{273, 0}";
},
{
name = center;
position = "{123, 399}";
},
{
name = top;
position = "{106, 694}";
},
{
name = topright;
position = "{310, 694}";
}
);
layerId = "BADA37E3-C95E-4946-BA48-1F986F6D85A7";
paths = (
{
closed = 1;
nodes = (
"439 0 LINE",
"439 50 LINE",
"134 50 LINE",
"134 700 LINE",
"78 700 LINE",
"78 0 LINE"
);
}
);
width = 440;
},
{
anchors = (
{
name = bottom;
position = "{263, 0}";
},
{
name = center;
position = "{107, 415}";
},
{
name = top;
position = "{88, 694}";
},
{
name = topright;
position = "{315, 694}";
}
);
layerId = "77B00D75-0619-4FB7-8D17-EB9FCD2DF18B";
paths = (
{
closed = 1;
nodes = (
"439 0 LINE",
"439 20 LINE",
"97 20 LINE",
"97 700 LINE",
"78 700 LINE",
"78 0 LINE"
);
}
);
width = 440;
},
{
anchors = (
{
name = bottom;
position = "{259, 0}";
},
{
name = center;
position = "{141, 384}";
},
{
name = top;
position = "{133, 694}";
},
{
name = topright;
position = "{350, 694}";
}
);
layerId = "8A94633D-DA21-409C-A8B7-00A83612E8B2";
paths = (
{
closed = 1;
nodes = (
"439 0 LINE",
"439 101 LINE",
"188 101 LINE",
"188 694 LINE",
"78 694 LINE",
"78 0 LINE"
);
}
);
width = 440;
}
);
leftKerningGroup = H;
rightKerningGroup = L;
unicode = 004C;
},
{
glyphname = M;
lastChange = "2018-08-13 21:30:08 +0000";
layers = (
{
anchors = (
{
name = bottom;
position = "{347, 0}";
},
{
name = top;
position = "{347, 694}";
}
);
layerId = "BADA37E3-C95E-4946-BA48-1F986F6D85A7";
paths = (
{
closed = 1;
nodes = (
"134 0 LINE",
"134 535 LINE",
"315 0 LINE",
"376 0 LINE",
"558 535 LINE",
"558 0 LINE",
"614 0 LINE",
"614 700 LINE",
"558 700 LINE",
"345 86 LINE",
"134 700 LINE",
"78 700 LINE",
"78 0 LINE"
);
}
);
width = 694;
},
{
anchors = (
{
name = bottom;
position = "{347, 0}";
},
{
name = top;
position = "{347, 694}";
}
);
layerId = "77B00D75-0619-4FB7-8D17-EB9FCD2DF18B";
paths = (
{
closed = 1;
nodes = (
"96 0 LINE",
"96 648 LINE",
"336 0 LINE",
"354 0 LINE",
"596 648 LINE",
"596 0 LINE",
"614 0 LINE",
"614 700 LINE",
"596 700 LINE",
"346 30 LINE",
"96 700 LINE",
"78 700 LINE",
"78 0 LINE"
);
}
);
width = 694;
},
{
anchors = (
{
name = bottom;
position = "{347, 0}";
},
{
name = top;
position = "{347, 694}";
}
);
layerId = "8A94633D-DA21-409C-A8B7-00A83612E8B2";
paths = (
{
closed = 1;
nodes = (
"188 0 LINE",
"188 369 LINE",
"303 0 LINE",
"387 0 LINE",
"504 370 LINE",
"504 0 LINE",
"614 0 LINE",
"614 700 LINE",
"504 700 LINE",
"345 237 LINE",
"188 700 LINE",
"78 700 LINE",
"78 0 LINE"
);
}
);
width = 694;
}
);
leftKerningGroup = H;
rightKerningGroup = H;
unicode = 004D;
},
{
glyphname = N;
lastChange = "2018-08-14 19:30:36 +0000";
layers = (
{
anchors = (
{
name = bottom;
position = "{325, 0}";
},
{
name = top;
position = "{325, 694}";
}
);
layerId = "BADA37E3-C95E-4946-BA48-1F986F6D85A7";
paths = (
{
closed = 1;
nodes = (
"134 0 LINE",
"134 597 LINE",
"514 0 LINE",
"570 0 LINE",
"570 700 LINE",
"514 700 LINE",
"514 103 LINE",
"134 700 LINE",
"78 700 LINE",
"78 0 LINE"
);
}
);
width = 650;
},
{
anchors = (
{
name = bottom;
position = "{326, 0}";
},
{
name = top;
position = "{326, 694}";
}
);
layerId = "77B00D75-0619-4FB7-8D17-EB9FCD2DF18B";
paths = (
{
closed = 1;
nodes = (
"97 0 LINE",
"97 670 LINE",
"554 0 LINE",
"573 0 LINE",
"573 700 LINE",
"554 700 LINE",
"554 32 LINE",
"97 700 LINE",
"78 700 LINE",
"78 0 LINE"
);
}
);
width = 653;
},
{
anchors = (
{
name = bottom;
position = "{325, 0}";
},
{
name = top;
position = "{325, 694}";
}
);
layerId = "8A94633D-DA21-409C-A8B7-00A83612E8B2";
paths = (
{
closed = 1;
nodes = (
"188 0 LINE",
"188 473 LINE",
"459 0 LINE",
"570 0 LINE",
"570 700 LINE",
"459 700 LINE",
"459 230 LINE",
"188 700 LINE",
"78 700 LINE",
"78 0 LINE"
);
}
);
width = 650;
}
);
leftKerningGroup = H;
rightKerningGroup = H;
unicode = 004E;
},
{
glyphname = Eng;
lastChange = "2018-08-14 19:31:07 +0000";
layers = (
{
layerId = "BADA37E3-C95E-4946-BA48-1F986F6D85A7";
paths = (
{
closed = 1;
nodes = (
"134 0 LINE",
"134 597 LINE",
"528 -17 LINE",
"570 0 LINE",
"570 700 LINE",
"514 700 LINE",
"514 100 LINE",
"134 700 LINE",
"78 700 LINE",
"78 0 LINE"
);
},
{
closed = 1;
nodes = (
"515 44 LINE",
"515 -56 LINE SMOOTH",
"515 -113 OFFCURVE",
"482 -166 OFFCURVE",
"440 -166 CURVE",
"447 -209 LINE",
"519 -209 OFFCURVE",
"570 -153 OFFCURVE",
"570 -61 CURVE SMOOTH",
"570 44 LINE"
);
}
);
width = 650;
},
{
layerId = "77B00D75-0619-4FB7-8D17-EB9FCD2DF18B";
paths = (
{
closed = 1;
nodes = (
"97 0 LINE",
"97 670 LINE",
"558 -6 LINE",
"573 0 LINE",
"573 700 LINE",
"554 700 LINE",
"554 31 LINE",
"97 700 LINE",
"78 700 LINE",
"78 0 LINE"
);
},
{
closed = 1;
nodes = (
"554 20 LINE",
"554 -82 LINE SMOOTH",
"554 -148 OFFCURVE",
"510 -191 OFFCURVE",
"465 -191 CURVE",
"468 -209 LINE",
"538 -198 OFFCURVE",
"573 -156 OFFCURVE",
"573 -83 CURVE SMOOTH",
"573 20 LINE"
);
}
);
width = 653;
},
{
layerId = "8A94633D-DA21-409C-A8B7-00A83612E8B2";
paths = (
{
closed = 1;
nodes = (
"188 0 LINE",
"188 473 LINE",
"473 -15 LINE",
"570 0 LINE",
"570 700 LINE",
"459 700 LINE",
"459 220 LINE",
"188 700 LINE",
"78 700 LINE",
"78 0 LINE"
);
},
{
closed = 1;
nodes = (
"460 204 LINE",
"460 -35 LINE SMOOTH",
"460 -88 OFFCURVE",
"432 -117 OFFCURVE",
"389 -124 CURVE",
"419 -209 LINE",
"494 -209 OFFCURVE",
"570 -146 OFFCURVE",
"570 -34 CURVE SMOOTH",
"570 204 LINE"
);
}
);
width = 650;
}
);
leftKerningGroup = H;
leftMetricsKey = N;
rightKerningGroup = H;
rightMetricsKey = N;
unicode = 014A;
},
{
glyphname = O;
lastChange = "2018-08-14 21:37:01 +0000";
layers = (
{
anchors = (
{
name = bottom;
position = "{275, 0}";
},
{
name = center;
position = "{275, 350}";
},
{
name = ogonek;
position = "{494, 10}";
},
{
name = top;
position = "{275, 694}";
},
{
name = topleft;
position = "{80, 694}";
},
{
name = topright;
position = "{529, 700}";
}
);
layerId = "BADA37E3-C95E-4946-BA48-1F986F6D85A7";
paths = (
{
closed = 1;
nodes = (
"388.667 -11 OFFCURVE",
"483 50.333 OFFCURVE",
"483 185 CURVE SMOOTH",
"483 506 LINE SMOOTH",
"483 636.667 OFFCURVE",
"407 716 OFFCURVE",
"275 716 CURVE SMOOTH",
"143 716 OFFCURVE",
"63 644.333 OFFCURVE",
"63 507 CURVE SMOOTH",
"63 185 LINE SMOOTH",
"63 50.333 OFFCURVE",
"159.333 -11 OFFCURVE",
"274 -11 CURVE SMOOTH"
);
},
{
closed = 1;
nodes = (
"197 40 OFFCURVE",
"119 89 OFFCURVE",
"119 186 CURVE SMOOTH",
"119 516 LINE SMOOTH",
"119 613.333 OFFCURVE",
"179.667 663 OFFCURVE",
"273 663 CURVE SMOOTH",
"366.333 663 OFFCURVE",
"428 613.333 OFFCURVE",
"428 516 CURVE SMOOTH",
"428 187 LINE SMOOTH",
"428 88 OFFCURVE",
"352 40 OFFCURVE",
"275 40 CURVE SMOOTH"
);
}
);
width = 549;
},
{
anchors = (
{
name = bottom;
position = "{275, 0}";
},
{
name = center;
position = "{275, 350}";
},
{
name = ogonek;
position = "{494, 10}";
},
{
name = top;
position = "{275, 694}";
},
{
name = topleft;
position = "{74, 700}";
},
{
name = topright;
position = "{529, 700}";
}
);
layerId = "77B00D75-0619-4FB7-8D17-EB9FCD2DF18B";
paths = (
{
closed = 1;
nodes = (
"388.667 -11 OFFCURVE",
"483 50.333 OFFCURVE",
"483 185 CURVE SMOOTH",
"483 506 LINE SMOOTH",
"483 636.667 OFFCURVE",
"407 716 OFFCURVE",
"275 716 CURVE SMOOTH",
"143 716 OFFCURVE",
"63 644.333 OFFCURVE",
"63 507 CURVE SMOOTH",
"63 185 LINE SMOOTH",
"63 50.333 OFFCURVE",
"159.333 -11 OFFCURVE",
"274 -11 CURVE SMOOTH"
);
},
{
closed = 1;
nodes = (
"167.333 8 OFFCURVE",
"82 68 OFFCURVE",
"82 184 CURVE SMOOTH",
"82 508 LINE SMOOTH",
"82 622.667 OFFCURVE",
"146.333 695 OFFCURVE",
"273 695 CURVE SMOOTH",
"399.667 695 OFFCURVE",
"464 624.667 OFFCURVE",
"464 510 CURVE SMOOTH",
"464 184 LINE SMOOTH",
"464 61.333 OFFCURVE",
"380.667 8 OFFCURVE",
"274 8 CURVE SMOOTH"
);
}
);
width = 549;
},
{
anchors = (
{
name = bottom;
position = "{275, 0}";
},
{
name = center;
position = "{275, 350}";
},
{
name = ogonek;
position = "{494, 10}";
},
{
name = top;
position = "{275, 694}";
},
{
name = topleft;
position = "{97, 694}";
},
{
name = topright;
position = "{529, 694}";
}
);
layerId = "8A94633D-DA21-409C-A8B7-00A83612E8B2";
paths = (
{
closed = 1;
nodes = (
"388.667 -11 OFFCURVE",
"483 50.333 OFFCURVE",
"483 185 CURVE SMOOTH",
"483 506 LINE SMOOTH",
"483 636.667 OFFCURVE",
"407 716 OFFCURVE",
"275 716 CURVE SMOOTH",
"143 716 OFFCURVE",
"63 644.333 OFFCURVE",
"63 507 CURVE SMOOTH",
"63 185 LINE SMOOTH",
"63 50.333 OFFCURVE",
"159.333 -11 OFFCURVE",
"274 -11 CURVE SMOOTH"
);
},
{
closed = 1;
nodes = (
"205 101 OFFCURVE",
"173 140 OFFCURVE",
"173 204 CURVE SMOOTH",
"173 471 LINE SMOOTH",
"173 557.667 OFFCURVE",
"191.667 597 OFFCURVE",
"273 597 CURVE SMOOTH",
"354.333 597 OFFCURVE",
"373 555.333 OFFCURVE",
"373 470 CURVE SMOOTH",
"373 206 LINE SMOOTH",
"373 143.333 OFFCURVE",
"335.667 101 OFFCURVE",
"273 101 CURVE SMOOTH"
);
}
);
width = 549;
}
);
leftKerningGroup = O;
rightKerningGroup = O;
unicode = 004F;
},
{
glyphname = P;
lastChange = "2018-08-13 21:30:08 +0000";
layers = (
{
anchors = (
{
name = bottom;
position = "{106, 0}";
},
{
name = top;
position = "{273, 694}";
}
);
layerId = "BADA37E3-C95E-4946-BA48-1F986F6D85A7";
paths = (
{
closed = 1;
nodes = (
"134 0 LINE",
"134 245 LINE",
"331 245 LINE SMOOTH",
"466 245 OFFCURVE",
"511 349 OFFCURVE",
"511 477 CURVE SMOOTH",
"511 622 OFFCURVE",
"450.667 700 OFFCURVE",
"324 700 CURVE SMOOTH",
"78 700 LINE",
"78 0 LINE"
);
},
{
closed = 1;
nodes = (
"134 647 LINE",
"328 647 LINE SMOOTH",
"406.667 647 OFFCURVE",
"456 599 OFFCURVE",
"456 477 CURVE SMOOTH",
"456 383 OFFCURVE",
"433 300 OFFCURVE",
"332 300 CURVE SMOOTH",
"134 300 LINE"
);
}
);
width = 545;
},
{
anchors = (
{
name = bottom;
position = "{88, 0}";
},
{
name = top;
position = "{276, 694}";
}
);
layerId = "77B00D75-0619-4FB7-8D17-EB9FCD2DF18B";
paths = (
{
closed = 1;
nodes = (
"97 0 LINE",
"97 281 LINE",
"311 281 LINE SMOOTH",
"445 281 OFFCURVE",
"512 349.333 OFFCURVE",
"512 486 CURVE SMOOTH",
"512 616.667 OFFCURVE",
"450.667 700 OFFCURVE",
"324 700 CURVE SMOOTH",
"78 700 LINE",
"78 0 LINE"
);
},
{
closed = 1;
nodes = (
"97 680 LINE",
"325 680 LINE SMOOTH",
"441 680 OFFCURVE",
"493 604.667 OFFCURVE",
"493 486 CURVE SMOOTH",
"493 362 OFFCURVE",
"431.667 300 OFFCURVE",
"309 300 CURVE SMOOTH",
"97 300 LINE"
);
}
);
width = 551;
},
{
anchors = (
{
name = bottom;
position = "{133, 0}";
},
{
name = top;
position = "{276, 694}";
}
);
layerId = "8A94633D-DA21-409C-A8B7-00A83612E8B2";
paths = (
{
closed = 1;
nodes = (
"188 0 LINE",
"188 195 LINE",
"315 195 LINE SMOOTH",
"446.333 195 OFFCURVE",
"512 284.333 OFFCURVE",
"512 453 CURVE SMOOTH",
"512 599 OFFCURVE",
"446 700 OFFCURVE",
"306 700 CURVE SMOOTH",
"78 700 LINE",
"78 0 LINE"
);
},
{
closed = 1;
nodes = (
"188 590 LINE",
"278 590 LINE SMOOTH",
"375 590 OFFCURVE",
"402 553 OFFCURVE",
"402 452 CURVE SMOOTH",
"402 356 OFFCURVE",
"380 300 OFFCURVE",
"281 300 CURVE SMOOTH",
"188 300 LINE"
);
}
);
width = 551;
}
);
leftKerningGroup = O;
rightKerningGroup = P;
unicode = 0050;
},
{
glyphname = Thorn;
lastChange = "2018-08-13 17:31:24 +0000";
layers = (
{
layerId = "BADA37E3-C95E-4946-BA48-1F986F6D85A7";
paths = (
{
closed = 1;
nodes = (
"134 0 LINE",
"134 139 LINE",
"323 139 LINE SMOOTH",
"458 139 OFFCURVE",
"503 242 OFFCURVE",
"503 360 CURVE SMOOTH",
"503 501 OFFCURVE",
"443 574 OFFCURVE",
"316 574 CURVE SMOOTH",
"134 574 LINE",
"134 700 LINE",
"78 700 LINE",
"78 0 LINE"
);
},
{
closed = 1;
nodes = (
"134 521 LINE",
"320 521 LINE SMOOTH",
"399 521 OFFCURVE",
"448 478 OFFCURVE",
"448 360 CURVE SMOOTH",
"448 271 OFFCURVE",
"425 194 OFFCURVE",
"324 194 CURVE SMOOTH",
"134 194 LINE"
);
}
);
width = 537;
},
{
layerId = "77B00D75-0619-4FB7-8D17-EB9FCD2DF18B";
paths = (
{
closed = 1;
nodes = (
"97 0 LINE",
"97 154 LINE",
"290 154 LINE SMOOTH",
"424 154 OFFCURVE",
"491 220 OFFCURVE",
"491 352 CURVE SMOOTH",
"491 479 OFFCURVE",
"430 559 OFFCURVE",
"303 559 CURVE SMOOTH",
"97 559 LINE",
"97 700 LINE",
"78 700 LINE",
"78 0 LINE"
);
},
{
closed = 1;
nodes = (
"97 539 LINE",
"304 539 LINE SMOOTH",
"420 539 OFFCURVE",
"472 467 OFFCURVE",
"472 352 CURVE SMOOTH",
"472 233 OFFCURVE",
"411 173 OFFCURVE",
"288 173 CURVE SMOOTH",
"97 173 LINE"
);
}
);
width = 530;
},
{
layerId = "8A94633D-DA21-409C-A8B7-00A83612E8B2";
paths = (
{
closed = 1;
nodes = (
"188 0 LINE",
"188 112 LINE",
"315 112 LINE SMOOTH",
"446 112 OFFCURVE",
"512 197 OFFCURVE",
"512 358 CURVE SMOOTH",
"512 497 OFFCURVE",
"446 593 OFFCURVE",
"306 593 CURVE SMOOTH",
"188 593 LINE",
"188 700 LINE",
"78 700 LINE",
"78 0 LINE"
);
},
{
closed = 1;
nodes = (
"188 483 LINE",
"278 483 LINE SMOOTH",
"375 483 OFFCURVE",
"402 449 OFFCURVE",
"402 357 CURVE SMOOTH",
"402 269 OFFCURVE",
"380 217 OFFCURVE",
"281 217 CURVE SMOOTH",
"188 217 LINE"
);
}
);
width = 551;
},
{
associatedMasterId = "BADA37E3-C95E-4946-BA48-1F986F6D85A7";
layerId = "86C77A48-9E0E-4F89-997C-966BBE9EF730";
name = "Aug 13 18, 13:25";
paths = (
{
closed = 1;
nodes = (
"134 0 LINE",
"134 185 LINE",
"160.667 142.333 OFFCURVE",
"219.667 116 OFFCURVE",
"269 116 CURVE SMOOTH",
"379.667 116 OFFCURVE",
"455 191 OFFCURVE",
"455 311 CURVE SMOOTH",
"455 371 OFFCURVE",
"438.833 419 OFFCURVE",
"406.5 455 CURVE SMOOTH",
"374.167 491 OFFCURVE",
"283.333 491 OFFCURVE",
"134 455 CURVE",
"134 700 LINE",
"78 700 LINE",
"78 0 LINE"
);
},
{
closed = 1;
nodes = (
"188.333 170 OFFCURVE",
"134 221.333 OFFCURVE",
"134 324 CURVE",
"141.829 504.073 OFFCURVE",
"399 508.249 OFFCURVE",
"399 317 CURVE SMOOTH",
"399 217 OFFCURVE",
"345.667 170 OFFCURVE",
"267 170 CURVE SMOOTH"
);
}
);
width = 488;
},
{
associatedMasterId = "8A94633D-DA21-409C-A8B7-00A83612E8B2";
layerId = "0DA88F24-E409-43DA-959E-7F052F07FC60";
name = "Aug 13 18, 13:25";
paths = (
{
closed = 1;
nodes = (
"186 0 LINE",
"186 139 LINE",
"208 123.667 OFFCURVE",
"235.667 116 OFFCURVE",
"269 116 CURVE SMOOTH",
"379.667 116 OFFCURVE",
"455 189.667 OFFCURVE",
"455 315 CURVE SMOOTH",
"455 429.667 OFFCURVE",
"389 509 OFFCURVE",
"265 509 CURVE SMOOTH",
"237.667 509 OFFCURVE",
"211.333 503.333 OFFCURVE",
"186 492 CURVE",
"186 700 LINE",
"78 700 LINE",
"78 0 LINE"
);
},
{
closed = 1;
nodes = (
"223.667 220 OFFCURVE",
"186 248.667 OFFCURVE",
"186 318 CURVE SMOOTH",
"186 368.667 OFFCURVE",
"227.667 404 OFFCURVE",
"269 404 CURVE SMOOTH",
"322.333 404 OFFCURVE",
"346 360 OFFCURVE",
"346 316 CURVE SMOOTH",
"346 248 OFFCURVE",
"309 220 OFFCURVE",
"269 220 CURVE SMOOTH"
);
}
);
width = 494;
},
{
associatedMasterId = "77B00D75-0619-4FB7-8D17-EB9FCD2DF18B";
layerId = "0742842F-66A8-4FE2-96D9-B31A6E987458";
name = "Aug 13 18, 13:25";
paths = (
{
closed = 1;
nodes = (
"97 0 LINE",
"97 235 LINE",
"126.387 161.532 OFFCURVE",
"213.619 116 OFFCURVE",
"268 116 CURVE SMOOTH",
"372 116 OFFCURVE",
"456 192.667 OFFCURVE",
"456 310 CURVE SMOOTH",
"456 427.333 OFFCURVE",
"388.667 510 OFFCURVE",
"266 510 CURVE SMOOTH",
"193.333 510 OFFCURVE",
"137 476.667 OFFCURVE",
"97 410 CURVE",
"97 700 LINE",
"78 700 LINE",
"78 0 LINE"
);
},
{
closed = 1;
nodes = (
"171.167 134 OFFCURVE",
"99 209.333 OFFCURVE",
"99 320 CURVE SMOOTH",
"99 432 OFFCURVE",
"183.5 494 OFFCURVE",
"269.5 494 CURVE SMOOTH",
"355.5 494 OFFCURVE",
"437 431 OFFCURVE",
"437 315 CURVE SMOOTH",
"437 199 OFFCURVE",
"361.833 134 OFFCURVE",
"266.5 134 CURVE SMOOTH"
);
}
);
width = 495;
}
);
rightMetricsKey = P;
unicode = 00DE;
},
{
glyphname = Q;
lastChange = "2018-08-13 21:30:08 +0000";
layers = (
{
anchors = (
{
name = bottom;
position = "{275, -70}";
},
{
name = top;
position = "{275, 694}";
}
);
layerId = "BADA37E3-C95E-4946-BA48-1F986F6D85A7";
paths = (
{
closed = 1;
nodes = (
"428 -40 LINE",
"389 -40 OFFCURVE",
"345 -35 OFFCURVE",
"322 -7 CURVE",
"415.333 9 OFFCURVE",
"483 69 OFFCURVE",
"483 185 CURVE SMOOTH",
"483 506 LINE SMOOTH",
"483 636.667 OFFCURVE",
"407 716 OFFCURVE",
"275 716 CURVE SMOOTH",
"143 716 OFFCURVE",
"63 644.333 OFFCURVE",
"63 507 CURVE SMOOTH",
"63 185 LINE SMOOTH",
"63 62 OFFCURVE",
"144 -8 OFFCURVE",
"266 -11 CURVE",
"294 -66.333 OFFCURVE",
"348 -94 OFFCURVE",
"428 -94 CURVE"
);
},
{
closed = 1;
nodes = (
"170.667 51 OFFCURVE",
"119 100.667 OFFCURVE",
"119 186 CURVE SMOOTH",
"119 516 LINE SMOOTH",
"119 613.333 OFFCURVE",
"179.667 663 OFFCURVE",
"273 663 CURVE SMOOTH",
"366.333 663 OFFCURVE",
"428 613.333 OFFCURVE",
"428 516 CURVE SMOOTH",
"428 187 LINE SMOOTH",
"428 100.333 OFFCURVE",
"379 53.333 OFFCURVE",
"303 44 CURVE",
"301 55.333 OFFCURVE",
"300 74.667 OFFCURVE",
"300 102 CURVE SMOOTH",
"300 174 LINE",
"244 174 LINE",
"244 101 LINE SMOOTH",
"244 78.333 OFFCURVE",
"245.333 59 OFFCURVE",
"248 43 CURVE"
);
}
);
width = 549;
},
{
anchors = (
{
name = bottom;
position = "{275, -82}";
},
{
name = top;
position = "{275, 694}";
}
);
layerId = "77B00D75-0619-4FB7-8D17-EB9FCD2DF18B";
paths = (
{
closed = 1;
nodes = (
"428 -75 LINE",
"352 -74.333 OFFCURVE",
"309.333 -53 OFFCURVE",
"300 -11 CURVE",
"412 2.333 OFFCURVE",
"483 66.333 OFFCURVE",
"483 185 CURVE SMOOTH",
"483 506 LINE SMOOTH",
"483 636.667 OFFCURVE",
"407 716 OFFCURVE",
"275 716 CURVE SMOOTH",
"143 716 OFFCURVE",
"63 644.333 OFFCURVE",
"63 507 CURVE SMOOTH",
"63 185 LINE SMOOTH",
"63 51.667 OFFCURVE",
"157 -11 OFFCURVE",
"277 -11 CURVE",
"295 -66.333 OFFCURVE",
"345.333 -94 OFFCURVE",
"428 -94 CURVE"
);
},
{
closed = 1;
nodes = (
"164 8 OFFCURVE",
"84 70 OFFCURVE",
"84 184 CURVE SMOOTH",
"84 516 LINE SMOOTH",
"84 641.333 OFFCURVE",
"165.833 696 OFFCURVE",
"274.5 696 CURVE SMOOTH",
"383.167 696 OFFCURVE",
"463 634.667 OFFCURVE",
"463 516 CURVE SMOOTH",
"463 186 LINE SMOOTH",
"463 87.333 OFFCURVE",
"401.333 14.333 OFFCURVE",
"296 9 CURVE",
"292.667 27.667 OFFCURVE",
"291 52 OFFCURVE",
"291 81 CURVE SMOOTH",
"290 174 LINE",
"270 174 LINE",
"270 81 LINE SMOOTH",
"270 48.333 OFFCURVE",
"271.333 24 OFFCURVE",
"274 8 CURVE"
);
}
);
width = 549;
},
{
anchors = (
{
name = bottom;
position = "{275, -106}";
},
{
name = top;
position = "{275, 694}";
}
);
layerId = "8A94633D-DA21-409C-A8B7-00A83612E8B2";
paths = (
{
closed = 1;
nodes = (
"431 -22 LINE",
"381.667 -22 OFFCURVE",
"365.333 -19 OFFCURVE",
"348 1 CURVE",
"417.333 14.333 OFFCURVE",
"483 73 OFFCURVE",
"483 185 CURVE SMOOTH",
"483 506 LINE SMOOTH",
"483 636.667 OFFCURVE",
"407 716 OFFCURVE",
"275 716 CURVE SMOOTH",
"143 716 OFFCURVE",
"63 644.333 OFFCURVE",
"63 507 CURVE SMOOTH",
"63 185 LINE SMOOTH",
"63 59.503 OFFCURVE",
"144.854 1.115 OFFCURVE",
"236 -8 CURVE",
"265 -88 OFFCURVE",
"325 -116 OFFCURVE",
"417 -116 CURVE"
);
},
{
closed = 1;
nodes = (
"188 101 OFFCURVE",
"173 129.333 OFFCURVE",
"173 186 CURVE SMOOTH",
"173 505 LINE SMOOTH",
"173 562.333 OFFCURVE",
"193 599 OFFCURVE",
"273 599 CURVE SMOOTH",
"348.136 599 OFFCURVE",
"373 553.785 OFFCURVE",
"373 505 CURVE SMOOTH",
"373 187 LINE SMOOTH",
"373 130.333 OFFCURVE",
"357.667 102 OFFCURVE",
"327 102 CURVE",
"327 120 OFFCURVE",
"327 139 OFFCURVE",
"327 157 CURVE SMOOTH",
"327 174 LINE",
"217 174 LINE",
"217 156 LINE SMOOTH",
"217 143 OFFCURVE",
"217 123 OFFCURVE",
"218 101 CURVE"
);
}
);
width = 549;
}
);
leftKerningGroup = O;
rightKerningGroup = O;
unicode = 0051;
},
{
glyphname = R;
lastChange = "2018-08-13 21:30:08 +0000";
layers = (
{
anchors = (
{
name = bottom;
position = "{282, 0}";
},
{
name = top;
position = "{263, 694}";
}
);
layerId = "BADA37E3-C95E-4946-BA48-1F986F6D85A7";
paths = (
{
closed = 1;
nodes = (
"134 0 LINE",
"134 245 LINE",
"331 245 LINE SMOOTH",
"345.667 245 OFFCURVE",
"359 246 OFFCURVE",
"371 248 CURVE",
"456 0 LINE",
"513 0 LINE",
"424 265 LINE",
"492 305 OFFCURVE",
"512 380 OFFCURVE",
"512 486 CURVE SMOOTH",
"512 616.667 OFFCURVE",
"450.667 700 OFFCURVE",
"324 700 CURVE SMOOTH",
"78 700 LINE",
"78 0 LINE"
);
},
{
closed = 1;
nodes = (
"134 647 LINE",
"328 647 LINE SMOOTH",
"406.667 647 OFFCURVE",
"456 594 OFFCURVE",
"456 486 CURVE SMOOTH",
"456 377 OFFCURVE",
"433 300 OFFCURVE",
"332 300 CURVE SMOOTH",
"134 300 LINE"
);
}
);
width = 564;
},
{
anchors = (
{
name = bottom;
position = "{282, 0}";
},
{
name = top;
position = "{272, 694}";
}
);
layerId = "77B00D75-0619-4FB7-8D17-EB9FCD2DF18B";
paths = (
{
closed = 1;
nodes = (
"98 0 LINE",
"98 281 LINE",
"332 281 LINE SMOOTH",
"336.667 281 OFFCURVE",
"345 281.667 OFFCURVE",
"357 283 CURVE",
"492 0 LINE",
"513 0 LINE",
"376 287 LINE",
"468 314 OFFCURVE",
"512 389 OFFCURVE",
"512 486 CURVE SMOOTH",
"512 616.667 OFFCURVE",
"449 700 OFFCURVE",
"317 700 CURVE SMOOTH",
"78 700 LINE",
"78 0 LINE"
);
},
{
closed = 1;
nodes = (
"98 680 LINE",
"316 680 LINE SMOOTH",
"432 680 OFFCURVE",
"492 606 OFFCURVE",
"492 494 CURVE SMOOTH",
"492 382 OFFCURVE",
"437.333 300 OFFCURVE",
"316 300 CURVE SMOOTH",
"98 300 LINE"
);
}
);
width = 564;
},
{
anchors = (
{
name = bottom;
position = "{282, 0}";
},
{
name = top;
position = "{277, 694}";
}
);
layerId = "8A94633D-DA21-409C-A8B7-00A83612E8B2";
paths = (
{
closed = 1;
nodes = (
"188 0 LINE",
"188 195 LINE",
"294 195 LINE SMOOTH",
"307 195 OFFCURVE",
"321 195 OFFCURVE",
"334 195 CURVE",
"401 0 LINE",
"513 0 LINE",
"435 232 LINE",
"503 293 OFFCURVE",
"512 370 OFFCURVE",
"512 462 CURVE SMOOTH",
"512 596.667 OFFCURVE",
"444.333 700 OFFCURVE",
"315 700 CURVE SMOOTH",
"78 700 LINE",
"78 0 LINE"
);
},
{
closed = 1;
nodes = (
"188 589 LINE",
"269 589 LINE SMOOTH",
"355.667 589 OFFCURVE",
"396 564.667 OFFCURVE",
"396 462 CURVE SMOOTH",
"396 348 OFFCURVE",
"371 300 OFFCURVE",
"289 300 CURVE SMOOTH",
"188 300 LINE"
);
}
);
width = 564;
}
);
leftKerningGroup = H;
rightKerningGroup = R;
unicode = 0052;
},
{
glyphname = S;
lastChange = "2018-08-13 21:30:08 +0000";
layers = (
{
anchors = (
{
name = bottom;
position = "{281, 0}";
},
{
name = top;
position = "{264, 694}";
}
);
layerId = "BADA37E3-C95E-4946-BA48-1F986F6D85A7";
paths = (
{
closed = 1;
nodes = (
"433.5 -11 OFFCURVE",
"512 69.333 OFFCURVE",
"512 186 CURVE SMOOTH",
"512 321 OFFCURVE",
"396 362 OFFCURVE",
"289 398 CURVE SMOOTH",
"198 429 OFFCURVE",
"113 457 OFFCURVE",
"113 535 CURVE SMOOTH",
"113 611 OFFCURVE",
"180.5 656 OFFCURVE",
"278.5 656 CURVE SMOOTH",
"327.5 656 OFFCURVE",
"371 646.333 OFFCURVE",
"409 627 CURVE",
"426 680 LINE",
"384 700 OFFCURVE",
"335.333 710 OFFCURVE",
"280 710 CURVE SMOOTH",
"134.667 710 OFFCURVE",
"55 631.333 OFFCURVE",
"55 538 CURVE SMOOTH",
"55 421 OFFCURVE",
"161 384 OFFCURVE",
"263 348 CURVE SMOOTH",
"359 314 OFFCURVE",
"452 282 OFFCURVE",
"452 181 CURVE SMOOTH",
"452 85 OFFCURVE",
"374 43 OFFCURVE",
"267 43 CURVE SMOOTH",
"187 43 OFFCURVE",
"101 97 OFFCURVE",
"94 178 CURVE",
"37 178 LINE",
"39.667 79.333 OFFCURVE",
"121 -11 OFFCURVE",
"279.5 -11 CURVE SMOOTH"
);
}
);
width = 561;
},
{
anchors = (
{
name = bottom;
position = "{281, 0}";
},
{
name = top;
position = "{273, 694}";
}
);
layerId = "77B00D75-0619-4FB7-8D17-EB9FCD2DF18B";
paths = (
{
closed = 1;
nodes = (
"434.667 -11 OFFCURVE",
"512 65.667 OFFCURVE",
"512 178 CURVE SMOOTH",
"512 306 OFFCURVE",
"392 346 OFFCURVE",
"278 383 CURVE SMOOTH",
"174 417 OFFCURVE",
"76 449 OFFCURVE",
"76 538 CURVE SMOOTH",
"76 634 OFFCURVE",
"166.667 691 OFFCURVE",
"276 691 CURVE SMOOTH",
"330.667 691 OFFCURVE",
"378 680.667 OFFCURVE",
"418 660 CURVE",
"426 680 LINE",
"384 700 OFFCURVE",
"335.333 710 OFFCURVE",
"280 710 CURVE SMOOTH",
"134.667 710 OFFCURVE",
"55 632 OFFCURVE",
"55 541 CURVE SMOOTH",
"55 435 OFFCURVE",
"162 399 OFFCURVE",
"271 363 CURVE SMOOTH",
"380 327 OFFCURVE",
"491 292 OFFCURVE",
"491 178 CURVE SMOOTH",
"491 61.667 OFFCURVE",
"403.333 7 OFFCURVE",
"276 7 CURVE SMOOTH",
"131 7 OFFCURVE",
"59 95.333 OFFCURVE",
"59 178 CURVE",
"37 178 LINE",
"39.667 79.333 OFFCURVE",
"125.333 -11 OFFCURVE",
"280 -11 CURVE SMOOTH"
);
}
);
width = 561;
},
{
anchors = (
{
name = bottom;
position = "{281, 0}";
},
{
name = top;
position = "{254, 694}";
}
);
layerId = "8A94633D-DA21-409C-A8B7-00A83612E8B2";
paths = (
{
closed = 1;
nodes = (
"434.333 -11 OFFCURVE",
"512 75.333 OFFCURVE",
"512 194 CURVE SMOOTH",
"512 341 OFFCURVE",
"389 396 OFFCURVE",
"291 439 CURVE SMOOTH",
"223 469 OFFCURVE",
"173 492 OFFCURVE",
"173 533 CURVE SMOOTH",
"173 576 OFFCURVE",
"221 598 OFFCURVE",
"282 598 CURVE SMOOTH",
"315 598 OFFCURVE",
"352 592 OFFCURVE",
"391 576 CURVE",
"426 680 LINE",
"384 700 OFFCURVE",
"335.333 710 OFFCURVE",
"280 710 CURVE SMOOTH",
"134.667 710 OFFCURVE",
"54 637 OFFCURVE",
"54 536 CURVE SMOOTH",
"54 420 OFFCURVE",
"143 383 OFFCURVE",
"230 347 CURVE SMOOTH",
"312 313 OFFCURVE",
"391 278 OFFCURVE",
"391 193 CURVE SMOOTH",
"391 141 OFFCURVE",
"353.333 97 OFFCURVE",
"272 97 CURVE SMOOTH",
"203 97 OFFCURVE",
"161.667 136.333 OFFCURVE",
"155 195 CURVE",
"37 178 LINE",
"39.667 79.333 OFFCURVE",
"127.667 -11 OFFCURVE",
"273 -11 CURVE SMOOTH"
);
}
);
width = 561;
}
);
leftKerningGroup = S;
rightKerningGroup = S;
unicode = 0053;
},
{
glyphname = T;
lastChange = "2018-08-14 18:54:29 +0000";
layers = (
{
anchors = (
{
name = bottom;
position = "{198, 0}";
},
{
name = center;
position = "{198, 370}";
},
{
name = top;
position = "{198, 694}";
}
);
layerId = "BADA37E3-C95E-4946-BA48-1F986F6D85A7";
paths = (
{
closed = 1;
nodes = (
"226 0 LINE",
"226 650 LINE",
"402 650 LINE",
"402 700 LINE",
"0 700 LINE",
"0 650 LINE",
"170 650 LINE",
"170 0 LINE"
);
}
);
width = 402;
},
{
anchors = (
{
name = bottom;
position = "{200, 0}";
},
{
name = center;
position = "{200, 370}";
},
{
name = top;
position = "{200, 694}";
}
);
layerId = "77B00D75-0619-4FB7-8D17-EB9FCD2DF18B";
paths = (
{
closed = 1;
nodes = (
"208 0 LINE",
"208 680 LINE",
"402 680 LINE",
"402 700 LINE",
"0 700 LINE",
"0 680 LINE",
"189 680 LINE",
"190 0 LINE"
);
}
);
width = 402;
},
{
anchors = (
{
name = bottom;
position = "{200, 0}";
},
{
name = center;
position = "{200, 360}";
},
{
name = top;
position = "{200, 694}";
}
);
layerId = "8A94633D-DA21-409C-A8B7-00A83612E8B2";
paths = (
{
closed = 1;
nodes = (
"254 0 LINE",
"254 589 LINE",
"402 589 LINE",
"402 700 LINE",
"0 700 LINE",
"0 589 LINE",
"144 589 LINE",
"144 0 LINE"
);
}
);
width = 402;
}
);
leftKerningGroup = T;
rightKerningGroup = T;
unicode = 0054;
},
{
glyphname = U;
lastChange = "2018-08-13 21:44:14 +0000";
layers = (
{
anchors = (
{
name = bottom;
position = "{285, 0}";
},
{
name = ogonek;
position = "{342, 0}";
},
{
name = top;
position = "{285, 694}";
},
{
name = topright;
position = "{546, 700}";
}
);
layerId = "BADA37E3-C95E-4946-BA48-1F986F6D85A7";
paths = (
{
closed = 1;
nodes = (
"399.934 -7 OFFCURVE",
"495 51.633 OFFCURVE",
"495 186 CURVE SMOOTH",
"495 701 LINE",
"439 701 LINE",
"439 178 LINE SMOOTH",
"439 88 OFFCURVE",
"362 43 OFFCURVE",
"285 43 CURVE SMOOTH",
"207 43 OFFCURVE",
"130 88 OFFCURVE",
"130 178 CURVE SMOOTH",
"130 701 LINE",
"74 701 LINE",
"74 186 LINE SMOOTH",
"74 51.534 OFFCURVE",
"169.184 -7 OFFCURVE",
"285 -7 CURVE SMOOTH"
);
}
);
width = 566;
},
{
anchors = (
{
name = bottom;
position = "{287, 0}";
},
{
name = ogonek;
position = "{322, 0}";
},
{
name = top;
position = "{287, 694}";
},
{
name = topright;
position = "{546, 700}";
}
);
layerId = "77B00D75-0619-4FB7-8D17-EB9FCD2DF18B";
paths = (
{
closed = 1;
nodes = (
"399.934 -7 OFFCURVE",
"495 51.633 OFFCURVE",
"495 186 CURVE SMOOTH",
"495 701 LINE",
"476 701 LINE",
"476 184 LINE SMOOTH",
"476 63.935 OFFCURVE",
"387.336 12 OFFCURVE",
"287 12 CURVE SMOOTH",
"185.851 12 OFFCURVE",
"93 62.848 OFFCURVE",
"93 184 CURVE SMOOTH",
"93 701 LINE",
"74 701 LINE",
"74 186 LINE SMOOTH",
"74 51.534 OFFCURVE",
"169.184 -7 OFFCURVE",
"285 -7 CURVE SMOOTH"
);
}
);
width = 566;
},
{
anchors = (
{
name = bottom;
position = "{284, 0}";
},
{
name = ogonek;
position = "{339, 0}";
},
{
name = top;
position = "{284, 694}";
},
{
name = topright;
position = "{546, 700}";
}
);
layerId = "8A94633D-DA21-409C-A8B7-00A83612E8B2";
paths = (
{
closed = 1;
nodes = (
"399.934 -7 OFFCURVE",
"495 51.633 OFFCURVE",
"495 186 CURVE SMOOTH",
"495 701 LINE",
"385 701 LINE",
"385 230 LINE SMOOTH",
"385 139.333 OFFCURVE",
"364 101 OFFCURVE",
"284 101 CURVE SMOOTH",
"205.333 101 OFFCURVE",
"184 139.333 OFFCURVE",
"184 230 CURVE SMOOTH",
"184 701 LINE",
"74 701 LINE",
"74 186 LINE SMOOTH",
"74 51.534 OFFCURVE",
"169.184 -7 OFFCURVE",
"285 -7 CURVE SMOOTH"
);
}
);
width = 566;
}
);
leftKerningGroup = U;
rightKerningGroup = U;
unicode = 0055;
},
{
glyphname = V;
lastChange = "2018-08-13 21:30:08 +0000";
layers = (
{
anchors = (
{
name = bottom;
position = "{317, 0}";
},
{
name = top;
position = "{317, 694}";
}
);
layerId = "BADA37E3-C95E-4946-BA48-1F986F6D85A7";
paths = (
{
closed = 1;
nodes = (
"356 0 LINE",
"556 700 LINE",
"496 700 LINE",
"317 69 LINE",
"138 700 LINE",
"78 700 LINE",
"279 0 LINE"
);
}
);
width = 589;
},
{
anchors = (
{
name = bottom;
position = "{317, 0}";
},
{
name = top;
position = "{317, 694}";
}
);
layerId = "77B00D75-0619-4FB7-8D17-EB9FCD2DF18B";
paths = (
{
closed = 1;
nodes = (
"329 0 LINE",
"556 700 LINE",
"537 700 LINE",
"317 27 LINE",
"97 700 LINE",
"78 700 LINE",
"307 0 LINE"
);
}
);
width = 595;
},
{
anchors = (
{
name = bottom;
position = "{316, 0}";
},
{
name = top;
position = "{316, 694}";
}
);
layerId = "8A94633D-DA21-409C-A8B7-00A83612E8B2";
paths = (
{
closed = 1;
nodes = (
"382 0 LINE",
"556 700 LINE",
"429 700 LINE",
"317 216 LINE",
"202 700 LINE",
"78 700 LINE",
"253 0 LINE"
);
}
);
width = 595;
}
);
leftKerningGroup = V;
rightKerningGroup = V;
unicode = 0056;
},
{
glyphname = W;
lastChange = "2018-08-13 21:30:08 +0000";
layers = (
{
anchors = (
{
name = bottom;
position = "{427, 0}";
},
{
name = top;
position = "{427, 694}";
}
);
layerId = "BADA37E3-C95E-4946-BA48-1F986F6D85A7";
paths = (
{
closed = 1;
nodes = (
"328 0 LINE",
"427 599 LINE",
"526 0 LINE",
"611 0 LINE",
"774 700 LINE",
"714 700 LINE",
"573 69 LINE",
"466 700 LINE",
"388 700 LINE",
"281 69 LINE",
"138 700 LINE",
"78 700 LINE",
"243 0 LINE"
);
}
);
width = 807;
},
{
anchors = (
{
name = bottom;
position = "{427, 0}";
},
{
name = top;
position = "{427, 694}";
}
);
layerId = "77B00D75-0619-4FB7-8D17-EB9FCD2DF18B";
paths = (
{
closed = 1;
nodes = (
"282 0 LINE",
"427 653 LINE",
"572 0 LINE",
"593 0 LINE",
"774 700 LINE",
"752 700 LINE",
"583 35 LINE",
"437 700 LINE",
"417 700 LINE",
"271 36 LINE",
"99 700 LINE",
"78 700 LINE",
"261 0 LINE"
);
}
);
width = 813;
},
{
anchors = (
{
name = bottom;
position = "{426, 0}";
},
{
name = top;
position = "{426, 694}";
}
);
layerId = "8A94633D-DA21-409C-A8B7-00A83612E8B2";
paths = (
{
closed = 1;
nodes = (
"340 0 LINE",
"427 353 LINE",
"516 0 LINE",
"640 0 LINE",
"774 700 LINE",
"648 700 LINE",
"573 252 LINE",
"466 700 LINE",
"388 700 LINE",
"281 252 LINE",
"199 700 LINE",
"78 700 LINE",
"212 0 LINE"
);
}
);
width = 813;
}
);
leftKerningGroup = W;
rightKerningGroup = W;
unicode = 0057;
},
{
glyphname = X;
lastChange = "2018-08-13 21:30:08 +0000";
layers = (
{
anchors = (
{
name = bottom;
position = "{332, 0}";
},
{
name = top;
position = "{332, 694}";
}
);
layerId = "BADA37E3-C95E-4946-BA48-1F986F6D85A7";
paths = (
{
closed = 1;
nodes = (
"147 0 LINE",
"332 294 LINE",
"516 0 LINE",
"585 0 LINE",
"366 352 LINE",
"569 700 LINE",
"506 700 LINE",
"332 406 LINE",
"160 700 LINE",
"97 700 LINE",
"299 352 LINE",
"78 0 LINE"
);
}
);
width = 628;
},
{
anchors = (
{
name = bottom;
position = "{289, 0}";
},
{
name = top;
position = "{289, 694}";
}
);
layerId = "77B00D75-0619-4FB7-8D17-EB9FCD2DF18B";
paths = (
{
closed = 1;
nodes = (
"60 0 LINE",
"289 346 LINE",
"520 0 LINE",
"542 3 LINE",
"302 364 LINE",
"526 700 LINE",
"502 700 LINE",
"289 382 LINE",
"76 700 LINE",
"54 700 LINE",
"278 364 LINE",
"35 0 LINE"
);
}
);
width = 581;
},
{
anchors = (
{
name = bottom;
position = "{365, 0}";
},
{
name = top;
position = "{365, 694}";
}
);
layerId = "8A94633D-DA21-409C-A8B7-00A83612E8B2";
paths = (
{
closed = 1;
nodes = (
"215 0 LINE",
"362 244 LINE",
"514 0 LINE",
"655 0 LINE",
"433 359 LINE",
"638 700 LINE",
"507 700 LINE",
"367 468 LINE",
"220 700 LINE",
"90 700 LINE",
"296 350 LINE",
"78 0 LINE"
);
}
);
width = 694;
}
);
leftKerningGroup = X;
rightKerningGroup = X;
unicode = 0058;
},
{
glyphname = Y;
lastChange = "2018-08-14 21:30:23 +0000";
layers = (
{
anchors = (
{
name = bottom;
position = "{447, 0}";
},
{
name = top;
position = "{280, 694}";
},
{
name = topleft;
position = "{38, 700}";
}
);
layerId = "BADA37E3-C95E-4946-BA48-1F986F6D85A7";
paths = (
{
closed = 1;
nodes = (
"465.667 2.333 OFFCURVE",
"504 58.667 OFFCURVE",
"504 156 CURVE SMOOTH",
"504 700 LINE",
"447 700 LINE",
"447 400 LINE",
"432.333 333.333 OFFCURVE",
"370.667 300 OFFCURVE",
"280 300 CURVE SMOOTH",
"189.333 300 OFFCURVE",
"116 349.667 OFFCURVE",
"116 443 CURVE SMOOTH",
"116 700 LINE",
"60 700 LINE",
"60 453 LINE SMOOTH",
"60 315.667 OFFCURVE",
"147.667 245 OFFCURVE",
"289 245 CURVE SMOOTH",
"343.667 245 OFFCURVE",
"411 264 OFFCURVE",
"447 304 CURVE",
"447 152 LINE SMOOTH",
"447 86 OFFCURVE",
"426.667 45.333 OFFCURVE",
"386 30 CURVE",
"399 -7 LINE"
);
}
);
width = 560;
},
{
anchors = (
{
name = bottom;
position = "{461, 0}";
},
{
name = top;
position = "{284, 694}";
},
{
name = topleft;
position = "{32, 700}";
}
);
layerId = "77B00D75-0619-4FB7-8D17-EB9FCD2DF18B";
paths = (
{
closed = 1;
nodes = (
"468 11 OFFCURVE",
"503 63 OFFCURVE",
"503 152 CURVE SMOOTH",
"503 700 LINE",
"484 700 LINE",
"484 405 LINE",
"472 325 OFFCURVE",
"395.667 264 OFFCURVE",
"289 264 CURVE SMOOTH",
"147.667 264 OFFCURVE",
"79 334 OFFCURVE",
"79 458 CURVE SMOOTH",
"79 700 LINE",
"60 700 LINE",
"60 453 LINE SMOOTH",
"60 315.667 OFFCURVE",
"147.667 245 OFFCURVE",
"289 245 CURVE SMOOTH",
"357 245 OFFCURVE",
"444 271 OFFCURVE",
"484 348 CURVE",
"484 152 LINE SMOOTH",
"484 74 OFFCURVE",
"455 24 OFFCURVE",
"393 11 CURVE",
"399 -7 LINE"
);
}
);
width = 548;
},
{
anchors = (
{
name = bottom;
position = "{400, 0}";
},
{
name = top;
position = "{274, 694}";
},
{
name = topleft;
position = "{50, 694}";
}
);
layerId = "8A94633D-DA21-409C-A8B7-00A83612E8B2";
paths = (
{
closed = 1;
nodes = (
"451.333 -8.333 OFFCURVE",
"492 50.667 OFFCURVE",
"492 156 CURVE SMOOTH",
"492 700 LINE",
"382 700 LINE",
"382 343 LINE",
"363 319 OFFCURVE",
"328 303 OFFCURVE",
"277 303 CURVE SMOOTH",
"197.667 303 OFFCURVE",
"158 343 OFFCURVE",
"158 423 CURVE SMOOTH",
"158 700 LINE",
"48 700 LINE",
"48 413 LINE SMOOTH",
"48 279.667 OFFCURVE",
"139.667 195 OFFCURVE",
"275 195 CURVE SMOOTH",
"318 195 OFFCURVE",
"349 204 OFFCURVE",
"382 224 CURVE",
"382 164 LINE SMOOTH",
"382 93.333 OFFCURVE",
"351 70.333 OFFCURVE",
"307 65 CURVE",
"342 -19 LINE"
);
}
);
width = 548;
}
);
leftKerningGroup = Y;
rightKerningGroup = Y;
unicode = 0059;
},
{
glyphname = Z;
lastChange = "2018-08-13 21:30:08 +0000";
layers = (
{
anchors = (
{
name = bottom;
position = "{275, 0}";
},
{
name = top;
position = "{275, 694}";
}
);
layerId = "BADA37E3-C95E-4946-BA48-1F986F6D85A7";
paths = (
{
closed = 1;
nodes = (
"518 0 LINE",
"518 51 LINE",
"102 51 LINE",
"512 650 LINE",
"512 700 LINE",
"44 700 LINE",
"44 649 LINE",
"441 649 LINE",
"31 50 LINE",
"31 0 LINE"
);
}
);
width = 550;
},
{
anchors = (
{
name = bottom;
position = "{275, 0}";
},
{
name = top;
position = "{275, 694}";
}
);
layerId = "77B00D75-0619-4FB7-8D17-EB9FCD2DF18B";
paths = (
{
closed = 1;
nodes = (
"518 0 LINE",
"518 19 LINE",
"55 19 LINE",
"512 681 LINE",
"512 700 LINE",
"44 700 LINE",
"45 681 LINE",
"488 681 LINE",
"31 19 LINE",
"31 0 LINE"
);
}
);
width = 550;
},
{
anchors = (
{
name = bottom;
position = "{275, 0}";
},
{
name = top;
position = "{275, 694}";
}
);
layerId = "8A94633D-DA21-409C-A8B7-00A83612E8B2";
paths = (
{
closed = 1;
nodes = (
"518 0 LINE",
"518 104 LINE",
"168 104 LINE",
"512 590 LINE",
"512 700 LINE",
"44 700 LINE",
"44 590 LINE",
"373 590 LINE",
"31 101 LINE",
"31 0 LINE"
);
}
);
width = 550;
}
);
leftKerningGroup = Z;
rightKerningGroup = Z;
unicode = 005A;
},
{
glyphname = Y.ss01;
lastChange = "2018-08-14 21:31:31 +0000";
layers = (
{
anchors = (
{
name = bottom;
position = "{238, 0}";
},
{
name = top;
position = "{238, 694}";
},
{
name = topleft;
position = "{-18, 700}";
}
);
layerId = "BADA37E3-C95E-4946-BA48-1F986F6D85A7";
paths = (
{
closed = 1;
nodes = (
"266 0 LINE",
"266 342 LINE",
"474 700 LINE",
"411 700 LINE",
"237 406 LINE",
"65 700 LINE",
"2 700 LINE",
"210 340 LINE",
"210 0 LINE"
);
}
);
width = 507;
},
{
anchors = (
{
name = bottom;
position = "{284, 0}";
},
{
name = top;
position = "{284, 694}";
},
{
name = topleft;
position = "{20, 694}";
}
);
layerId = "77B00D75-0619-4FB7-8D17-EB9FCD2DF18B";
paths = (
{
closed = 1;
nodes = (
"293 0 LINE",
"293 342 LINE",
"521 700 LINE",
"498 700 LINE",
"284 362 LINE",
"72 700 LINE",
"49 700 LINE",
"275 342 LINE",
"275 0 LINE"
);
}
);
width = 560;
},
{
anchors = (
{
name = bottom;
position = "{235, 0}";
},
{
name = top;
position = "{235, 694}";
},
{
name = topleft;
position = "{-3, 694}";
}
);
layerId = "8A94633D-DA21-409C-A8B7-00A83612E8B2";
paths = (
{
closed = 1;
nodes = (
"290 0 LINE",
"290 315 LINE",
"471 700 LINE",
"354 700 LINE",
"234 433 LINE",
"115 700 LINE",
"-1 700 LINE",
"179 315 LINE",
"179 0 LINE"
);
}
);
width = 510;
}
);
},
{
glyphname = a;
lastChange = "2018-08-13 18:14:06 +0000";
layers = (
{
anchors = (
{
name = bottom;
position = "{242, 0}";
},
{
name = ogonek;
position = "{422, 0}";
},
{
name = top;
position = "{233, 501}";
}
);
layerId = "BADA37E3-C95E-4946-BA48-1F986F6D85A7";
paths = (
{
closed = 1;
nodes = (
"295 -10 OFFCURVE",
"351 -7 OFFCURVE",
"422 0 CURVE",
"422 298 LINE SMOOTH",
"422 453 OFFCURVE",
"377 509 OFFCURVE",
"214 509 CURVE",
"211 466 LINE",
"332.333 466 OFFCURVE",
"366 421 OFFCURVE",
"366 350 CURVE",
"299 385 OFFCURVE",
"237 402 OFFCURVE",
"184 402 CURVE SMOOTH",
"92 402 OFFCURVE",
"37 347 OFFCURVE",
"37 252 CURVE SMOOTH",
"37 169 LINE SMOOTH",
"37 49.667 OFFCURVE",
"103 -10 OFFCURVE",
"259 -10 CURVE SMOOTH"
);
},
{
closed = 1;
nodes = (
"152 39 OFFCURVE",
"92 72 OFFCURVE",
"92 162 CURVE SMOOTH",
"92 249 LINE SMOOTH",
"92 322.333 OFFCURVE",
"134 351 OFFCURVE",
"188 351 CURVE SMOOTH",
"233 351 OFFCURVE",
"310 330 OFFCURVE",
"366 303 CURVE",
"366 46 LINE",
"329 41 OFFCURVE",
"293 39 OFFCURVE",
"262 39 CURVE SMOOTH"
);
}
);
width = 458;
},
{
anchors = (
{
name = bottom;
position = "{233, 0}";
},
{
name = ogonek;
position = "{422, 0}";
},
{
name = top;
position = "{232, 501}";
}
);
layerId = "77B00D75-0619-4FB7-8D17-EB9FCD2DF18B";
paths = (
{
closed = 1;
nodes = (
"298 -10 OFFCURVE",
"354 -7 OFFCURVE",
"422 0 CURVE",
"422 337 LINE SMOOTH",
"422 453 OFFCURVE",
"363 509 OFFCURVE",
"214 509 CURVE",
"212 491 LINE",
"327 491 OFFCURVE",
"403 456 OFFCURVE",
"403 343 CURVE",
"345 383 OFFCURVE",
"274 402 OFFCURVE",
"205 402 CURVE SMOOTH",
"96 402 OFFCURVE",
"37 351 OFFCURVE",
"37 252 CURVE SMOOTH",
"37 169 LINE SMOOTH",
"37 49.667 OFFCURVE",
"109 -10 OFFCURVE",
"260 -10 CURVE SMOOTH"
);
},
{
closed = 1;
nodes = (
"145 7 OFFCURVE",
"56 45 OFFCURVE",
"56 168 CURVE SMOOTH",
"56 249 LINE SMOOTH",
"56 333 OFFCURVE",
"101 384 OFFCURVE",
"203 384 CURVE SMOOTH",
"267 384 OFFCURVE",
"347 363 OFFCURVE",
"403 323 CURVE",
"403 16 LINE",
"348 10 OFFCURVE",
"298 7 OFFCURVE",
"260 7 CURVE SMOOTH"
);
}
);
width = 458;
},
{
anchors = (
{
name = bottom;
position = "{239, 0}";
},
{
name = ogonek;
position = "{422, 0}";
},
{
name = top;
position = "{230, 501}";
}
);
layerId = "8A94633D-DA21-409C-A8B7-00A83612E8B2";
paths = (
{
closed = 1;
nodes = (
"295 -10 OFFCURVE",
"351 -7 OFFCURVE",
"422 0 CURVE",
"422 298 LINE SMOOTH",
"422 452 OFFCURVE",
"377 509 OFFCURVE",
"214 509 CURVE",
"205 433 LINE",
"276.333 433 OFFCURVE",
"312 410 OFFCURVE",
"312 364 CURVE",
"275 388 OFFCURVE",
"223 401 OFFCURVE",
"181 401 CURVE SMOOTH",
"90 401 OFFCURVE",
"37 347 OFFCURVE",
"37 252 CURVE SMOOTH",
"37 155 LINE SMOOTH",
"37 41 OFFCURVE",
"111 -10 OFFCURVE",
"258 -10 CURVE SMOOTH"
);
},
{
closed = 1;
nodes = (
"183.333 91 OFFCURVE",
"148 121.667 OFFCURVE",
"148 183 CURVE SMOOTH",
"148 238 LINE SMOOTH",
"148 271 OFFCURVE",
"168 288 OFFCURVE",
"200 288 CURVE SMOOTH",
"232 288 OFFCURVE",
"284 271 OFFCURVE",
"312 252 CURVE",
"312 97 LINE",
"290.667 93 OFFCURVE",
"271.333 91 OFFCURVE",
"254 91 CURVE SMOOTH"
);
}
);
width = 458;
}
);
leftKerningGroup = a;
rightKerningGroup = n;
unicode = 0061;
},
{
glyphname = aring;
lastChange = "2018-08-14 14:20:54 +0000";
layers = (
{
anchors = (
{
name = _top;
position = "{192, 501}";
},
{
name = bottom;
position = "{201, 0}";
},
{
name = ogonek;
position = "{381, 0}";
},
{
name = top;
position = "{192, 501}";
}
);
background = {
paths = (
{
closed = 1;
nodes = (
"297 -10 OFFCURVE",
"353 -7 OFFCURVE",
"422 0 CURVE",
"422 298 LINE SMOOTH",
"422 330 OFFCURVE",
"421 357 OFFCURVE",
"418 379 CURVE SMOOTH",
"414 412 OFFCURVE",
"403 428 OFFCURVE",
"386 452 CURVE SMOOTH",
"370 474 OFFCURVE",
"341 490 OFFCURVE",
"300 500 CURVE",
"344 544 OFFCURVE",
"344 615 OFFCURVE",
"300 659 CURVE SMOOTH",
"278 681 OFFCURVE",
"251 692 OFFCURVE",
"220 692 CURVE SMOOTH",
"157 692 OFFCURVE",
"107 641 OFFCURVE",
"107 581 CURVE",
"118 637 OFFCURVE",
"107 611 OFFCURVE",
"107 581 CURVE SMOOTH",
"107 550 OFFCURVE",
"142 512 OFFCURVE",
"211 466 CURVE",
"220 466 LINE SMOOTH",
"335 463 OFFCURVE",
"366 417 OFFCURVE",
"366 346 CURVE",
"319 383 OFFCURVE",
"256 402 OFFCURVE",
"177 402 CURVE SMOOTH",
"154 402 OFFCURVE",
"130 396 OFFCURVE",
"106 385 CURVE SMOOTH",
"60 362 OFFCURVE",
"37 318 OFFCURVE",
"37 252 CURVE SMOOTH",
"37 169 LINE SMOOTH",
"37 50 OFFCURVE",
"110 -10 OFFCURVE",
"256 -10 CURVE SMOOTH"
);
},
{
closed = 1;
nodes = (
"224 39 OFFCURVE",
"192 44 OFFCURVE",
"164 54 CURVE SMOOTH",
"116 71 OFFCURVE",
"92 107 OFFCURVE",
"92 162 CURVE SMOOTH",
"92 249 LINE SMOOTH",
"92 322 OFFCURVE",
"133 351 OFFCURVE",
"184 351 CURVE SMOOTH",
"188 351 OFFCURVE",
"192 351 OFFCURVE",
"197 350 CURVE",
"254 345 OFFCURVE",
"311 330 OFFCURVE",
"366 303 CURVE",
"366 46 LINE",
"330 41 OFFCURVE",
"294 39 OFFCURVE",
"259 39 CURVE SMOOTH"
);
},
{
closed = 1;
nodes = (
"205 467 OFFCURVE",
"108 564 OFFCURVE",
"172 628 CURVE SMOOTH",
"235 691 OFFCURVE",
"333 595 OFFCURVE",
"268 530 CURVE SMOOTH"
);
}
);
};
layerId = "BADA37E3-C95E-4946-BA48-1F986F6D85A7";
paths = (
{
closed = 1;
nodes = (
"295 -10 OFFCURVE",
"351 -7 OFFCURVE",
"422 0 CURVE",
"422 312 LINE SMOOTH",
"422 462 OFFCURVE",
"377 516 OFFCURVE",
"214 516 CURVE",
"231 476 LINE",
"333 476 OFFCURVE",
"366 427 OFFCURVE",
"366 350 CURVE",
"299 385 OFFCURVE",
"237 402 OFFCURVE",
"184 402 CURVE SMOOTH",
"92 402 OFFCURVE",
"37 347 OFFCURVE",
"37 252 CURVE SMOOTH",
"37 169 LINE SMOOTH",
"37 50 OFFCURVE",
"103 -10 OFFCURVE",
"259 -10 CURVE SMOOTH"
);
},
{
closed = 1;
nodes = (
"152 39 OFFCURVE",
"92 72 OFFCURVE",
"92 162 CURVE SMOOTH",
"92 249 LINE SMOOTH",
"92 322 OFFCURVE",
"134 351 OFFCURVE",
"188 351 CURVE SMOOTH",
"233 351 OFFCURVE",
"310 330 OFFCURVE",
"366 303 CURVE",
"366 46 LINE",
"329 41 OFFCURVE",
"293 39 OFFCURVE",
"262 39 CURVE SMOOTH"
);
},
{
closed = 1;
nodes = (
"244 476 OFFCURVE",
"256 483 OFFCURVE",
"266 495 CURVE",
"307 508 OFFCURVE",
"335 544 OFFCURVE",
"335 588 CURVE SMOOTH",
"335 649 OFFCURVE",
"283 700 OFFCURVE",
"221 700 CURVE SMOOTH",
"159 700 OFFCURVE",
"107 649 OFFCURVE",
"107 588 CURVE SMOOTH",
"107 524 OFFCURVE",
"154 476 OFFCURVE",
"231 476 CURVE SMOOTH"
);
},
{
closed = 1;
nodes = (
"183 519 OFFCURVE",
"152 548 OFFCURVE",
"152 588 CURVE SMOOTH",
"152 628 OFFCURVE",
"183 657 OFFCURVE",
"221 657 CURVE SMOOTH",
"259 657 OFFCURVE",
"290 628 OFFCURVE",
"290 588 CURVE SMOOTH",
"290 548 OFFCURVE",
"259 519 OFFCURVE",
"221 519 CURVE SMOOTH"
);
}
);
width = 458;
},
{
anchors = (
{
name = _top;
position = "{232, 501}";
},
{
name = bottom;
position = "{233, 0}";
},
{
name = ogonek;
position = "{422, 0}";
},
{
name = top;
position = "{232, 501}";
}
);
background = {
paths = (
{
closed = 1;
nodes = (
"297 -10 OFFCURVE",
"353 -7 OFFCURVE",
"422 0 CURVE",
"422 298 LINE SMOOTH",
"422 345 OFFCURVE",
"423 360 OFFCURVE",
"413 401 CURVE SMOOTH",
"408 421 OFFCURVE",
"400 437 OFFCURVE",
"391 449 CURVE SMOOTH",
"381 460 OFFCURVE",
"343 479 OFFCURVE",
"276 505 CURVE",
"314 526 OFFCURVE",
"333 559 OFFCURVE",
"333 603 CURVE SMOOTH",
"333 666 OFFCURVE",
"283 716 OFFCURVE",
"220 716 CURVE SMOOTH",
"189 716 OFFCURVE",
"162 705 OFFCURVE",
"140 683 CURVE SMOOTH",
"97 640 OFFCURVE",
"97 570 OFFCURVE",
"138 527 CURVE SMOOTH",
"158 505 OFFCURVE",
"183 493 OFFCURVE",
"212 490 CURVE",
"220 490 LINE SMOOTH",
"292 490 OFFCURVE",
"341 475 OFFCURVE",
"368 444 CURVE SMOOTH",
"391 417 OFFCURVE",
"403 384 OFFCURVE",
"403 346 CURVE",
"345 383 OFFCURVE",
"277 402 OFFCURVE",
"200 402 CURVE SMOOTH",
"165 402 OFFCURVE",
"135 396 OFFCURVE",
"110 384 CURVE SMOOTH",
"61 360 OFFCURVE",
"37 316 OFFCURVE",
"37 252 CURVE SMOOTH",
"37 169 LINE SMOOTH",
"37 50 OFFCURVE",
"110 -10 OFFCURVE",
"256 -10 CURVE SMOOTH"
);
},
{
closed = 1;
nodes = (
"257 7 OFFCURVE",
"231 8 OFFCURVE",
"204 11 CURVE SMOOTH",
"177 13 OFFCURVE",
"152 19 OFFCURVE",
"131 30 CURVE SMOOTH",
"110 40 OFFCURVE",
"85 84 OFFCURVE",
"56 162 CURVE",
"56 249 LINE SMOOTH",
"56 324 OFFCURVE",
"97 369 OFFCURVE",
"152 380 CURVE SMOOTH",
"167 383 OFFCURVE",
"183 384 OFFCURVE",
"198 384 CURVE SMOOTH",
"213 384 OFFCURVE",
"227 383 OFFCURVE",
"241 381 CURVE SMOOTH",
"306 373 OFFCURVE",
"360 354 OFFCURVE",
"403 323 CURVE",
"403 18 LINE",
"350 11 OFFCURVE",
"310 7 OFFCURVE",
"284 7 CURVE SMOOTH"
);
},
{
closed = 1;
nodes = (
"70 623 OFFCURVE",
"200 752 OFFCURVE",
"285 668 CURVE SMOOTH",
"369 583 OFFCURVE",
"240 453 OFFCURVE",
"155 538 CURVE SMOOTH"
);
}
);
};
layerId = "77B00D75-0619-4FB7-8D17-EB9FCD2DF18B";
paths = (
{
closed = 1;
nodes = (
"298 -10 OFFCURVE",
"354 -7 OFFCURVE",
"422 0 CURVE",
"422 337 LINE SMOOTH",
"422 452 OFFCURVE",
"369 508 OFFCURVE",
"234 508 CURVE",
"237 490 LINE",
"335 490 OFFCURVE",
"403 455 OFFCURVE",
"403 343 CURVE",
"345 383 OFFCURVE",
"274 402 OFFCURVE",
"205 402 CURVE SMOOTH",
"96 402 OFFCURVE",
"37 351 OFFCURVE",
"37 252 CURVE SMOOTH",
"37 169 LINE SMOOTH",
"37 50 OFFCURVE",
"109 -10 OFFCURVE",
"260 -10 CURVE SMOOTH"
);
},
{
closed = 1;
nodes = (
"145 7 OFFCURVE",
"56 45 OFFCURVE",
"56 168 CURVE SMOOTH",
"56 249 LINE SMOOTH",
"56 333 OFFCURVE",
"101 384 OFFCURVE",
"203 384 CURVE SMOOTH",
"267 384 OFFCURVE",
"347 363 OFFCURVE",
"403 323 CURVE",
"403 16 LINE",
"348 10 OFFCURVE",
"298 7 OFFCURVE",
"260 7 CURVE SMOOTH"
);
},
{
closed = 1;
nodes = (
"248 490 OFFCURVE",
"259 493 OFFCURVE",
"269 500 CURVE",
"309 513 OFFCURVE",
"338 551 OFFCURVE",
"338 596 CURVE SMOOTH",
"338 653 OFFCURVE",
"291 701 OFFCURVE",
"232 701 CURVE SMOOTH",
"172 701 OFFCURVE",
"126 653 OFFCURVE",
"126 596 CURVE SMOOTH",
"126 538 OFFCURVE",
"172 490 OFFCURVE",
"237 490 CURVE SMOOTH"
);
},
{
closed = 1;
nodes = (
"184 511 OFFCURVE",
"147 549 OFFCURVE",
"147 596 CURVE SMOOTH",
"147 643 OFFCURVE",
"184 680 OFFCURVE",
"232 680 CURVE SMOOTH",
"279 680 OFFCURVE",
"316 643 OFFCURVE",
"316 596 CURVE SMOOTH",
"316 549 OFFCURVE",
"279 511 OFFCURVE",
"232 511 CURVE SMOOTH"
);
}
);
width = 458;
},
{
anchors = (
{
name = _top;
position = "{220, 454}";
},
{
name = bottom;
position = "{239, 0}";
},
{
name = ogonek;
position = "{422, 0}";
},
{
name = top;
position = "{230, 501}";
}
);
associatedMasterId = "8A94633D-DA21-409C-A8B7-00A83612E8B2";
background = {
paths = (
{
closed = 1;
nodes = (
"297 -10 OFFCURVE",
"353 -7 OFFCURVE",
"422 0 CURVE",
"422 298 LINE SMOOTH",
"422 387 OFFCURVE",
"417 464 OFFCURVE",
"317 496 CURVE",
"324 511 OFFCURVE",
"327 525 OFFCURVE",
"327 540 CURVE SMOOTH",
"327 680 OFFCURVE",
"113 681 OFFCURVE",
"113 540 CURVE SMOOTH",
"113 487 OFFCURVE",
"153 441 OFFCURVE",
"205 434 CURVE",
"205 433 LINE",
"276 433 OFFCURVE",
"312 412 OFFCURVE",
"312 369 CURVE",
"284 385 OFFCURVE",
"242 397 OFFCURVE",
"183 400 CURVE",
"180 401 OFFCURVE",
"176 401 OFFCURVE",
"172 401 CURVE SMOOTH",
"147 401 OFFCURVE",
"125 396 OFFCURVE",
"106 385 CURVE",
"60 362 OFFCURVE",
"37 318 OFFCURVE",
"37 252 CURVE SMOOTH",
"37 169 LINE SMOOTH",
"37 164 OFFCURVE",
"37 160 OFFCURVE",
"37 155 CURVE",
"42 58 OFFCURVE",
"100 4 OFFCURVE",
"209 -8 CURVE SMOOTH",
"222 -9 OFFCURVE",
"237 -10 OFFCURVE",
"256 -10 CURVE SMOOTH"
);
},
{
closed = 1;
nodes = (
"183 91 OFFCURVE",
"148 122 OFFCURVE",
"148 183 CURVE SMOOTH",
"148 238 LINE SMOOTH",
"148 258 OFFCURVE",
"155 272 OFFCURVE",
"168 280 CURVE SMOOTH",
"177 285 OFFCURVE",
"188 288 OFFCURVE",
"200 288 CURVE SMOOTH",
"205 288 OFFCURVE",
"211 288 OFFCURVE",
"217 287 CURVE",
"254 280 OFFCURVE",
"291 267 OFFCURVE",
"312 252 CURVE",
"312 97 LINE",
"291 93 OFFCURVE",
"271 91 OFFCURVE",
"254 91 CURVE SMOOTH"
);
},
{
closed = 1;
nodes = (
"172 547 OFFCURVE",
"214 588 OFFCURVE",
"241 561 CURVE SMOOTH",
"268 534 OFFCURVE",
"227 492 OFFCURVE",
"198 518 CURVE"
);
}
);
};
layerId = "AD2B17F6-1DF5-47C5-BB86-089BCBD8FD05";
name = "Aug 14 18, 10:20";
paths = (
{
closed = 1;
nodes = (
"295 -10 OFFCURVE",
"351 -7 OFFCURVE",
"422 0 CURVE",
"422 328 LINE SMOOTH",
"422 481 OFFCURVE",
"377 537 OFFCURVE",
"214 537 CURVE",
"225 463 LINE",
"282 463 OFFCURVE",
"312 430 OFFCURVE",
"312 364 CURVE",
"275 388 OFFCURVE",
"223 401 OFFCURVE",
"181 401 CURVE SMOOTH",
"90 401 OFFCURVE",
"37 347 OFFCURVE",
"37 252 CURVE SMOOTH",
"37 155 LINE SMOOTH",
"37 41 OFFCURVE",
"111 -10 OFFCURVE",
"258 -10 CURVE SMOOTH"
);
},
{
closed = 1;
nodes = (
"183 91 OFFCURVE",
"148 122 OFFCURVE",
"148 183 CURVE SMOOTH",
"148 238 LINE SMOOTH",
"148 271 OFFCURVE",
"168 288 OFFCURVE",
"200 288 CURVE SMOOTH",
"232 288 OFFCURVE",
"284 271 OFFCURVE",
"312 252 CURVE",
"312 97 LINE",
"291 93 OFFCURVE",
"271 91 OFFCURVE",
"254 91 CURVE SMOOTH"
);
},
{
closed = 1;
nodes = (
"240 463 OFFCURVE",
"255 471 OFFCURVE",
"266 485 CURVE",
"310 503 OFFCURVE",
"338 535 OFFCURVE",
"338 578 CURVE SMOOTH",
"338 642 OFFCURVE",
"287 692 OFFCURVE",
"218 692 CURVE SMOOTH",
"155 692 OFFCURVE",
"102 641 OFFCURVE",
"102 580 CURVE SMOOTH",
"102 516 OFFCURVE",
"149 463 OFFCURVE",
"225 463 CURVE SMOOTH"
);
},
{
closed = 1;
nodes = (
"197 539 OFFCURVE",
"180 555 OFFCURVE",
"180 578 CURVE SMOOTH",
"180 600 OFFCURVE",
"197 619 OFFCURVE",
"220 619 CURVE SMOOTH",
"243 619 OFFCURVE",
"260 600 OFFCURVE",
"260 578 CURVE SMOOTH",
"260 555 OFFCURVE",
"243 539 OFFCURVE",
"220 539 CURVE SMOOTH"
);
}
);
width = 458;
},
{
anchors = (
{
name = _top;
position = "{220, 454}";
},
{
name = bottom;
position = "{239, 0}";
},
{
name = ogonek;
position = "{422, 0}";
},
{
name = top;
position = "{230, 501}";
}
);
background = {
paths = (
{
closed = 1;
nodes = (
"297 -10 OFFCURVE",
"353 -7 OFFCURVE",
"422 0 CURVE",
"422 298 LINE SMOOTH",
"422 387 OFFCURVE",
"417 464 OFFCURVE",
"317 496 CURVE",
"324 511 OFFCURVE",
"327 525 OFFCURVE",
"327 540 CURVE SMOOTH",
"327 680 OFFCURVE",
"113 681 OFFCURVE",
"113 540 CURVE SMOOTH",
"113 487 OFFCURVE",
"153 441 OFFCURVE",
"205 434 CURVE",
"205 433 LINE",
"276 433 OFFCURVE",
"312 412 OFFCURVE",
"312 369 CURVE",
"284 385 OFFCURVE",
"242 397 OFFCURVE",
"183 400 CURVE",
"180 401 OFFCURVE",
"176 401 OFFCURVE",
"172 401 CURVE SMOOTH",
"147 401 OFFCURVE",
"125 396 OFFCURVE",
"106 385 CURVE",
"60 362 OFFCURVE",
"37 318 OFFCURVE",
"37 252 CURVE SMOOTH",
"37 169 LINE SMOOTH",
"37 164 OFFCURVE",
"37 160 OFFCURVE",
"37 155 CURVE",
"42 58 OFFCURVE",
"100 4 OFFCURVE",
"209 -8 CURVE SMOOTH",
"222 -9 OFFCURVE",
"237 -10 OFFCURVE",
"256 -10 CURVE SMOOTH"
);
},
{
closed = 1;
nodes = (
"183 91 OFFCURVE",
"148 122 OFFCURVE",
"148 183 CURVE SMOOTH",
"148 238 LINE SMOOTH",
"148 258 OFFCURVE",
"155 272 OFFCURVE",
"168 280 CURVE SMOOTH",
"177 285 OFFCURVE",
"188 288 OFFCURVE",
"200 288 CURVE SMOOTH",
"205 288 OFFCURVE",
"211 288 OFFCURVE",
"217 287 CURVE",
"254 280 OFFCURVE",
"291 267 OFFCURVE",
"312 252 CURVE",
"312 97 LINE",
"291 93 OFFCURVE",
"271 91 OFFCURVE",
"254 91 CURVE SMOOTH"
);
},
{
closed = 1;
nodes = (
"172 547 OFFCURVE",
"214 588 OFFCURVE",
"241 561 CURVE SMOOTH",
"268 534 OFFCURVE",
"227 492 OFFCURVE",
"198 518 CURVE"
);
}
);
};
layerId = "8A94633D-DA21-409C-A8B7-00A83612E8B2";
paths = (
{
closed = 1;
nodes = (
"295 -10 OFFCURVE",
"351 -7 OFFCURVE",
"422 0 CURVE",
"422 298 LINE SMOOTH",
"422 453 OFFCURVE",
"377 510 OFFCURVE",
"214 510 CURVE",
"225 436 LINE",
"282 436 OFFCURVE",
"312 412 OFFCURVE",
"312 364 CURVE",
"275 388 OFFCURVE",
"223 401 OFFCURVE",
"181 401 CURVE SMOOTH",
"90 401 OFFCURVE",
"37 347 OFFCURVE",
"37 252 CURVE SMOOTH",
"37 155 LINE SMOOTH",
"37 41 OFFCURVE",
"111 -10 OFFCURVE",
"258 -10 CURVE SMOOTH"
);
},
{
closed = 1;
nodes = (
"183 91 OFFCURVE",
"148 122 OFFCURVE",
"148 183 CURVE SMOOTH",
"148 238 LINE SMOOTH",
"148 271 OFFCURVE",
"168 288 OFFCURVE",
"200 288 CURVE SMOOTH",
"232 288 OFFCURVE",
"284 271 OFFCURVE",
"312 252 CURVE",
"312 97 LINE",
"291 93 OFFCURVE",
"271 91 OFFCURVE",
"254 91 CURVE SMOOTH"
);
},
{
closed = 1;
nodes = (
"240 436 OFFCURVE",
"255 444 OFFCURVE",
"266 458 CURVE",
"304 474 OFFCURVE",
"328 503 OFFCURVE",
"328 541 CURVE SMOOTH",
"328 599 OFFCURVE",
"281 645 OFFCURVE",
"218 645 CURVE SMOOTH",
"160 645 OFFCURVE",
"112 599 OFFCURVE",
"112 543 CURVE SMOOTH",
"112 484 OFFCURVE",
"155 436 OFFCURVE",
"225 436 CURVE SMOOTH"
);
},
{
closed = 1;
nodes = (
"203 512 OFFCURVE",
"190 524 OFFCURVE",
"190 541 CURVE SMOOTH",
"190 558 OFFCURVE",
"203 572 OFFCURVE",
"220 572 CURVE SMOOTH",
"237 572 OFFCURVE",
"250 558 OFFCURVE",
"250 541 CURVE SMOOTH",
"250 524 OFFCURVE",
"237 512 OFFCURVE",
"220 512 CURVE SMOOTH"
);
}
);
width = 458;
}
);
leftMetricsKey = a;
rightMetricsKey = a;
unicode = 00E5;
},
{
glyphname = b;
lastChange = "2018-08-14 15:32:53 +0000";
layers = (
{
anchors = (
{
name = bottom;
position = "{240, 0}";
},
{
name = top;
position = "{106, 694}";
}
);
layerId = "BADA37E3-C95E-4946-BA48-1F986F6D85A7";
paths = (
{
closed = 1;
nodes = (
"371 -12 OFFCURVE",
"447 39 OFFCURVE",
"447 157 CURVE SMOOTH",
"447 346 LINE SMOOTH",
"447 454 OFFCURVE",
"375 509 OFFCURVE",
"266 509 CURVE SMOOTH",
"210.667 509 OFFCURVE",
"166.667 497.333 OFFCURVE",
"134 474 CURVE",
"134 700 LINE",
"78 700 LINE",
"78 0 LINE",
"135.333 -8 OFFCURVE",
"188.333 -12 OFFCURVE",
"233 -12 CURVE SMOOTH"
);
},
{
closed = 1;
nodes = (
"205 39 OFFCURVE",
"171.333 42 OFFCURVE",
"134 48 CURVE",
"134 425 LINE",
"174.667 447.667 OFFCURVE",
"217.5 459 OFFCURVE",
"262.5 459 CURVE SMOOTH",
"343 459 OFFCURVE",
"392 421 OFFCURVE",
"392 343 CURVE SMOOTH",
"392 156 LINE SMOOTH",
"392 78 OFFCURVE",
"339.667 39 OFFCURVE",
"235 39 CURVE SMOOTH"
);
}
);
width = 480;
},
{
anchors = (
{
name = bottom;
position = "{243, 0}";
},
{
name = top;
position = "{88, 694}";
}
);
layerId = "77B00D75-0619-4FB7-8D17-EB9FCD2DF18B";
paths = (
{
closed = 1;
nodes = (
"361 -12 OFFCURVE",
"447 39 OFFCURVE",
"447 157 CURVE SMOOTH",
"447 346 LINE SMOOTH",
"447 466 OFFCURVE",
"363 509 OFFCURVE",
"251 509 CURVE SMOOTH",
"193 509 OFFCURVE",
"143 498 OFFCURVE",
"97 477 CURVE",
"97 700 LINE",
"78 700 LINE",
"78 0 LINE",
"133 -8 OFFCURVE",
"184 -12 OFFCURVE",
"221 -12 CURVE SMOOTH"
);
},
{
closed = 1;
nodes = (
"180.667 7 OFFCURVE",
"140 10 OFFCURVE",
"97 17 CURVE",
"97 457 LINE",
"142 480 OFFCURVE",
"195 491 OFFCURVE",
"251 491 CURVE SMOOTH",
"364 491 OFFCURVE",
"428 442 OFFCURVE",
"428 343 CURVE SMOOTH",
"428 156 LINE SMOOTH",
"428 56.667 OFFCURVE",
"358.667 7 OFFCURVE",
"220 7 CURVE SMOOTH"
);
}
);
width = 486;
},
{
anchors = (
{
name = bottom;
position = "{243, 0}";
},
{
name = top;
position = "{133, 694}";
}
);
background = {
paths = (
{
closed = 1;
nodes = (
"164 -12 OFFCURVE",
"310 -12 OFFCURVE",
"369 18 QCURVE",
"447 58 OFFCURVE",
"447 157 QCURVE",
"447 346 LINE",
"447 451 OFFCURVE",
"362 490 QCURVE",
"321 509 OFFCURVE",
"268 509 QCURVE",
"231 509 OFFCURVE",
"188 500 QCURVE",
"188 700 LINE",
"78 700 LINE",
"78 0 LINE"
);
},
{
closed = 1;
nodes = (
"205 90 OFFCURVE",
"188 96 QCURVE",
"188 382 LINE",
"198 391 OFFCURVE",
"222 396 QCURVE",
"237 398 OFFCURVE",
"254 398 QCURVE",
"263 398 OFFCURVE",
"272 398 QCURVE",
"298 395 OFFCURVE",
"338 353 OFFCURVE",
"338 315 QCURVE",
"338 155 LINE",
"338 112 OFFCURVE",
"282 98 QCURVE",
"251 90 OFFCURVE",
"226 90 QCURVE"
);
}
);
};
layerId = "8A94633D-DA21-409C-A8B7-00A83612E8B2";
paths = (
{
closed = 1;
nodes = (
"355 -12 OFFCURVE",
"447 39 OFFCURVE",
"447 157 CURVE SMOOTH",
"447 346 LINE SMOOTH",
"447 453 OFFCURVE",
"375 509 OFFCURVE",
"270 509 CURVE SMOOTH",
"242 509 OFFCURVE",
"218 505 OFFCURVE",
"188 494 CURVE",
"188 700 LINE",
"78 700 LINE",
"78 0 LINE",
"135.333 -8 OFFCURVE",
"188.333 -12 OFFCURVE",
"237 -12 CURVE SMOOTH"
);
},
{
closed = 1;
nodes = (
"216 90 OFFCURVE",
"201 92 OFFCURVE",
"188 96 CURVE",
"188 382 LINE",
"212 395 OFFCURVE",
"235 398 OFFCURVE",
"253 398 CURVE SMOOTH",
"309 398 OFFCURVE",
"338 367 OFFCURVE",
"338 315 CURVE SMOOTH",
"338 160 LINE SMOOTH",
"338 109 OFFCURVE",
"282 90 OFFCURVE",
"232 90 CURVE SMOOTH"
);
}
);
width = 486;
}
);
leftKerningGroup = l;
rightKerningGroup = o;
unicode = 0062;
},
{
glyphname = c;
lastChange = "2018-08-13 21:32:14 +0000";
layers = (
{
anchors = (
{
name = bottom;
position = "{212, 0}";
},
{
name = top;
position = "{212, 501}";
}
);
layerId = "BADA37E3-C95E-4946-BA48-1F986F6D85A7";
paths = (
{
closed = 1;
nodes = (
"276.667 -11 OFFCURVE",
"315.333 -5.333 OFFCURVE",
"358 6 CURVE",
"346 51 LINE",
"309.333 42.333 OFFCURVE",
"276 38 OFFCURVE",
"246 38 CURVE SMOOTH",
"143.333 38 OFFCURVE",
"92 81.667 OFFCURVE",
"92 169 CURVE SMOOTH",
"92 314 LINE SMOOTH",
"92 414 OFFCURVE",
"149 460 OFFCURVE",
"230 460 CURVE SMOOTH",
"263 460 OFFCURVE",
"301 452 OFFCURVE",
"340 437 CURVE",
"356 478 LINE",
"310.667 499.333 OFFCURVE",
"266 510 OFFCURVE",
"222 510 CURVE SMOOTH",
"101 510 OFFCURVE",
"36 430 OFFCURVE",
"36 308 CURVE SMOOTH",
"36 180 LINE SMOOTH",
"36 51 OFFCURVE",
"102 -11 OFFCURVE",
"242 -11 CURVE SMOOTH"
);
}
);
width = 383;
},
{
anchors = (
{
name = bottom;
position = "{221, 0}";
},
{
name = top;
position = "{221, 501}";
}
);
layerId = "77B00D75-0619-4FB7-8D17-EB9FCD2DF18B";
paths = (
{
closed = 1;
nodes = (
"276.667 -11 OFFCURVE",
"315.333 -5.333 OFFCURVE",
"358 6 CURVE",
"353 25 LINE",
"312 13 OFFCURVE",
"272 7 OFFCURVE",
"235 7 CURVE SMOOTH",
"131 7 OFFCURVE",
"53 55 OFFCURVE",
"55 169 CURVE SMOOTH",
"55 314 LINE SMOOTH",
"55 418 OFFCURVE",
"113 490 OFFCURVE",
"223 490 CURVE SMOOTH",
"266.333 490 OFFCURVE",
"308.333 479.333 OFFCURVE",
"349 458 CURVE",
"356 478 LINE",
"310.667 499.333 OFFCURVE",
"266 510 OFFCURVE",
"222 510 CURVE SMOOTH",
"101 510 OFFCURVE",
"36 430 OFFCURVE",
"36 308 CURVE SMOOTH",
"36 180 LINE SMOOTH",
"36 51 OFFCURVE",
"102 -11 OFFCURVE",
"242 -11 CURVE SMOOTH"
);
}
);
width = 383;
},
{
anchors = (
{
name = bottom;
position = "{215, 0}";
},
{
name = top;
position = "{203, 501}";
}
);
layerId = "8A94633D-DA21-409C-A8B7-00A83612E8B2";
paths = (
{
closed = 1;
nodes = (
"275.667 -11 OFFCURVE",
"315.333 -5.333 OFFCURVE",
"358 6 CURVE",
"328 114 LINE",
"306 105 OFFCURVE",
"265 100 OFFCURVE",
"236 100 CURVE SMOOTH",
"177 100 OFFCURVE",
"146 122 OFFCURVE",
"146 169 CURVE SMOOTH",
"146 314 LINE SMOOTH",
"146 369 OFFCURVE",
"182 401 OFFCURVE",
"237 401 CURVE SMOOTH",
"261.667 401 OFFCURVE",
"291.333 395 OFFCURVE",
"326 383 CURVE",
"356 478 LINE",
"316 497 OFFCURVE",
"264 510 OFFCURVE",
"222 510 CURVE SMOOTH",
"102 510 OFFCURVE",
"36 431 OFFCURVE",
"36 308 CURVE SMOOTH",
"36 180 LINE SMOOTH",
"36 52 OFFCURVE",
"100 -11 OFFCURVE",
"239 -11 CURVE SMOOTH"
);
}
);
width = 383;
}
);
leftKerningGroup = o;
rightKerningGroup = c;
unicode = 0063;
},
{
glyphname = d;
lastChange = "2018-08-14 21:20:44 +0000";
layers = (
{
anchors = (
{
name = bottom;
position = "{288, 0}";
},
{
name = center;
position = "{390, 590}";
},
{
name = top;
position = "{419, 694}";
},
{
name = topright;
position = "{510, 694}";
}
);
layerId = "BADA37E3-C95E-4946-BA48-1F986F6D85A7";
paths = (
{
closed = 1;
nodes = (
"337 -12 OFFCURVE",
"390 -8 OFFCURVE",
"447 0 CURVE",
"447 700 LINE",
"391 700 LINE",
"391 474 LINE",
"358 497 OFFCURVE",
"314 509 OFFCURVE",
"259 509 CURVE SMOOTH",
"153 509 OFFCURVE",
"78 456 OFFCURVE",
"78 346 CURVE SMOOTH",
"78 157 LINE SMOOTH",
"78 41 OFFCURVE",
"168 -12 OFFCURVE",
"288 -12 CURVE SMOOTH"
);
},
{
closed = 1;
nodes = (
"185.333 39 OFFCURVE",
"133 78 OFFCURVE",
"133 156 CURVE SMOOTH",
"133 343 LINE SMOOTH",
"133 412 OFFCURVE",
"174 459 OFFCURVE",
"258 459 CURVE SMOOTH",
"306 459 OFFCURVE",
"350 448 OFFCURVE",
"391 425 CURVE",
"391 48 LINE",
"353.667 42 OFFCURVE",
"320 39 OFFCURVE",
"290 39 CURVE SMOOTH"
);
}
);
width = 480;
},
{
anchors = (
{
name = bottom;
position = "{267, 0}";
},
{
name = center;
position = "{367, 608}";
},
{
name = top;
position = "{414, 694}";
},
{
name = topright;
position = "{498, 694}";
}
);
layerId = "77B00D75-0619-4FB7-8D17-EB9FCD2DF18B";
paths = (
{
closed = 1;
nodes = (
"319 -12 OFFCURVE",
"369 -8 OFFCURVE",
"423 0 CURVE",
"423 700 LINE",
"404 700 LINE",
"404 477 LINE",
"358 499 OFFCURVE",
"309 510 OFFCURVE",
"249 510 CURVE SMOOTH",
"136 510 OFFCURVE",
"54 463 OFFCURVE",
"54 340 CURVE SMOOTH",
"54 157 LINE SMOOTH",
"54 41 OFFCURVE",
"135 -12 OFFCURVE",
"279 -12 CURVE SMOOTH"
);
},
{
closed = 1;
nodes = (
"142 7 OFFCURVE",
"73 57 OFFCURVE",
"73 156 CURVE SMOOTH",
"73 343 LINE SMOOTH",
"73 440 OFFCURVE",
"134 491 OFFCURVE",
"250 491 CURVE SMOOTH",
"305 491 OFFCURVE",
"359 480 OFFCURVE",
"404 457 CURVE",
"404 18 LINE",
"361 11 OFFCURVE",
"320 7 OFFCURVE",
"281 7 CURVE SMOOTH"
);
}
);
width = 462;
},
{
anchors = (
{
name = bottom;
position = "{243, 0}";
},
{
name = center;
position = "{387, 594}";
},
{
name = top;
position = "{393, 694}";
},
{
name = topright;
position = "{533, 694}";
}
);
layerId = "8A94633D-DA21-409C-A8B7-00A83612E8B2";
paths = (
{
closed = 1;
nodes = (
"336.667 -12 OFFCURVE",
"392 -7 OFFCURVE",
"447 0 CURVE",
"447 700 LINE",
"338 700 LINE",
"338 498 LINE",
"314 505 OFFCURVE",
"291 510 OFFCURVE",
"259 510 CURVE SMOOTH",
"159 510 OFFCURVE",
"78 460 OFFCURVE",
"78 346 CURVE SMOOTH",
"78 157 LINE SMOOTH",
"78 41 OFFCURVE",
"160 -12 OFFCURVE",
"293 -12 CURVE SMOOTH"
);
},
{
closed = 1;
nodes = (
"238 90 OFFCURVE",
"187 111 OFFCURVE",
"187 154 CURVE SMOOTH",
"187 306 LINE SMOOTH",
"187 361 OFFCURVE",
"211 398 OFFCURVE",
"272 398 CURVE SMOOTH",
"295 398 OFFCURVE",
"316 393 OFFCURVE",
"338 382 CURVE",
"338 97 LINE",
"319 92 OFFCURVE",
"301 90 OFFCURVE",
"286 90 CURVE SMOOTH"
);
}
);
width = 486;
}
);
leftKerningGroup = o;
rightKerningGroup = l;
unicode = 0064;
},
{
glyphname = eth;
lastChange = "2018-08-14 18:53:57 +0000";
layers = (
{
layerId = "77B00D75-0619-4FB7-8D17-EB9FCD2DF18B";
paths = (
{
closed = 1;
nodes = (
"363 -10 OFFCURVE",
"423 72 OFFCURVE",
"423 184 CURVE SMOOTH",
"423 433 LINE SMOOTH",
"423 602 OFFCURVE",
"372 663 OFFCURVE",
"216 706 CURVE",
"211 689 LINE",
"359 652 OFFCURVE",
"404 578 OFFCURVE",
"404 442 CURVE SMOOTH",
"404 429 LINE",
"355 486 OFFCURVE",
"309 510 OFFCURVE",
"236 510 CURVE SMOOTH",
"135 510 OFFCURVE",
"54 462 OFFCURVE",
"54 336 CURVE SMOOTH",
"54 184 LINE SMOOTH",
"54 73 OFFCURVE",
"117 -10 OFFCURVE",
"240 -10 CURVE SMOOTH"
);
},
{
closed = 1;
nodes = (
"126 8 OFFCURVE",
"73 87 OFFCURVE",
"73 184 CURVE SMOOTH",
"73 339 LINE SMOOTH",
"73 439 OFFCURVE",
"134 491 OFFCURVE",
"237 491 CURVE SMOOTH",
"305 491 OFFCURVE",
"356 466 OFFCURVE",
"404 404 CURVE",
"404 184 LINE SMOOTH",
"404 84 OFFCURVE",
"352 8 OFFCURVE",
"239 8 CURVE SMOOTH"
);
},
{
closed = 1;
nodes = (
"430 639 LINE",
"424 656 LINE",
"204 576 LINE",
"210 559 LINE"
);
}
);
width = 469;
},
{
layerId = "BADA37E3-C95E-4946-BA48-1F986F6D85A7";
paths = (
{
closed = 1;
nodes = (
"387 -10 OFFCURVE",
"447 72 OFFCURVE",
"447 184 CURVE SMOOTH",
"447 447 LINE SMOOTH",
"447 604 OFFCURVE",
"374 676 OFFCURVE",
"250 707 CURVE",
"237 661 LINE",
"340 632 OFFCURVE",
"391 562 OFFCURVE",
"391 456 CURVE SMOOTH",
"391 451 LINE",
"360 489 OFFCURVE",
"317 509 OFFCURVE",
"255 509 CURVE SMOOTH",
"154 509 OFFCURVE",
"78 455 OFFCURVE",
"78 342 CURVE SMOOTH",
"78 184 LINE SMOOTH",
"78 73 OFFCURVE",
"141 -10 OFFCURVE",
"264 -10 CURVE SMOOTH"
);
},
{
closed = 1;
nodes = (
"198 39 OFFCURVE",
"133 84 OFFCURVE",
"133 174 CURVE SMOOTH",
"133 339 LINE SMOOTH",
"133 410 OFFCURVE",
"175 459 OFFCURVE",
"256 459 CURVE SMOOTH",
"315 459 OFFCURVE",
"358 434 OFFCURVE",
"391 383 CURVE",
"391 174 LINE SMOOTH",
"391 84 OFFCURVE",
"327 39 OFFCURVE",
"263 39 CURVE SMOOTH"
);
},
{
closed = 1;
nodes = (
"468 621 LINE",
"451 666 LINE",
"231 586 LINE",
"248 541 LINE"
);
}
);
width = 501;
},
{
layerId = "8A94633D-DA21-409C-A8B7-00A83612E8B2";
paths = (
{
closed = 1;
nodes = (
"387 -10 OFFCURVE",
"447 72 OFFCURVE",
"447 184 CURVE SMOOTH",
"447 466 LINE SMOOTH",
"447 616 OFFCURVE",
"375 675 OFFCURVE",
"257 717 CURVE",
"230 642 LINE",
"303 615 OFFCURVE",
"338 574 OFFCURVE",
"338 481 CURVE SMOOTH",
"338 476 LINE",
"311 496 OFFCURVE",
"285 510 OFFCURVE",
"239 510 CURVE SMOOTH",
"155 510 OFFCURVE",
"78 460 OFFCURVE",
"78 346 CURVE SMOOTH",
"78 184 LINE SMOOTH",
"78 73 OFFCURVE",
"141 -10 OFFCURVE",
"264 -10 CURVE SMOOTH"
);
},
{
closed = 1;
nodes = (
"213 98 OFFCURVE",
"187 123 OFFCURVE",
"187 174 CURVE SMOOTH",
"187 306 LINE SMOOTH",
"187 361 OFFCURVE",
"208 398 OFFCURVE",
"263 398 CURVE SMOOTH",
"297 398 OFFCURVE",
"322 384 OFFCURVE",
"338 352 CURVE",
"338 174 LINE SMOOTH",
"338 123 OFFCURVE",
"307 98 OFFCURVE",
"264 98 CURVE SMOOTH"
);
},
{
closed = 1;
nodes = (
"459 608 LINE",
"438 666 LINE",
"218 586 LINE",
"239 528 LINE"
);
}
);
width = 498;
}
);
leftMetricsKey = d;
rightMetricsKey = d;
unicode = 00F0;
},
{
glyphname = e;
lastChange = "2018-08-13 21:36:38 +0000";
layers = (
{
anchors = (
{
name = bottom;
position = "{217, 0}";
},
{
name = ogonek;
position = "{269, 0}";
},
{
name = top;
position = "{217, 501}";
}
);
layerId = "BADA37E3-C95E-4946-BA48-1F986F6D85A7";
paths = (
{
closed = 1;
nodes = (
"265 -12 OFFCURVE",
"319 4 OFFCURVE",
"370 35 CURVE",
"348 78 LINE",
"297 51 OFFCURVE",
"248 37 OFFCURVE",
"202 37 CURVE SMOOTH",
"136 37 OFFCURVE",
"91 67 OFFCURVE",
"91 134 CURVE SMOOTH",
"91 195 LINE",
"395 212 LINE",
"395 342 LINE SMOOTH",
"395 447 OFFCURVE",
"330 510 OFFCURVE",
"219 510 CURVE SMOOTH",
"108 510 OFFCURVE",
"35 447 OFFCURVE",
"35 339 CURVE SMOOTH",
"35 134 LINE SMOOTH",
"35 37 OFFCURVE",
"93 -12 OFFCURVE",
"204 -12 CURVE SMOOTH"
);
},
{
closed = 1;
nodes = (
"91 338 LINE SMOOTH",
"91 423 OFFCURVE",
"145 462 OFFCURVE",
"218 462 CURVE SMOOTH",
"294 462 OFFCURVE",
"339 418 OFFCURVE",
"339 349 CURVE SMOOTH",
"339 262 LINE",
"91 250 LINE"
);
}
);
width = 434;
},
{
anchors = (
{
name = bottom;
position = "{217, 0}";
},
{
name = ogonek;
position = "{254, 0}";
},
{
name = top;
position = "{219, 501}";
}
);
layerId = "77B00D75-0619-4FB7-8D17-EB9FCD2DF18B";
paths = (
{
closed = 1;
nodes = (
"265 -12 OFFCURVE",
"318.667 3.667 OFFCURVE",
"370 35 CURVE",
"361 50 LINE",
"304 18 OFFCURVE",
"249.667 4 OFFCURVE",
"202 4 CURVE SMOOTH",
"121 4 OFFCURVE",
"54 44 OFFCURVE",
"54 132 CURVE SMOOTH",
"54 230 LINE",
"395 247 LINE",
"395 342 LINE SMOOTH",
"395 447.333 OFFCURVE",
"329.667 510 OFFCURVE",
"219 510 CURVE SMOOTH",
"108.333 510 OFFCURVE",
"35 447 OFFCURVE",
"35 339 CURVE SMOOTH",
"35 134 LINE SMOOTH",
"35 36.667 OFFCURVE",
"93 -12 OFFCURVE",
"203 -12 CURVE SMOOTH"
);
},
{
closed = 1;
nodes = (
"54 340 LINE SMOOTH",
"54 444 OFFCURVE",
"129 491 OFFCURVE",
"217 491 CURVE SMOOTH",
"305 491 OFFCURVE",
"376 448.333 OFFCURVE",
"376 343 CURVE SMOOTH",
"376 266 LINE",
"54 248 LINE"
);
}
);
width = 434;
},
{
anchors = (
{
name = bottom;
position = "{217, 0}";
},
{
name = ogonek;
position = "{273, 0}";
},
{
name = top;
position = "{217, 501}";
}
);
layerId = "8A94633D-DA21-409C-A8B7-00A83612E8B2";
paths = (
{
closed = 1;
nodes = (
"265.667 -10.667 OFFCURVE",
"320.667 5 OFFCURVE",
"370 35 CURVE",
"330 130 LINE",
"277.333 103.333 OFFCURVE",
"236 90 OFFCURVE",
"206 90 CURVE SMOOTH",
"167 90 OFFCURVE",
"146 110 OFFCURVE",
"146 149 CURVE SMOOTH",
"146 177 LINE",
"395 190 LINE",
"395 342 LINE SMOOTH",
"395 447.333 OFFCURVE",
"329.667 510 OFFCURVE",
"219 510 CURVE SMOOTH",
"108.333 510 OFFCURVE",
"35 447 OFFCURVE",
"35 339 CURVE SMOOTH",
"35 134 LINE SMOOTH",
"35 32 OFFCURVE",
"99 -12 OFFCURVE",
"205 -12 CURVE SMOOTH"
);
},
{
closed = 1;
nodes = (
"146 338 LINE SMOOTH",
"146 370 OFFCURVE",
"168 402 OFFCURVE",
"217 402 CURVE SMOOTH",
"255.333 402 OFFCURVE",
"284 380 OFFCURVE",
"284 340 CURVE SMOOTH",
"284 287 LINE",
"146 278 LINE"
);
}
);
width = 434;
}
);
leftKerningGroup = o;
rightKerningGroup = e;
unicode = 0065;
},
{
glyphname = f;
lastChange = "2018-08-14 19:46:59 +0000";
layers = (
{
anchors = (
{
name = bottom;
position = "{106, 0}";
},
{
name = top;
position = "{167, 694}";
}
);
background = {
paths = (
{
closed = 1;
nodes = (
"134 0 LINE",
"134 448 LINE",
"224 448 LINE",
"248 501 LINE",
"134 501 LINE",
"134 549 LINE SMOOTH",
"134 623 OFFCURVE",
"165 660 OFFCURVE",
"227 660 CURVE SMOOTH",
"235 660 OFFCURVE",
"243.333 659.333 OFFCURVE",
"252 658 CURVE",
"261 707 LINE",
"249.667 709.667 OFFCURVE",
"238 711 OFFCURVE",
"226 711 CURVE SMOOTH",
"196 711 OFFCURVE",
"166.667 702.667 OFFCURVE",
"138 686 CURVE SMOOTH",
"103.333 666 OFFCURVE",
"78 615.667 OFFCURVE",
"78 549 CURVE SMOOTH",
"78 0 LINE"
);
}
);
};
layerId = "BADA37E3-C95E-4946-BA48-1F986F6D85A7";
paths = (
{
closed = 1;
nodes = (
"134 0 LINE",
"134 448 LINE",
"224 448 LINE",
"248 501 LINE",
"134 501 LINE",
"134 549 LINE SMOOTH",
"134 623 OFFCURVE",
"165 660 OFFCURVE",
"227 660 CURVE SMOOTH",
"235 660 OFFCURVE",
"243.333 659.333 OFFCURVE",
"252 658 CURVE",
"261 707 LINE",
"248 710 OFFCURVE",
"237 711 OFFCURVE",
"226 711 CURVE SMOOTH",
"144 711 OFFCURVE",
"78 661 OFFCURVE",
"78 549 CURVE SMOOTH",
"78 0 LINE"
);
}
);
width = 294;
},
{
anchors = (
{
name = bottom;
position = "{88, 0}";
},
{
name = top;
position = "{171, 694}";
}
);
background = {
paths = (
{
closed = 1;
nodes = (
"97 0 LINE",
"97 482 LINE",
"240 482 LINE",
"248 501 LINE",
"97 501 LINE",
"97 549 LINE SMOOTH",
"97 602.333 OFFCURVE",
"112.667 640.667 OFFCURVE",
"144 664 CURVE SMOOTH",
"168.667 682.667 OFFCURVE",
"197.667 692 OFFCURVE",
"231 692 CURVE SMOOTH",
"239.667 692 OFFCURVE",
"248.667 691.333 OFFCURVE",
"258 690 CURVE",
"261 707 LINE",
"249.667 709.667 OFFCURVE",
"238 711 OFFCURVE",
"226 711 CURVE SMOOTH",
"196 711 OFFCURVE",
"166.667 702.667 OFFCURVE",
"138 686 CURVE SMOOTH",
"103.333 666 OFFCURVE",
"78 615.667 OFFCURVE",
"78 549 CURVE SMOOTH",
"78 0 LINE"
);
}
);
};
layerId = "77B00D75-0619-4FB7-8D17-EB9FCD2DF18B";
paths = (
{
closed = 1;
nodes = (
"97 0 LINE",
"97 482 LINE",
"240 482 LINE",
"248 501 LINE",
"97 501 LINE",
"97 549 LINE SMOOTH",
"97 643 OFFCURVE",
"152 692 OFFCURVE",
"230 692 CURVE SMOOTH",
"241 692 OFFCURVE",
"250 691 OFFCURVE",
"258 690 CURVE",
"261 707 LINE",
"249.667 709.667 OFFCURVE",
"238 711 OFFCURVE",
"226 711 CURVE SMOOTH",
"147 711 OFFCURVE",
"78 661 OFFCURVE",
"78 549 CURVE SMOOTH",
"78 0 LINE"
);
}
);
width = 300;
},
{
anchors = (
{
name = bottom;
position = "{134, 0}";
},
{
name = top;
position = "{195, 694}";
}
);
background = {
paths = (
{
closed = 1;
nodes = (
"190 0 LINE",
"190 398 LINE",
"253 398 LINE",
"277 501 LINE",
"190 501 LINE",
"190 549 LINE SMOOTH",
"190 571.667 OFFCURVE",
"195.333 588.333 OFFCURVE",
"206 599 CURVE",
"215.333 607.667 OFFCURVE",
"225 612 OFFCURVE",
"235 612 CURVE SMOOTH",
"237 612 OFFCURVE",
"238.667 612 OFFCURVE",
"240 612 CURVE",
"252 610 OFFCURVE",
"261.333 608.333 OFFCURVE",
"268 607 CURVE",
"286 707 LINE",
"268.667 709 OFFCURVE",
"250.667 710.667 OFFCURVE",
"232 712 CURVE",
"230 712 OFFCURVE",
"227.667 712 OFFCURVE",
"225 712 CURVE SMOOTH",
"209 712 OFFCURVE",
"193 709.333 OFFCURVE",
"177 704 CURVE SMOOTH",
"130.737 687.477 OFFCURVE",
"78 620.023 OFFCURVE",
"78 549 CURVE SMOOTH",
"78 0 LINE"
);
}
);
};
layerId = "8A94633D-DA21-409C-A8B7-00A83612E8B2";
paths = (
{
closed = 1;
nodes = (
"190 0 LINE",
"190 398 LINE",
"253 398 LINE",
"277 501 LINE",
"190 501 LINE",
"190 549 LINE SMOOTH",
"190 587 OFFCURVE",
"211 612 OFFCURVE",
"241 612 CURVE SMOOTH",
"250 612 OFFCURVE",
"259 610 OFFCURVE",
"268 607 CURVE",
"286 703 LINE",
"270 708 OFFCURVE",
"250 712 OFFCURVE",
"230 712 CURVE SMOOTH",
"150 712 OFFCURVE",
"78 646 OFFCURVE",
"78 549 CURVE SMOOTH",
"78 0 LINE"
);
}
);
width = 325;
}
);
leftKerningGroup = f;
rightKerningGroup = f;
unicode = 0066;
},
{
glyphname = g;
lastChange = "2018-08-14 15:36:20 +0000";
layers = (
{
anchors = (
{
name = bottom;
position = "{233, -232}";
},
{
name = top;
position = "{225, 501}";
}
);
layerId = "BADA37E3-C95E-4946-BA48-1F986F6D85A7";
paths = (
{
closed = 1;
nodes = (
"383 -186 OFFCURVE",
"414 -144 OFFCURVE",
"414 -64 CURVE SMOOTH",
"414 501 LINE",
"358 501 LINE",
"362 443 LINE",
"333 489 OFFCURVE",
"278 510 OFFCURVE",
"222 510 CURVE SMOOTH",
"116 510 OFFCURVE",
"37 445 OFFCURVE",
"37 325 CURVE SMOOTH",
"37 176 LINE SMOOTH",
"37 53.333 OFFCURVE",
"104.833 -12 OFFCURVE",
"225.5 -12 CURVE SMOOTH",
"285.833 -12 OFFCURVE",
"330 12.333 OFFCURVE",
"358 61 CURVE",
"358 -63 LINE SMOOTH",
"358 -115.667 OFFCURVE",
"336 -150.333 OFFCURVE",
"292 -167 CURVE",
"307 -210 LINE"
);
},
{
closed = 1;
nodes = (
"158 39 OFFCURVE",
"93 82 OFFCURVE",
"93 167 CURVE SMOOTH",
"93 320 LINE SMOOTH",
"93 414 OFFCURVE",
"162 461 OFFCURVE",
"230 461 CURVE SMOOTH",
"295 461 OFFCURVE",
"358 419 OFFCURVE",
"358 336 CURVE SMOOTH",
"358 173 LINE SMOOTH",
"358 83 OFFCURVE",
"290 39 OFFCURVE",
"224 39 CURVE SMOOTH"
);
}
);
width = 448;
},
{
anchors = (
{
name = bottom;
position = "{224, -232}";
},
{
name = top;
position = "{227, 501}";
}
);
layerId = "77B00D75-0619-4FB7-8D17-EB9FCD2DF18B";
paths = (
{
closed = 1;
nodes = (
"383 -186 OFFCURVE",
"414 -144 OFFCURVE",
"414 -64 CURVE SMOOTH",
"414 501 LINE",
"395 501 LINE",
"395 437 LINE",
"360.333 485.667 OFFCURVE",
"305.333 510 OFFCURVE",
"230 510 CURVE SMOOTH",
"114 510 OFFCURVE",
"37 442.333 OFFCURVE",
"37 325 CURVE SMOOTH",
"37 176 LINE SMOOTH",
"37 53.333 OFFCURVE",
"105.667 -12 OFFCURVE",
"223 -12 CURVE SMOOTH",
"299 -12 OFFCURVE",
"356.333 17 OFFCURVE",
"395 75 CURVE",
"395 -63 LINE SMOOTH",
"395 -142 OFFCURVE",
"367 -166 OFFCURVE",
"301 -192 CURVE",
"307 -210 LINE"
);
},
{
closed = 1;
nodes = (
"113.667 6 OFFCURVE",
"56 71 OFFCURVE",
"56 167 CURVE SMOOTH",
"56 320 LINE SMOOTH",
"56 429 OFFCURVE",
"125 491 OFFCURVE",
"230 491 CURVE SMOOTH",
"315.333 491 OFFCURVE",
"370.333 459.667 OFFCURVE",
"395 397 CURVE",
"395 160 LINE SMOOTH",
"395 70 OFFCURVE",
"325 6 OFFCURVE",
"223 6 CURVE SMOOTH"
);
}
);
width = 448;
},
{
anchors = (
{
name = bottom;
position = "{224, -232}";
},
{
name = top;
position = "{227, 510}";
}
);
layerId = "8A94633D-DA21-409C-A8B7-00A83612E8B2";
paths = (
{
closed = 1;
nodes = (
"361.667 -210 OFFCURVE",
"414 -161.333 OFFCURVE",
"414 -64 CURVE SMOOTH",
"414 501 LINE",
"326 501 LINE",
"305 490 LINE",
"297 499.333 OFFCURVE",
"264.333 510 OFFCURVE",
"227 510 CURVE SMOOTH",
"111 510 OFFCURVE",
"37 442.333 OFFCURVE",
"37 325 CURVE SMOOTH",
"37 176 LINE SMOOTH",
"37 53.333 OFFCURVE",
"105.667 -12 OFFCURVE",
"223 -12 CURVE SMOOTH",
"259 -12 OFFCURVE",
"286 -5.333 OFFCURVE",
"304 8 CURVE",
"304 -46 LINE SMOOTH",
"304 -98 OFFCURVE",
"276.333 -124 OFFCURVE",
"231 -124 CURVE",
"257 -210 LINE"
);
},
{
closed = 1;
nodes = (
"172.333 94 OFFCURVE",
"147 126.333 OFFCURVE",
"147 191 CURVE SMOOTH",
"147 320 LINE SMOOTH",
"147 365.333 OFFCURVE",
"168.333 401 OFFCURVE",
"223 401 CURVE SMOOTH",
"277 401 OFFCURVE",
"304 372.333 OFFCURVE",
"304 315 CURVE SMOOTH",
"304 231 LINE SMOOTH",
"304 133.667 OFFCURVE",
"288.333 94 OFFCURVE",
"223 94 CURVE SMOOTH"
);
}
);
width = 448;
}
);
leftKerningGroup = o;
rightKerningGroup = q;
unicode = 0067;
},
{
glyphname = h;
lastChange = "2018-08-14 19:11:19 +0000";
layers = (
{
anchors = (
{
name = bottom;
position = "{247, 0}";
},
{
name = center;
position = "{119, 590}";
},
{
name = top;
position = "{92, 694}";
}
);
layerId = "BADA37E3-C95E-4946-BA48-1F986F6D85A7";
paths = (
{
closed = 1;
nodes = (
"120 0 LINE",
"120 425 LINE",
"160.667 447.667 OFFCURVE",
"203.5 459 OFFCURVE",
"248.5 459 CURVE SMOOTH",
"328 459 OFFCURVE",
"378 422 OFFCURVE",
"378 343 CURVE SMOOTH",
"378 0 LINE",
"433 0 LINE",
"433 346 LINE SMOOTH",
"433 464 OFFCURVE",
"349 510 OFFCURVE",
"255 510 CURVE SMOOTH",
"198.333 510 OFFCURVE",
"153.333 498 OFFCURVE",
"120 474 CURVE",
"120 700 LINE",
"64 700 LINE",
"64 0 LINE"
);
}
);
width = 493;
},
{
anchors = (
{
name = bottom;
position = "{247, 0}";
},
{
name = center;
position = "{119, 608}";
},
{
name = top;
position = "{74, 694}";
}
);
background = {
paths = (
{
closed = 1;
nodes = (
"83 0 LINE",
"83 454 LINE",
"130.333 478.667 OFFCURVE",
"184.333 491 OFFCURVE",
"245 491 CURVE SMOOTH",
"260.333 491 OFFCURVE",
"275.667 490 OFFCURVE",
"291 488 CURVE SMOOTH",
"360.333 478.667 OFFCURVE",
"414 428.333 OFFCURVE",
"414 347 CURVE SMOOTH",
"414 0 LINE",
"433 0 LINE",
"433 346 LINE SMOOTH",
"433 415.333 OFFCURVE",
"404.667 463 OFFCURVE",
"348 489 CURVE",
"320.667 503 OFFCURVE",
"281 510 OFFCURVE",
"229 510 CURVE SMOOTH",
"177 510 OFFCURVE",
"128.333 498.333 OFFCURVE",
"83 475 CURVE",
"83 700 LINE",
"64 700 LINE",
"64 0 LINE"
);
}
);
};
layerId = "77B00D75-0619-4FB7-8D17-EB9FCD2DF18B";
paths = (
{
closed = 1;
nodes = (
"83 0 LINE",
"83 454 LINE",
"130 479 OFFCURVE",
"184 491 OFFCURVE",
"238 491 CURVE SMOOTH",
"327 491 OFFCURVE",
"414 458 OFFCURVE",
"414 347 CURVE SMOOTH",
"414 0 LINE",
"433 0 LINE",
"433 346 LINE SMOOTH",
"433 470 OFFCURVE",
"343 510 OFFCURVE",
"238 510 CURVE SMOOTH",
"178 510 OFFCURVE",
"129 498 OFFCURVE",
"83 475 CURVE",
"83 700 LINE",
"64 700 LINE",
"64 0 LINE"
);
}
);
width = 493;
},
{
anchors = (
{
name = bottom;
position = "{247, 0}";
},
{
name = center;
position = "{130, 594}";
},
{
name = top;
position = "{119, 694}";
}
);
layerId = "8A94633D-DA21-409C-A8B7-00A83612E8B2";
paths = (
{
closed = 1;
nodes = (
"174 0 LINE",
"174 389 LINE",
"192 401 OFFCURVE",
"222 406 OFFCURVE",
"243 406 CURVE SMOOTH",
"300 406 OFFCURVE",
"323 368 OFFCURVE",
"323 307 CURVE SMOOTH",
"323 0 LINE",
"433 0 LINE",
"433 346 LINE SMOOTH",
"433 451 OFFCURVE",
"365 510 OFFCURVE",
"248 510 CURVE SMOOTH",
"217.333 509.333 OFFCURVE",
"192.667 505 OFFCURVE",
"174 497 CURVE",
"174 700 LINE",
"64 700 LINE",
"64 0 LINE"
);
}
);
width = 493;
}
);
leftKerningGroup = l;
rightKerningGroup = n;
unicode = 0068;
},
{
glyphname = i;
lastChange = "2018-08-21 15:03:06 +0000";
layers = (
{
anchors = (
{
name = bottom;
position = "{111, 0}";
},
{
name = ogonek;
position = "{139, 0}";
}
);
layerId = "BADA37E3-C95E-4946-BA48-1F986F6D85A7";
paths = (
{
closed = 1;
nodes = (
"139 0 LINE",
"139 501 LINE",
"83 501 LINE",
"83 0 LINE"
);
},
{
closed = 1;
nodes = (
"129 644 OFFCURVE",
"145 654 OFFCURVE",
"145 676 CURVE SMOOTH",
"145 698 OFFCURVE",
"129 709 OFFCURVE",
"112 709 CURVE SMOOTH",
"95 709 OFFCURVE",
"78 699 OFFCURVE",
"78 677 CURVE SMOOTH",
"78 655 OFFCURVE",
"95 644 OFFCURVE",
"112 644 CURVE SMOOTH"
);
}
);
width = 225;
},
{
anchors = (
{
name = bottom;
position = "{92, 0}";
},
{
name = ogonek;
position = "{101, 0}";
}
);
layerId = "77B00D75-0619-4FB7-8D17-EB9FCD2DF18B";
paths = (
{
closed = 1;
nodes = (
"101 0 LINE",
"101 501 LINE",
"82 501 LINE",
"82 0 LINE"
);
},
{
closed = 1;
nodes = (
"98 683 OFFCURVE",
"105 687 OFFCURVE",
"105 696 CURVE SMOOTH",
"105 705 OFFCURVE",
"99 710 OFFCURVE",
"92 710 CURVE SMOOTH",
"85 710 OFFCURVE",
"78 706 OFFCURVE",
"78 697 CURVE SMOOTH",
"78 688 OFFCURVE",
"84 683 OFFCURVE",
"91 683 CURVE SMOOTH"
);
}
);
width = 185;
},
{
anchors = (
{
name = bottom;
position = "{135, 0}";
},
{
name = ogonek;
position = "{190, 0}";
}
);
layerId = "8A94633D-DA21-409C-A8B7-00A83612E8B2";
paths = (
{
closed = 1;
nodes = (
"190 0 LINE",
"190 501 LINE",
"80 501 LINE",
"80 0 LINE"
);
},
{
closed = 1;
nodes = (
"169 592 OFFCURVE",
"196 618 OFFCURVE",
"196 651 CURVE SMOOTH",
"196 684 OFFCURVE",
"169 710 OFFCURVE",
"137 710 CURVE SMOOTH",
"105 710 OFFCURVE",
"78 684 OFFCURVE",
"78 651 CURVE SMOOTH",
"78 618 OFFCURVE",
"105 592 OFFCURVE",
"137 592 CURVE SMOOTH"
);
}
);
width = 276;
}
);
leftKerningGroup = i;
rightKerningGroup = i;
unicode = 0069;
},
{
glyphname = idotless;
lastChange = "2018-08-14 13:58:37 +0000";
layers = (
{
anchors = (
{
name = bottom;
position = "{106, 0}";
},
{
name = ogonek;
position = "{134, 0}";
},
{
name = top;
position = "{106, 501}";
}
);
layerId = "BADA37E3-C95E-4946-BA48-1F986F6D85A7";
paths = (
{
closed = 1;
nodes = (
"134 0 LINE",
"134 501 LINE",
"78 501 LINE",
"78 0 LINE"
);
}
);
width = 214;
},
{
anchors = (
{
name = bottom;
position = "{88, 0}";
},
{
name = ogonek;
position = "{97, 0}";
},
{
name = top;
position = "{88, 501}";
}
);
layerId = "77B00D75-0619-4FB7-8D17-EB9FCD2DF18B";
paths = (
{
closed = 1;
nodes = (
"97 0 LINE",
"97 501 LINE",
"78 501 LINE",
"78 0 LINE"
);
}
);
width = 177;
},
{
anchors = (
{
name = bottom;
position = "{133, 0}";
},
{
name = ogonek;
position = "{188, 0}";
},
{
name = top;
position = "{133, 501}";
}
);
layerId = "8A94633D-DA21-409C-A8B7-00A83612E8B2";
paths = (
{
closed = 1;
nodes = (
"188 0 LINE",
"188 501 LINE",
"78 501 LINE",
"78 0 LINE"
);
}
);
width = 268;
}
);
leftMetricsKey = i;
rightMetricsKey = i;
unicode = 0131;
},
{
glyphname = j;
lastChange = "2018-08-14 19:27:33 +0000";
layers = (
{
layerId = "BADA37E3-C95E-4946-BA48-1F986F6D85A7";
paths = (
{
closed = 1;
nodes = (
"72 -209 OFFCURVE",
"124 -153 OFFCURVE",
"124 -61 CURVE SMOOTH",
"124 501 LINE",
"0 501 LINE",
"23 449 LINE",
"68 446 LINE",
"68 -56 LINE SMOOTH",
"68 -113 OFFCURVE",
"35 -166 OFFCURVE",
"-7 -166 CURVE",
"0 -209 LINE"
);
},
{
closed = 1;
nodes = (
"115 643 OFFCURVE",
"130 659 OFFCURVE",
"130 676 CURVE SMOOTH",
"130 694 OFFCURVE",
"114 710 OFFCURVE",
"96 710 CURVE SMOOTH",
"78 710 OFFCURVE",
"63 694 OFFCURVE",
"63 677 CURVE SMOOTH",
"63 659 OFFCURVE",
"79 643 OFFCURVE",
"97 643 CURVE SMOOTH"
);
}
);
width = 193;
},
{
layerId = "77B00D75-0619-4FB7-8D17-EB9FCD2DF18B";
paths = (
{
closed = 1;
nodes = (
"70 -198.333 OFFCURVE",
"105 -156.333 OFFCURVE",
"105 -83 CURVE SMOOTH",
"105 501 LINE",
"0 501 LINE",
"11 482 LINE",
"86 482 LINE",
"86 -82 LINE SMOOTH",
"86 -147.981 OFFCURVE",
"42.188 -191 OFFCURVE",
"-3 -191 CURVE",
"0 -209 LINE"
);
},
{
closed = 1;
nodes = (
"103 683 OFFCURVE",
"109 687 OFFCURVE",
"109 696 CURVE SMOOTH",
"109 707 OFFCURVE",
"103 710 OFFCURVE",
"96 710 CURVE SMOOTH",
"88 710 OFFCURVE",
"82 707 OFFCURVE",
"82 697 CURVE SMOOTH",
"82 687 OFFCURVE",
"88 683 OFFCURVE",
"95 683 CURVE SMOOTH"
);
}
);
width = 196;
},
{
layerId = "8A94633D-DA21-409C-A8B7-00A83612E8B2";
paths = (
{
closed = 1;
nodes = (
"105.667 -209 OFFCURVE",
"182 -146 OFFCURVE",
"182 -34 CURVE SMOOTH",
"182 501 LINE",
"-1 501 LINE",
"21 409 LINE",
"72 399 LINE",
"72 -35 LINE SMOOTH",
"72 -88 OFFCURVE",
"44 -117 OFFCURVE",
"1 -124 CURVE",
"31 -209 LINE"
);
},
{
closed = 1;
nodes = (
"161 592 OFFCURVE",
"188 622 OFFCURVE",
"188 651 CURVE SMOOTH",
"188 683 OFFCURVE",
"159 711 OFFCURVE",
"128 711 CURVE SMOOTH",
"101 711 OFFCURVE",
"69 686 OFFCURVE",
"69 653 CURVE SMOOTH",
"69 622 OFFCURVE",
"98 592 OFFCURVE",
"130 592 CURVE SMOOTH"
);
}
);
width = 236;
}
);
leftKerningGroup = j;
rightKerningGroup = j;
unicode = 006A;
},
{
glyphname = jdotless;
lastChange = "2018-08-14 15:31:17 +0000";
layers = (
{
anchors = (
{
name = bottom;
position = "{66, -232}";
},
{
name = top;
position = "{96, 501}";
}
);
layerId = "BADA37E3-C95E-4946-BA48-1F986F6D85A7";
paths = (
{
closed = 1;
nodes = (
"72 -209 OFFCURVE",
"124 -149 OFFCURVE",
"124 -63 CURVE SMOOTH",
"124 501 LINE",
"0 501 LINE",
"23 449 LINE",
"68 446 LINE",
"68 -60 LINE SMOOTH",
"68 -114 OFFCURVE",
"42 -154 OFFCURVE",
"-7 -166 CURVE",
"0 -209 LINE"
);
}
);
width = 187;
},
{
anchors = (
{
name = bottom;
position = "{67, -232}";
},
{
name = top;
position = "{96, 501}";
}
);
layerId = "77B00D75-0619-4FB7-8D17-EB9FCD2DF18B";
paths = (
{
closed = 1;
nodes = (
"70 -198 OFFCURVE",
"105 -156 OFFCURVE",
"105 -83 CURVE SMOOTH",
"105 501 LINE",
"0 501 LINE",
"11 482 LINE",
"86 482 LINE",
"86 -82 LINE SMOOTH",
"86 -148 OFFCURVE",
"42 -191 OFFCURVE",
"-3 -191 CURVE",
"0 -209 LINE"
);
}
);
width = 192;
},
{
anchors = (
{
name = bottom;
position = "{104, -232}";
},
{
name = top;
position = "{127, 501}";
}
);
layerId = "8A94633D-DA21-409C-A8B7-00A83612E8B2";
paths = (
{
closed = 1;
nodes = (
"106 -209 OFFCURVE",
"182 -150 OFFCURVE",
"182 -51 CURVE SMOOTH",
"182 501 LINE",
"-1 501 LINE",
"21 409 LINE",
"72 399 LINE",
"72 -35 LINE SMOOTH",
"72 -83 OFFCURVE",
"48 -116 OFFCURVE",
"1 -124 CURVE",
"31 -209 LINE"
);
}
);
width = 230;
}
);
leftMetricsKey = j;
rightMetricsKey = j;
unicode = 0237;
},
{
glyphname = k;
lastChange = "2018-08-14 15:37:32 +0000";
layers = (
{
anchors = (
{
name = bottom;
position = "{229, 0}";
},
{
name = top;
position = "{95, 694}";
}
);
layerId = "BADA37E3-C95E-4946-BA48-1F986F6D85A7";
paths = (
{
closed = 1;
nodes = (
"123 0 LINE",
"123 272 LINE",
"175 317 LINE",
"367 0 LINE",
"434 0 LINE",
"215 352 LINE",
"363 481 LINE",
"323 520 LINE",
"123 335 LINE",
"123 700 LINE",
"67 700 LINE",
"67 0 LINE"
);
}
);
width = 434;
},
{
anchors = (
{
name = bottom;
position = "{231, 0}";
},
{
name = top;
position = "{77, 694}";
}
);
layerId = "77B00D75-0619-4FB7-8D17-EB9FCD2DF18B";
paths = (
{
closed = 1;
nodes = (
"86 0 LINE",
"86 277 LINE",
"185 366 LINE",
"411 0 LINE",
"434 0 LINE",
"199 380 LINE",
"337 507 LINE",
"323 520 LINE",
"86 301 LINE",
"86 700 LINE",
"67 700 LINE",
"67 0 LINE"
);
}
);
width = 438;
},
{
anchors = (
{
name = bottom;
position = "{244, 0}";
},
{
name = top;
position = "{119, 694}";
}
);
layerId = "8A94633D-DA21-409C-A8B7-00A83612E8B2";
paths = (
{
closed = 1;
nodes = (
"174 0 LINE",
"174 240 LINE",
"188 254 LINE",
"338 0 LINE",
"476 0 LINE",
"273 332 LINE",
"404 443 LINE",
"323 520 LINE",
"174 382 LINE",
"174 700 LINE",
"64 700 LINE",
"64 0 LINE"
);
}
);
width = 474;
}
);
leftKerningGroup = l;
rightKerningGroup = k;
unicode = 006B;
},
{
glyphname = kgreenlandic;
lastChange = "2018-08-14 16:05:23 +0000";
layers = (
{
layerId = "BADA37E3-C95E-4946-BA48-1F986F6D85A7";
paths = (
{
closed = 1;
nodes = (
"446 47 LINE",
"419.333 48.333 OFFCURVE",
"389 71.667 OFFCURVE",
"355 117 CURVE SMOOTH",
"228 296 LINE",
"416 501 LINE",
"342 501 LINE",
"134 274 LINE",
"134 501 LINE",
"78 501 LINE",
"78 0 LINE",
"134 0 LINE",
"134 198 LINE",
"189 254 LINE",
"294 110 LINE SMOOTH",
"334.731 54.722 OFFCURVE",
"383.692 -1 OFFCURVE",
"448 -1 CURVE"
);
}
);
width = 481;
},
{
layerId = "77B00D75-0619-4FB7-8D17-EB9FCD2DF18B";
paths = (
{
closed = 1;
nodes = (
"447 19 LINE",
"416.333 19 OFFCURVE",
"377.667 50.333 OFFCURVE",
"331 113 CURVE SMOOTH",
"204 292 LINE",
"396 501 LINE",
"369 501 LINE",
"97 205 LINE",
"97 507 LINE",
"78 512 LINE",
"78 0 LINE",
"97 0 LINE",
"97 179 LINE",
"191 278 LINE",
"320 98 LINE SMOOTH",
"367.333 32 OFFCURVE",
"409.667 -1 OFFCURVE",
"447 -1 CURVE"
);
}
);
width = 486;
},
{
layerId = "8A94633D-DA21-409C-A8B7-00A83612E8B2";
paths = (
{
closed = 1;
nodes = (
"481 96 LINE",
"454.333 97.333 OFFCURVE",
"432.333 109.333 OFFCURVE",
"395 160 CURVE SMOOTH",
"296 300 LINE",
"478 501 LINE",
"342 501 LINE",
"188 333 LINE",
"188 501 LINE",
"78 501 LINE",
"78 0 LINE",
"188 0 LINE",
"188 195 LINE",
"215 219 LINE",
"294 110 LINE SMOOTH",
"334.731 54.722 OFFCURVE",
"383.692 -1 OFFCURVE",
"448 -1 CURVE"
);
}
);
width = 520;
}
);
unicode = 0138;
},
{
glyphname = l;
lastChange = "2018-08-14 18:25:38 +0000";
layers = (
{
anchors = (
{
name = bottom;
position = "{106, 0}";
},
{
name = center;
position = "{107, 399}";
},
{
name = top;
position = "{106, 694}";
},
{
name = topright;
position = "{198, 694}";
}
);
layerId = "BADA37E3-C95E-4946-BA48-1F986F6D85A7";
paths = (
{
closed = 1;
nodes = (
"134 0 LINE",
"134 700 LINE",
"78 700 LINE",
"78 0 LINE"
);
}
);
width = 214;
},
{
anchors = (
{
name = bottom;
position = "{88, 0}";
},
{
name = center;
position = "{88, 415}";
},
{
name = top;
position = "{88, 694}";
},
{
name = topright;
position = "{160, 694}";
}
);
layerId = "77B00D75-0619-4FB7-8D17-EB9FCD2DF18B";
paths = (
{
closed = 1;
nodes = (
"97 0 LINE",
"97 700 LINE",
"78 700 LINE",
"78 0 LINE"
);
}
);
width = 177;
},
{
anchors = (
{
name = bottom;
position = "{133, 0}";
},
{
name = center;
position = "{133, 384}";
},
{
name = top;
position = "{133, 694}";
},
{
name = topright;
position = "{277, 694}";
}
);
layerId = "8A94633D-DA21-409C-A8B7-00A83612E8B2";
paths = (
{
closed = 1;
nodes = (
"188 0 LINE",
"188 700 LINE",
"78 700 LINE",
"78 0 LINE"
);
}
);
width = 268;
}
);
leftKerningGroup = l;
rightKerningGroup = l;
unicode = 006C;
},
{
glyphname = m;
lastChange = "2018-08-14 15:38:11 +0000";
layers = (
{
anchors = (
{
name = bottom;
position = "{400, 0}";
},
{
name = top;
position = "{393, 501}";
}
);
background = {
paths = (
{
closed = 1;
nodes = (
"134 0 LINE",
"134 425 LINE",
"194 458 OFFCURVE",
"317 458 OFFCURVE",
"347 424 QCURVE",
"372 395 OFFCURVE",
"372 343 QCURVE",
"372 0 LINE",
"427 0 LINE",
"427 346 LINE",
"427 390 OFFCURVE",
"410 424 QCURVE",
"447 442 LINE",
"481 455 OFFCURVE",
"522 458 OFFCURVE",
"555 458 OFFCURVE",
"609 444 OFFCURVE",
"647 388 OFFCURVE",
"647 343 QCURVE",
"647 0 LINE",
"702 0 LINE",
"702 346 LINE",
"702 417 OFFCURVE",
"618 509 OFFCURVE",
"546 509 QCURVE",
"470 509 OFFCURVE",
"385 461 QCURVE",
"339 508 OFFCURVE",
"198 508 OFFCURVE",
"129 469 QCURVE",
"134 501 LINE",
"78 501 LINE",
"78 0 LINE"
);
}
);
};
layerId = "BADA37E3-C95E-4946-BA48-1F986F6D85A7";
paths = (
{
closed = 1;
nodes = (
"134 0 LINE",
"134 425 LINE",
"174 447 OFFCURVE",
"214.5 458 OFFCURVE",
"255.5 458 CURVE SMOOTH",
"333 458 OFFCURVE",
"372 417 OFFCURVE",
"372 343 CURVE SMOOTH",
"372 0 LINE",
"427 0 LINE",
"427 346 LINE SMOOTH",
"427 375.333 OFFCURVE",
"421.333 401.333 OFFCURVE",
"410 424 CURVE",
"469 450 OFFCURVE",
"506 458 OFFCURVE",
"538.5 458 CURVE SMOOTH",
"595 458 OFFCURVE",
"647 433 OFFCURVE",
"647 343 CURVE SMOOTH",
"647 0 LINE",
"702 0 LINE",
"702 346 LINE SMOOTH",
"702 440.667 OFFCURVE",
"646 509 OFFCURVE",
"546 509 CURVE SMOOTH",
"497 509 OFFCURVE",
"441.667 493 OFFCURVE",
"385 461 CURVE",
"354.333 492.333 OFFCURVE",
"315.5 508 OFFCURVE",
"267 508 CURVE SMOOTH",
"221.5 508 OFFCURVE",
"175 495 OFFCURVE",
"129 469 CURVE",
"134 501 LINE",
"78 501 LINE",
"78 0 LINE"
);
}
);
width = 735;
},
{
anchors = (
{
name = bottom;
position = "{394, 0}";
},
{
name = top;
position = "{388, 501}";
}
);
layerId = "77B00D75-0619-4FB7-8D17-EB9FCD2DF18B";
paths = (
{
closed = 1;
nodes = (
"97 0 LINE",
"97 454 LINE",
"154 480 OFFCURVE",
"195 490 OFFCURVE",
"246 490 CURVE SMOOTH",
"331 490 OFFCURVE",
"384 456 OFFCURVE",
"384 371 CURVE SMOOTH",
"384 0 LINE",
"403 0 LINE",
"403 359 LINE SMOOTH",
"403 397 OFFCURVE",
"400 419 OFFCURVE",
"392 438 CURVE",
"462 477 OFFCURVE",
"514 489 OFFCURVE",
"551 489 CURVE SMOOTH",
"622 489 OFFCURVE",
"683 446 OFFCURVE",
"683 352 CURVE SMOOTH",
"683 0 LINE",
"702 0 LINE",
"702 354 LINE SMOOTH",
"702 462 OFFCURVE",
"635 508 OFFCURVE",
"551 508 CURVE SMOOTH",
"500 508 OFFCURVE",
"443 488 OFFCURVE",
"384 454 CURVE",
"359 492 OFFCURVE",
"321 509 OFFCURVE",
"245 509 CURVE SMOOTH",
"193 509 OFFCURVE",
"149 500 OFFCURVE",
"97 476 CURVE",
"97 501 LINE",
"78 501 LINE",
"78 0 LINE"
);
}
);
width = 741;
},
{
anchors = (
{
name = bottom;
position = "{401, 0}";
},
{
name = top;
position = "{395, 501}";
}
);
layerId = "8A94633D-DA21-409C-A8B7-00A83612E8B2";
paths = (
{
closed = 1;
nodes = (
"188 0 LINE",
"188 383 LINE",
"221 398 OFFCURVE",
"251 406 OFFCURVE",
"273 406 CURVE SMOOTH",
"314 406 OFFCURVE",
"346 378 OFFCURVE",
"346 313 CURVE SMOOTH",
"346 0 LINE",
"456 0 LINE",
"456 331 LINE SMOOTH",
"456 355 OFFCURVE",
"454 373 OFFCURVE",
"450 386 CURVE",
"483 399 OFFCURVE",
"508 406 OFFCURVE",
"529 406 CURVE SMOOTH",
"573 406 OFFCURVE",
"592 377 OFFCURVE",
"592 315 CURVE SMOOTH",
"592 0 LINE",
"702 0 LINE",
"702 346 LINE SMOOTH",
"702 439 OFFCURVE",
"645 509 OFFCURVE",
"546 509 CURVE SMOOTH",
"496 509 OFFCURVE",
"446 491 OFFCURVE",
"403 466 CURVE",
"373 495 OFFCURVE",
"341 510 OFFCURVE",
"293 510 CURVE SMOOTH",
"260 510 OFFCURVE",
"220 503 OFFCURVE",
"188 486 CURVE",
"175 501 LINE",
"78 501 LINE",
"78 0 LINE"
);
}
);
width = 741;
}
);
leftKerningGroup = n;
rightKerningGroup = n;
unicode = 006D;
},
{
glyphname = n;
lastChange = "2018-08-13 21:37:37 +0000";
layers = (
{
anchors = (
{
name = bottom;
position = "{250, 0}";
},
{
name = top;
position = "{254, 501}";
}
);
layerId = "BADA37E3-C95E-4946-BA48-1F986F6D85A7";
paths = (
{
closed = 1;
nodes = (
"120 0 LINE",
"120 425 LINE",
"160.667 447.667 OFFCURVE",
"203.5 459 OFFCURVE",
"248.5 459 CURVE SMOOTH",
"329 459 OFFCURVE",
"378 421 OFFCURVE",
"378 343 CURVE SMOOTH",
"378 0 LINE",
"433 0 LINE",
"433 346 LINE SMOOTH",
"433 451 OFFCURVE",
"371 510 OFFCURVE",
"256 510 CURVE SMOOTH",
"199 510 OFFCURVE",
"151 496 OFFCURVE",
"116 467 CURVE",
"120 501 LINE",
"64 501 LINE",
"64 0 LINE"
);
}
);
width = 500;
},
{
anchors = (
{
name = bottom;
position = "{250, 0}";
},
{
name = top;
position = "{250, 501}";
}
);
layerId = "77B00D75-0619-4FB7-8D17-EB9FCD2DF18B";
paths = (
{
closed = 1;
nodes = (
"83 0 LINE",
"83 454 LINE",
"129.667 478.667 OFFCURVE",
"182.667 491 OFFCURVE",
"242 491 CURVE SMOOTH",
"342 491 OFFCURVE",
"414 442 OFFCURVE",
"414 347 CURVE SMOOTH",
"414 0 LINE",
"433 0 LINE",
"433 346 LINE SMOOTH",
"433 460 OFFCURVE",
"358 510 OFFCURVE",
"238 510 CURVE SMOOTH",
"178 510 OFFCURVE",
"129 498 OFFCURVE",
"83 475 CURVE",
"83 501 LINE",
"64 501 LINE",
"64 0 LINE"
);
}
);
width = 500;
},
{
anchors = (
{
name = bottom;
position = "{250, 0}";
},
{
name = top;
position = "{250, 501}";
}
);
layerId = "8A94633D-DA21-409C-A8B7-00A83612E8B2";
paths = (
{
closed = 1;
nodes = (
"173 0 LINE",
"173 386 LINE",
"197.667 398 OFFCURVE",
"220.333 404 OFFCURVE",
"241 404 CURVE SMOOTH",
"289 404 OFFCURVE",
"323 371 OFFCURVE",
"323 315 CURVE SMOOTH",
"323 0 LINE",
"433 0 LINE",
"433 346 LINE SMOOTH",
"433 450 OFFCURVE",
"363 510 OFFCURVE",
"264 510 CURVE SMOOTH",
"231 510 OFFCURVE",
"202 503 OFFCURVE",
"173 489 CURVE",
"161 501 LINE",
"64 501 LINE",
"64 0 LINE"
);
}
);
width = 500;
}
);
leftKerningGroup = n;
rightKerningGroup = n;
unicode = 006E;
},
{
glyphname = eng;
lastChange = "2018-08-14 19:23:09 +0000";
layers = (
{
layerId = "BADA37E3-C95E-4946-BA48-1F986F6D85A7";
paths = (
{
closed = 1;
nodes = (
"199 510 OFFCURVE",
"151 496 OFFCURVE",
"116 467 CURVE",
"120 501 LINE",
"64 501 LINE",
"64 0 LINE",
"120 0 LINE",
"120 425 LINE",
"161 448 OFFCURVE",
"204 459 OFFCURVE",
"249 459 CURVE SMOOTH",
"329 459 OFFCURVE",
"378 421 OFFCURVE",
"378 343 CURVE SMOOTH",
"378 -56 LINE SMOOTH",
"378 -113 OFFCURVE",
"345 -166 OFFCURVE",
"302 -166 CURVE",
"309 -209 LINE",
"381 -209 OFFCURVE",
"433 -143 OFFCURVE",
"433 -55 CURVE SMOOTH",
"433 346 LINE SMOOTH",
"433 451 OFFCURVE",
"371 510 OFFCURVE",
"256 510 CURVE SMOOTH"
);
}
);
width = 500;
},
{
layerId = "77B00D75-0619-4FB7-8D17-EB9FCD2DF18B";
paths = (
{
closed = 1;
nodes = (
"178 510 OFFCURVE",
"129 498 OFFCURVE",
"83 475 CURVE",
"83 501 LINE",
"64 501 LINE",
"64 0 LINE",
"83 0 LINE",
"83 454 LINE",
"130 479 OFFCURVE",
"183 491 OFFCURVE",
"242 491 CURVE SMOOTH",
"342 491 OFFCURVE",
"414 442 OFFCURVE",
"414 347 CURVE SMOOTH",
"414 -82 LINE SMOOTH",
"414 -148 OFFCURVE",
"370 -191 OFFCURVE",
"325 -191 CURVE",
"328 -209 LINE",
"398 -198 OFFCURVE",
"433 -156 OFFCURVE",
"433 -83 CURVE SMOOTH",
"433 346 LINE SMOOTH",
"433 460 OFFCURVE",
"358 510 OFFCURVE",
"238 510 CURVE SMOOTH"
);
}
);
width = 500;
},
{
layerId = "8A94633D-DA21-409C-A8B7-00A83612E8B2";
paths = (
{
closed = 1;
nodes = (
"231 510 OFFCURVE",
"202 503 OFFCURVE",
"173 489 CURVE",
"161 501 LINE",
"64 501 LINE",
"64 0 LINE",
"173 0 LINE",
"173 386 LINE",
"198 398 OFFCURVE",
"220 404 OFFCURVE",
"241 404 CURVE SMOOTH",
"289 404 OFFCURVE",
"323 371 OFFCURVE",
"323 315 CURVE SMOOTH",
"323 -35 LINE SMOOTH",
"323 -88 OFFCURVE",
"295 -117 OFFCURVE",
"252 -124 CURVE",
"282 -209 LINE",
"357 -209 OFFCURVE",
"433 -146 OFFCURVE",
"433 -34 CURVE SMOOTH",
"433 346 LINE SMOOTH",
"433 450 OFFCURVE",
"363 510 OFFCURVE",
"264 510 CURVE SMOOTH"
);
}
);
width = 500;
}
);
leftMetricsKey = n;
rightMetricsKey = n;
unicode = 014B;
},
{
glyphname = o;
lastChange = "2018-08-14 18:42:30 +0000";
layers = (
{
anchors = (
{
name = bottom;
position = "{265, 0}";
},
{
name = center;
position = "{265, 251}";
},
{
name = ogonek;
position = "{326, 0}";
},
{
name = top;
position = "{265, 501}";
},
{
name = topright;
position = "{464, 501}";
}
);
layerId = "BADA37E3-C95E-4946-BA48-1F986F6D85A7";
paths = (
{
closed = 1;
nodes = (
"390 -10 OFFCURVE",
"451 72 OFFCURVE",
"451 184 CURVE SMOOTH",
"451 316 LINE SMOOTH",
"451 437 OFFCURVE",
"383 512 OFFCURVE",
"264 512 CURVE SMOOTH",
"145 512 OFFCURVE",
"78 443 OFFCURVE",
"78 316 CURVE SMOOTH",
"78 184 LINE SMOOTH",
"78 73 OFFCURVE",
"142 -10 OFFCURVE",
"266 -10 CURVE SMOOTH"
);
},
{
closed = 1;
nodes = (
"199 39 OFFCURVE",
"134 84 OFFCURVE",
"134 174 CURVE SMOOTH",
"134 316 LINE SMOOTH",
"134 413 OFFCURVE",
"178 461 OFFCURVE",
"266 461 CURVE SMOOTH",
"352 461 OFFCURVE",
"395 413 OFFCURVE",
"395 316 CURVE SMOOTH",
"395 174 LINE SMOOTH",
"395 84 OFFCURVE",
"330 39 OFFCURVE",
"265 39 CURVE SMOOTH"
);
}
);
width = 484;
},
{
anchors = (
{
name = bottom;
position = "{236, 0}";
},
{
name = center;
position = "{236, 251}";
},
{
name = ogonek;
position = "{282, 0}";
},
{
name = top;
position = "{236, 501}";
},
{
name = topright;
position = "{441, 501}";
}
);
layerId = "77B00D75-0619-4FB7-8D17-EB9FCD2DF18B";
paths = (
{
closed = 1;
nodes = (
"361 -10 OFFCURVE",
"422 72 OFFCURVE",
"422 184 CURVE SMOOTH",
"422 316 LINE SMOOTH",
"422 437 OFFCURVE",
"354 512 OFFCURVE",
"235 512 CURVE SMOOTH",
"116 512 OFFCURVE",
"49 443 OFFCURVE",
"49 316 CURVE SMOOTH",
"49 184 LINE SMOOTH",
"49 73 OFFCURVE",
"113 -10 OFFCURVE",
"237 -10 CURVE SMOOTH"
);
},
{
closed = 1;
nodes = (
"121.5 8 OFFCURVE",
"68 86.667 OFFCURVE",
"68 184 CURVE SMOOTH",
"68 320 LINE SMOOTH",
"68 435 OFFCURVE",
"140 493 OFFCURVE",
"236 493 CURVE SMOOTH",
"332 493 OFFCURVE",
"403 435 OFFCURVE",
"403 320 CURVE SMOOTH",
"403 184 LINE SMOOTH",
"403 84 OFFCURVE",
"349.5 8 OFFCURVE",
"235.5 8 CURVE SMOOTH"
);
}
);
width = 461;
},
{
anchors = (
{
name = bottom;
position = "{265, 0}";
},
{
name = center;
position = "{265, 251}";
},
{
name = ogonek;
position = "{326, 0}";
},
{
name = top;
position = "{265, 501}";
},
{
name = topright;
position = "{470, 501}";
}
);
layerId = "8A94633D-DA21-409C-A8B7-00A83612E8B2";
paths = (
{
closed = 1;
nodes = (
"390 -10 OFFCURVE",
"451 72 OFFCURVE",
"451 184 CURVE SMOOTH",
"451 316 LINE SMOOTH",
"451 437 OFFCURVE",
"382 512 OFFCURVE",
"266 512 CURVE SMOOTH",
"145 512 OFFCURVE",
"78 443 OFFCURVE",
"78 316 CURVE SMOOTH",
"78 184 LINE SMOOTH",
"78 73 OFFCURVE",
"142 -10 OFFCURVE",
"266 -10 CURVE SMOOTH"
);
},
{
closed = 1;
nodes = (
"214 98 OFFCURVE",
"188 123.333 OFFCURVE",
"188 174 CURVE SMOOTH",
"188 316 LINE SMOOTH",
"188 373 OFFCURVE",
"214 401 OFFCURVE",
"266 401 CURVE SMOOTH",
"311 401 OFFCURVE",
"342 385 OFFCURVE",
"342 316 CURVE SMOOTH",
"342 174 LINE SMOOTH",
"342 123.333 OFFCURVE",
"310 98 OFFCURVE",
"266 98 CURVE SMOOTH"
);
}
);
width = 490;
}
);
leftKerningGroup = o;
rightKerningGroup = o;
unicode = 006F;
},
{
glyphname = p;
lastChange = "2018-08-14 15:39:03 +0000";
layers = (
{
anchors = (
{
name = bottom;
position = "{259, 0}";
},
{
name = top;
position = "{259, 501}";
}
);
layerId = "BADA37E3-C95E-4946-BA48-1F986F6D85A7";
paths = (
{
closed = 1;
nodes = (
"134 -188 LINE",
"134 42 LINE",
"165 6 OFFCURVE",
"217 -12 OFFCURVE",
"269 -12 CURVE SMOOTH",
"381 -12 OFFCURVE",
"455 55 OFFCURVE",
"455 176 CURVE SMOOTH",
"455 315 LINE SMOOTH",
"455 429.667 OFFCURVE",
"387 509 OFFCURVE",
"271 509 CURVE SMOOTH",
"213 509 OFFCURVE",
"165.667 489.333 OFFCURVE",
"129 450 CURVE",
"134 501 LINE",
"78 501 LINE",
"78 -210 LINE"
);
},
{
closed = 1;
nodes = (
"199 37 OFFCURVE",
"134 79 OFFCURVE",
"134 166 CURVE SMOOTH",
"134 324 LINE",
"138 414 OFFCURVE",
"204 460 OFFCURVE",
"269 460 CURVE SMOOTH",
"334 460 OFFCURVE",
"399 413 OFFCURVE",
"399 319 CURVE SMOOTH",
"399 166 LINE SMOOTH",
"399 81 OFFCURVE",
"331 37 OFFCURVE",
"265 37 CURVE SMOOTH"
);
}
);
width = 488;
},
{
anchors = (
{
name = bottom;
position = "{256, 0}";
},
{
name = top;
position = "{256, 501}";
}
);
layerId = "77B00D75-0619-4FB7-8D17-EB9FCD2DF18B";
paths = (
{
closed = 1;
nodes = (
"97 -203 LINE",
"97 77 LINE",
"127 17.667 OFFCURVE",
"183.333 -12 OFFCURVE",
"266 -12 CURVE SMOOTH",
"378 -12 OFFCURVE",
"455 54.667 OFFCURVE",
"455 176 CURVE SMOOTH",
"455 314 LINE SMOOTH",
"455 430 OFFCURVE",
"388 509 OFFCURVE",
"252 509 CURVE SMOOTH",
"196 509 OFFCURVE",
"131.667 489 OFFCURVE",
"97 441 CURVE",
"97 501 LINE",
"78 501 LINE",
"78 -210 LINE"
);
},
{
closed = 1;
nodes = (
"163.667 7 OFFCURVE",
"97 64 OFFCURVE",
"97 156 CURVE SMOOTH",
"97 397 LINE",
"115 452 OFFCURVE",
"173 490 OFFCURVE",
"253 490 CURVE SMOOTH",
"354 490 OFFCURVE",
"436 441 OFFCURVE",
"436 318 CURVE SMOOTH",
"436 166 LINE SMOOTH",
"436 73 OFFCURVE",
"371 7 OFFCURVE",
"269 7 CURVE SMOOTH"
);
}
);
width = 494;
},
{
anchors = (
{
name = bottom;
position = "{262, 0}";
},
{
name = top;
position = "{262, 501}";
}
);
layerId = "8A94633D-DA21-409C-A8B7-00A83612E8B2";
paths = (
{
closed = 1;
nodes = (
"188 -188 LINE",
"188 2 LINE",
"207 -6 OFFCURVE",
"239.535 -12 OFFCURVE",
"269 -12 CURVE SMOOTH",
"381 -12 OFFCURVE",
"455 54.667 OFFCURVE",
"455 176 CURVE SMOOTH",
"455 315 LINE SMOOTH",
"455 429.667 OFFCURVE",
"389 509 OFFCURVE",
"268 509 CURVE SMOOTH",
"235.667 509 OFFCURVE",
"210 503 OFFCURVE",
"188 490 CURVE",
"182 501 LINE",
"78 501 LINE",
"78 -210 LINE"
);
},
{
closed = 1;
nodes = (
"215 98 OFFCURVE",
"188 128 OFFCURVE",
"188 188 CURVE SMOOTH",
"188 324 LINE SMOOTH",
"188 372 OFFCURVE",
"214.333 401 OFFCURVE",
"269 401 CURVE SMOOTH",
"319.667 401 OFFCURVE",
"345 373.667 OFFCURVE",
"345 319 CURVE SMOOTH",
"345 202 LINE SMOOTH",
"345 127.333 OFFCURVE",
"330.333 98 OFFCURVE",
"269 98 CURVE SMOOTH"
);
}
);
width = 494;
}
);
leftKerningGroup = p;
rightKerningGroup = o;
unicode = 0070;
},
{
glyphname = thorn;
lastChange = "2018-08-14 16:08:29 +0000";
layers = (
{
anchors = (
{
name = bottom;
position = "{244, 0}";
},
{
name = top;
position = "{244, 501}";
}
);
layerId = "BADA37E3-C95E-4946-BA48-1F986F6D85A7";
paths = (
{
closed = 1;
nodes = (
"134 -188 LINE",
"134 42 LINE",
"165 6 OFFCURVE",
"217 -12 OFFCURVE",
"269 -12 CURVE SMOOTH",
"381 -12 OFFCURVE",
"455 55 OFFCURVE",
"455 176 CURVE SMOOTH",
"455 315 LINE SMOOTH",
"455 429.667 OFFCURVE",
"387 509 OFFCURVE",
"271 509 CURVE SMOOTH",
"215 509 OFFCURVE",
"169 488 OFFCURVE",
"134 447 CURVE",
"134 700 LINE",
"78 700 LINE",
"78 -210 LINE"
);
},
{
closed = 1;
nodes = (
"199 37 OFFCURVE",
"134 79 OFFCURVE",
"134 166 CURVE SMOOTH",
"134 324 LINE",
"138 414 OFFCURVE",
"204 460 OFFCURVE",
"269 460 CURVE SMOOTH",
"334 460 OFFCURVE",
"399 413 OFFCURVE",
"399 319 CURVE SMOOTH",
"399 166 LINE SMOOTH",
"399 81 OFFCURVE",
"331 37 OFFCURVE",
"265 37 CURVE SMOOTH"
);
}
);
width = 488;
},
{
anchors = (
{
name = bottom;
position = "{248, 0}";
},
{
name = top;
position = "{248, 501}";
}
);
layerId = "77B00D75-0619-4FB7-8D17-EB9FCD2DF18B";
paths = (
{
closed = 1;
nodes = (
"97 -203 LINE",
"97 77 LINE",
"127 17.667 OFFCURVE",
"183.333 -12 OFFCURVE",
"266 -12 CURVE SMOOTH",
"378 -12 OFFCURVE",
"455 54.667 OFFCURVE",
"455 176 CURVE SMOOTH",
"455 314 LINE SMOOTH",
"455 430 OFFCURVE",
"388 509 OFFCURVE",
"252 509 CURVE SMOOTH",
"196 509 OFFCURVE",
"131.667 489 OFFCURVE",
"97 441 CURVE",
"97 700 LINE",
"78 700 LINE",
"78 -210 LINE"
);
},
{
closed = 1;
nodes = (
"163.667 7 OFFCURVE",
"97 64 OFFCURVE",
"97 156 CURVE SMOOTH",
"97 397 LINE",
"115 452 OFFCURVE",
"173 490 OFFCURVE",
"253 490 CURVE SMOOTH",
"354 490 OFFCURVE",
"436 441 OFFCURVE",
"436 318 CURVE SMOOTH",
"436 166 LINE SMOOTH",
"436 73 OFFCURVE",
"371 7 OFFCURVE",
"269 7 CURVE SMOOTH"
);
}
);
width = 495;
},
{
anchors = (
{
name = bottom;
position = "{247, 0}";
},
{
name = top;
position = "{247, 501}";
}
);
layerId = "8A94633D-DA21-409C-A8B7-00A83612E8B2";
paths = (
{
closed = 1;
nodes = (
"188 -188 LINE",
"188 2 LINE",
"207 -6 OFFCURVE",
"239.535 -12 OFFCURVE",
"269 -12 CURVE SMOOTH",
"381 -12 OFFCURVE",
"455 54.667 OFFCURVE",
"455 176 CURVE SMOOTH",
"455 315 LINE SMOOTH",
"455 429.667 OFFCURVE",
"389 509 OFFCURVE",
"268 509 CURVE SMOOTH",
"235 509 OFFCURVE",
"209 503 OFFCURVE",
"187 490 CURVE",
"187 700 LINE",
"78 700 LINE",
"78 -210 LINE"
);
},
{
closed = 1;
nodes = (
"215 98 OFFCURVE",
"188 128 OFFCURVE",
"188 188 CURVE SMOOTH",
"188 324 LINE SMOOTH",
"188 372 OFFCURVE",
"214.333 401 OFFCURVE",
"269 401 CURVE SMOOTH",
"319.667 401 OFFCURVE",
"345 373.667 OFFCURVE",
"345 319 CURVE SMOOTH",
"345 202 LINE SMOOTH",
"345 127.333 OFFCURVE",
"330.333 98 OFFCURVE",
"269 98 CURVE SMOOTH"
);
}
);
width = 494;
}
);
unicode = 00FE;
},
{
glyphname = q;
lastChange = "2018-08-14 15:39:31 +0000";
layers = (
{
anchors = (
{
name = bottom;
position = "{224, 0}";
},
{
name = top;
position = "{224, 501}";
}
);
layerId = "BADA37E3-C95E-4946-BA48-1F986F6D85A7";
paths = (
{
closed = 1;
nodes = (
"414 501 LINE",
"358 501 LINE",
"363 448 LINE",
"326 489 OFFCURVE",
"271 509 OFFCURVE",
"218 509 CURVE SMOOTH",
"110 509 OFFCURVE",
"37 433 OFFCURVE",
"37 314 CURVE SMOOTH",
"37 176 LINE SMOOTH",
"37 54.667 OFFCURVE",
"110.167 -12 OFFCURVE",
"225.5 -12 CURVE SMOOTH",
"283.167 -12 OFFCURVE",
"327.333 6 OFFCURVE",
"358 42 CURVE",
"358 -188 LINE",
"414 -210 LINE"
);
},
{
closed = 1;
nodes = (
"161 37 OFFCURVE",
"93 81 OFFCURVE",
"93 166 CURVE SMOOTH",
"93 318 LINE SMOOTH",
"93 413 OFFCURVE",
"158 460 OFFCURVE",
"224 460 CURVE SMOOTH",
"289 460 OFFCURVE",
"354 414 OFFCURVE",
"358 324 CURVE",
"358 166 LINE SMOOTH",
"358 79 OFFCURVE",
"293 37 OFFCURVE",
"227 37 CURVE SMOOTH"
);
}
);
width = 448;
},
{
anchors = (
{
name = bottom;
position = "{228, 0}";
},
{
name = top;
position = "{230, 501}";
}
);
background = {
paths = (
{
closed = 1;
nodes = (
"414 501 LINE",
"395 501 LINE",
"395 441 LINE",
"369 477 OFFCURVE",
"282 509 OFFCURVE",
"240 509 QCURVE",
"138 509 OFFCURVE",
"37 401 OFFCURVE",
"37 314 QCURVE",
"37 176 LINE",
"37 85 OFFCURVE",
"142 -12 OFFCURVE",
"226 -12 QCURVE",
"350 -12 OFFCURVE",
"395 77 QCURVE",
"395 -203 LINE",
"414 -210 LINE"
);
},
{
closed = 1;
nodes = (
"56 109 OFFCURVE",
"56 166 QCURVE",
"56 318 LINE",
"56 366 OFFCURVE",
"92 437 OFFCURVE",
"150 474 OFFCURVE",
"209 490 OFFCURVE",
"280 490 OFFCURVE",
"322 474 QCURVE",
"346 464 OFFCURVE",
"386 425 OFFCURVE",
"395 397 QCURVE",
"395 156 LINE",
"395 87 OFFCURVE",
"302 7 OFFCURVE",
"134 7 OFFCURVE",
"84 72 QCURVE"
);
}
);
};
layerId = "77B00D75-0619-4FB7-8D17-EB9FCD2DF18B";
paths = (
{
closed = 1;
nodes = (
"414 501 LINE",
"395 501 LINE",
"395 441 LINE",
"360.333 489 OFFCURVE",
"299 509 OFFCURVE",
"236 509 CURVE SMOOTH",
"104 509 OFFCURVE",
"37 430 OFFCURVE",
"37 314 CURVE SMOOTH",
"37 176 LINE SMOOTH",
"37 54.667 OFFCURVE",
"112 -12 OFFCURVE",
"226 -12 CURVE SMOOTH",
"308.667 -12 OFFCURVE",
"365 17.667 OFFCURVE",
"395 77 CURVE",
"395 -203 LINE",
"414 -210 LINE"
);
},
{
closed = 1;
nodes = (
"126 7 OFFCURVE",
"56 65 OFFCURVE",
"56 166 CURVE SMOOTH",
"56 316 LINE SMOOTH",
"56 412 OFFCURVE",
"117 490 OFFCURVE",
"236 490 CURVE SMOOTH",
"299 490 OFFCURVE",
"373 467 OFFCURVE",
"395 397 CURVE",
"395 156 LINE SMOOTH",
"395 64 OFFCURVE",
"328 7 OFFCURVE",
"226 7 CURVE SMOOTH"
);
}
);
width = 448;
},
{
anchors = (
{
name = bottom;
position = "{224, 0}";
},
{
name = top;
position = "{224, 501}";
}
);
layerId = "8A94633D-DA21-409C-A8B7-00A83612E8B2";
paths = (
{
closed = 1;
nodes = (
"414 501 LINE",
"312 501 LINE",
"305 487 LINE",
"280 503 OFFCURVE",
"258 509 OFFCURVE",
"225 509 CURVE SMOOTH",
"103 509 OFFCURVE",
"37 428.667 OFFCURVE",
"37 314 CURVE SMOOTH",
"37 176 LINE SMOOTH",
"37 54.667 OFFCURVE",
"111 -12 OFFCURVE",
"223 -12 CURVE SMOOTH",
"251.418 -12 OFFCURVE",
"285.921 -6.54 OFFCURVE",
"305 3 CURVE",
"305 -188 LINE",
"414 -210 LINE"
);
},
{
closed = 1;
nodes = (
"171.667 98 OFFCURVE",
"146 125 OFFCURVE",
"146 179 CURVE SMOOTH",
"146 303 LINE SMOOTH",
"146 368.333 OFFCURVE",
"171.667 401 OFFCURVE",
"223 401 CURVE SMOOTH",
"277.667 401 OFFCURVE",
"305 371.667 OFFCURVE",
"305 313 CURVE SMOOTH",
"305 193 LINE SMOOTH",
"305 133 OFFCURVE",
"289.667 98 OFFCURVE",
"223 98 CURVE SMOOTH"
);
}
);
width = 448;
}
);
leftKerningGroup = o;
rightKerningGroup = q;
unicode = 0071;
},
{
glyphname = r;
lastChange = "2018-08-14 17:50:04 +0000";
layers = (
{
anchors = (
{
name = bottom;
position = "{89, 0}";
},
{
name = top;
position = "{176, 501}";
}
);
layerId = "BADA37E3-C95E-4946-BA48-1F986F6D85A7";
paths = (
{
closed = 1;
nodes = (
"117 0 LINE",
"117 392 LINE SMOOTH",
"117 441 OFFCURVE",
"169 459 OFFCURVE",
"225 459 CURVE SMOOTH",
"249 459 OFFCURVE",
"274 456 OFFCURVE",
"296 450 CURVE",
"311 500 LINE",
"285 506 OFFCURVE",
"260.667 509 OFFCURVE",
"238 509 CURVE SMOOTH",
"186.667 509 OFFCURVE",
"145.333 494.667 OFFCURVE",
"114 466 CURVE",
"117 501 LINE",
"61 501 LINE",
"61 0 LINE"
);
}
);
width = 333;
},
{
anchors = (
{
name = bottom;
position = "{71, 0}";
},
{
name = top;
position = "{179, 501}";
}
);
layerId = "77B00D75-0619-4FB7-8D17-EB9FCD2DF18B";
paths = (
{
closed = 1;
nodes = (
"80 0 LINE",
"80 399 LINE SMOOTH",
"80 454 OFFCURVE",
"164 491 OFFCURVE",
"232 491 CURVE SMOOTH",
"255.167 491 OFFCURVE",
"280.333 487.333 OFFCURVE",
"305 480 CURVE",
"309 500 LINE",
"282 506 OFFCURVE",
"258 509 OFFCURVE",
"234 509 CURVE SMOOTH",
"170.333 509 OFFCURVE",
"118.667 488.667 OFFCURVE",
"80 448 CURVE",
"80 501 LINE",
"61 501 LINE",
"61 0 LINE"
);
}
);
width = 332;
},
{
anchors = (
{
name = bottom;
position = "{116, 0}";
},
{
name = top;
position = "{192, 501}";
}
);
layerId = "8A94633D-DA21-409C-A8B7-00A83612E8B2";
paths = (
{
closed = 1;
nodes = (
"171 0 LINE",
"171 322 LINE SMOOTH",
"171 374 OFFCURVE",
"211 404 OFFCURVE",
"259 404 CURVE SMOOTH",
"278 404 OFFCURVE",
"296 399 OFFCURVE",
"315 390 CURVE",
"341 497 LINE",
"306 505 OFFCURVE",
"285 509 OFFCURVE",
"258 509 CURVE SMOOTH",
"228 509 OFFCURVE",
"202 503 OFFCURVE",
"171 485 CURVE",
"159 501 LINE",
"61 501 LINE",
"61 0 LINE"
);
}
);
width = 380;
}
);
leftKerningGroup = n;
rightKerningGroup = r;
unicode = 0072;
},
{
glyphname = s;
lastChange = "2018-08-14 15:59:09 +0000";
layers = (
{
anchors = (
{
name = bottom;
position = "{219, 0}";
},
{
name = top;
position = "{216, 501}";
}
);
layerId = "BADA37E3-C95E-4946-BA48-1F986F6D85A7";
paths = (
{
closed = 1;
nodes = (
"308 -15 OFFCURVE",
"396 31 OFFCURVE",
"396 122 CURVE SMOOTH",
"396 225 OFFCURVE",
"308 255 OFFCURVE",
"228 280 CURVE SMOOTH",
"162 301 OFFCURVE",
"103 320 OFFCURVE",
"103 379 CURVE SMOOTH",
"103 431 OFFCURVE",
"151 464 OFFCURVE",
"219 464 CURVE SMOOTH",
"254 464 OFFCURVE",
"288 457 OFFCURVE",
"312 438 CURVE",
"331 484 LINE",
"300 502 OFFCURVE",
"264 513 OFFCURVE",
"219 513 CURVE SMOOTH",
"98 513 OFFCURVE",
"47 446 OFFCURVE",
"47 375.5 CURVE SMOOTH",
"47 286 OFFCURVE",
"127 259 OFFCURVE",
"204 234 CURVE SMOOTH",
"273 210 OFFCURVE",
"340 186 OFFCURVE",
"340 122 CURVE SMOOTH",
"340 64 OFFCURVE",
"284 37 OFFCURVE",
"225 37 CURVE SMOOTH",
"163 37 OFFCURVE",
"97 67 OFFCURVE",
"89 127 CURVE",
"36 127 LINE",
"39 31 OFFCURVE",
"130 -15 OFFCURVE",
"219 -15 CURVE SMOOTH"
);
}
);
width = 431;
},
{
anchors = (
{
name = bottom;
position = "{218, 0}";
},
{
name = top;
position = "{216, 501}";
}
);
background = {
paths = (
{
closed = 1;
nodes = (
"38 67 OFFCURVE",
"136 -15 OFFCURVE",
"307 -15 OFFCURVE",
"396 66 OFFCURVE",
"396 173 OFFCURVE",
"332 236 OFFCURVE",
"239 268 OFFCURVE",
"145 295 OFFCURVE",
"72 340 OFFCURVE",
"72 385 QCURVE",
"72 436 OFFCURVE",
"156 493 OFFCURVE",
"274 493 OFFCURVE",
"322 466 QCURVE",
"331 483 LINE",
"318 490 LINE",
"306 498 OFFCURVE",
"250 513 OFFCURVE",
"219 513 QCURVE",
"128 513 OFFCURVE",
"53 428 OFFCURVE",
"53 383 QCURVE",
"53 374 OFFCURVE",
"54 365 QCURVE",
"63 299 OFFCURVE",
"176 265 QCURVE",
"223 251 OFFCURVE",
"314 222 OFFCURVE",
"377 166 OFFCURVE",
"377 72 OFFCURVE",
"291 4 OFFCURVE",
"143 4 OFFCURVE",
"59 76 OFFCURVE",
"55 127 QCURVE",
"36 127 LINE"
);
}
);
};
layerId = "77B00D75-0619-4FB7-8D17-EB9FCD2DF18B";
paths = (
{
closed = 1;
nodes = (
"317 -15 OFFCURVE",
"396 33 OFFCURVE",
"396 123 CURVE SMOOTH",
"396 223 OFFCURVE",
"305 249 OFFCURVE",
"220 274 CURVE SMOOTH",
"144 295 OFFCURVE",
"72 316 OFFCURVE",
"72 385 CURVE SMOOTH",
"72 453 OFFCURVE",
"136.333 493 OFFCURVE",
"215 493 CURVE SMOOTH",
"254.333 493 OFFCURVE",
"290 484 OFFCURVE",
"322 466 CURVE",
"331 483 LINE",
"302 501 OFFCURVE",
"262 513 OFFCURVE",
"216 513 CURVE SMOOTH",
"97.667 513 OFFCURVE",
"53 443 OFFCURVE",
"53 383 CURVE SMOOTH",
"53 300 OFFCURVE",
"134 277 OFFCURVE",
"215 253 CURVE SMOOTH",
"296 229 OFFCURVE",
"377 206 OFFCURVE",
"377 122 CURVE SMOOTH",
"377 57 OFFCURVE",
"318 4 OFFCURVE",
"218 4 CURVE SMOOTH",
"135 4 OFFCURVE",
"58 46 OFFCURVE",
"55 127 CURVE",
"36 127 LINE",
"39 31 OFFCURVE",
"124 -15 OFFCURVE",
"219 -15 CURVE SMOOTH"
);
}
);
width = 431;
},
{
anchors = (
{
name = bottom;
position = "{221, 0}";
},
{
name = top;
position = "{213, 501}";
}
);
background = {
paths = (
{
closed = 1;
nodes = (
"312 -15 OFFCURVE",
"406 76 OFFCURVE",
"406 141 QCURVE",
"406 191 OFFCURVE",
"359 263 OFFCURVE",
"291 299 OFFCURVE",
"223 323 OFFCURVE",
"170 348 OFFCURVE",
"167 363 QCURVE",
"167 370 OFFCURVE",
"164 389 OFFCURVE",
"191 405 OFFCURVE",
"219 405 QCURVE",
"276 405 OFFCURVE",
"299 382 QCURVE",
"331 484 LINE",
"319 491 LINE",
"307 498 OFFCURVE",
"251 513 OFFCURVE",
"219 513 QCURVE",
"128 513 OFFCURVE",
"86 467 QCURVE",
"47 426 OFFCURVE",
"47 377 QCURVE",
"47 371 OFFCURVE",
"48 365 QCURVE",
"53 317 OFFCURVE",
"106 255 OFFCURVE",
"175 228 OFFCURVE",
"243 207 OFFCURVE",
"290 172 OFFCURVE",
"290 143 QCURVE",
"290 121 OFFCURVE",
"254 88 OFFCURVE",
"221 88 QCURVE",
"183 88 OFFCURVE",
"146 120 OFFCURVE",
"146 138 QCURVE",
"36 127 LINE",
"38 67 OFFCURVE",
"136 -15 OFFCURVE",
"221 -15 QCURVE"
);
}
);
};
layerId = "8A94633D-DA21-409C-A8B7-00A83612E8B2";
paths = (
{
closed = 1;
nodes = (
"342.333 -15 OFFCURVE",
"406 54.333 OFFCURVE",
"406 144 CURVE SMOOTH",
"406 256 OFFCURVE",
"318 288 OFFCURVE",
"249 312 CURVE SMOOTH",
"203 328 OFFCURVE",
"165 342 OFFCURVE",
"165 374 CURVE SMOOTH",
"165 394 OFFCURVE",
"181 405 OFFCURVE",
"222 405 CURVE SMOOTH",
"257 405 OFFCURVE",
"283.667 397.333 OFFCURVE",
"299 382 CURVE",
"331 484 LINE",
"297 504 OFFCURVE",
"260 513 OFFCURVE",
"215 513 CURVE SMOOTH",
"123 513 OFFCURVE",
"47 474 OFFCURVE",
"47 377 CURVE SMOOTH",
"47 273 OFFCURVE",
"126 246 OFFCURVE",
"194 223 CURVE SMOOTH",
"245 206 OFFCURVE",
"290 190 OFFCURVE",
"290 145 CURVE SMOOTH",
"290 114 OFFCURVE",
"265 88 OFFCURVE",
"220 88 CURVE SMOOTH",
"173 88 OFFCURVE",
"148 114 OFFCURVE",
"146 138 CURVE",
"36 127 LINE",
"38.667 47 OFFCURVE",
"107.667 -15 OFFCURVE",
"221 -15 CURVE SMOOTH"
);
}
);
width = 431;
}
);
leftKerningGroup = s;
rightKerningGroup = s;
unicode = 0073;
},
{
glyphname = germandbls;
lastChange = "2018-08-10 22:04:16 +0000";
layers = (
{
background = {
paths = (
{
closed = 1;
nodes = (
"349 -11 OFFCURVE",
"385 2 QCURVE",
"441 22 OFFCURVE",
"463 73 QCURVE",
"477 107 OFFCURVE",
"477 141 QCURVE",
"477 211 OFFCURVE",
"413 279 QCURVE",
"390 304 OFFCURVE",
"347 341 QCURVE",
"332 354 OFFCURVE",
"287 395 OFFCURVE",
"259 448 OFFCURVE",
"276 477 QCURVE",
"306 477 LINE",
"343 510 OFFCURVE",
"343 618 OFFCURVE",
"277 701 OFFCURVE",
"147 701 OFFCURVE",
"78 614 OFFCURVE",
"78 537 QCURVE",
"78 0 LINE",
"135 0 LINE",
"135 541 LINE",
"135 647 OFFCURVE",
"218 647 QCURVE",
"257 647 OFFCURVE",
"276 612 QCURVE",
"288 591 OFFCURVE",
"288 556 OFFCURVE",
"282 542 QCURVE",
"269 507 OFFCURVE",
"228 507 QCURVE",
"211 477 OFFCURVE",
"211 423 OFFCURVE",
"218 404 QCURVE",
"236 362 OFFCURVE",
"300 309 QCURVE",
"335 279 OFFCURVE",
"371 243 QCURVE",
"419 194 OFFCURVE",
"419 144 QCURVE",
"419 119 OFFCURVE",
"407 94 QCURVE",
"383 44 OFFCURVE",
"307 44 QCURVE",
"243 44 OFFCURVE",
"201 85 QCURVE",
"172 37 LINE",
"229 -11 OFFCURVE",
"320 -11 QCURVE"
);
}
);
};
layerId = "BADA37E3-C95E-4946-BA48-1F986F6D85A7";
paths = (
{
closed = 1;
nodes = (
"408 -11 OFFCURVE",
"477 47 OFFCURVE",
"477 141 CURVE SMOOTH",
"477 231 OFFCURVE",
"410 286 OFFCURVE",
"352 333 CURVE SMOOTH",
"308 369 OFFCURVE",
"268 400 OFFCURVE",
"268 438 CURVE SMOOTH",
"268 447 OFFCURVE",
"270 456 OFFCURVE",
"275 466 CURVE",
"313 480 OFFCURVE",
"343 511 OFFCURVE",
"343 572 CURVE SMOOTH",
"343 645 OFFCURVE",
"298 701 OFFCURVE",
"212 701 CURVE SMOOTH",
"138 701 OFFCURVE",
"78 655 OFFCURVE",
"78 537 CURVE SMOOTH",
"78 0 LINE",
"135 0 LINE",
"135 541 LINE SMOOTH",
"135 611.667 OFFCURVE",
"163 647 OFFCURVE",
"214 647 CURVE SMOOTH",
"262 647 OFFCURVE",
"288 613 OFFCURVE",
"288 573.5 CURVE SMOOTH",
"288 544 OFFCURVE",
"274 506 OFFCURVE",
"226 506 CURVE",
"216 481 OFFCURVE",
"211 459 OFFCURVE",
"211 438 CURVE SMOOTH",
"211 371 OFFCURVE",
"263 330 OFFCURVE",
"315 288 CURVE SMOOTH",
"367 248 OFFCURVE",
"419 207 OFFCURVE",
"419 144 CURVE SMOOTH",
"419 91 OFFCURVE",
"387 44 OFFCURVE",
"307 44 CURVE SMOOTH",
"264.333 44 OFFCURVE",
"229 57.667 OFFCURVE",
"201 85 CURVE",
"172 37 LINE",
"210 5 OFFCURVE",
"259.333 -11 OFFCURVE",
"320 -11 CURVE SMOOTH"
);
}
);
width = 511;
},
{
layerId = "77B00D75-0619-4FB7-8D17-EB9FCD2DF18B";
paths = (
{
closed = 1;
nodes = (
"427 -11 OFFCURVE",
"477 50 OFFCURVE",
"477 125 CURVE SMOOTH",
"477 216 OFFCURVE",
"409 272 OFFCURVE",
"336 322 CURVE SMOOTH",
"273 365 OFFCURVE",
"229 402 OFFCURVE",
"229 451 CURVE SMOOTH",
"229 462 OFFCURVE",
"231 475 OFFCURVE",
"236 487 CURVE",
"295 500 OFFCURVE",
"324 541 OFFCURVE",
"324 593 CURVE SMOOTH",
"324 666 OFFCURVE",
"269 701 OFFCURVE",
"203 701 CURVE SMOOTH",
"121 701 OFFCURVE",
"78 646 OFFCURVE",
"78 537 CURVE SMOOTH",
"78 0 LINE",
"97 0 LINE",
"97 541 LINE SMOOTH",
"97 635 OFFCURVE",
"133 682 OFFCURVE",
"203 682 CURVE SMOOTH",
"263 682 OFFCURVE",
"305 651 OFFCURVE",
"305 594 CURVE SMOOTH",
"305 548 OFFCURVE",
"281 510 OFFCURVE",
"223 502 CURVE",
"214 484 OFFCURVE",
"210 469 OFFCURVE",
"210 451 CURVE SMOOTH",
"210 386 OFFCURVE",
"267 346 OFFCURVE",
"327 304 CURVE SMOOTH",
"391 259 OFFCURVE",
"456 209 OFFCURVE",
"456 128 CURVE SMOOTH",
"456 61 OFFCURVE",
"407 9 OFFCURVE",
"317 9 CURVE SMOOTH",
"271 9 OFFCURVE",
"220 23 OFFCURVE",
"184 56 CURVE",
"172 37 LINE",
"210 5 OFFCURVE",
"260 -11 OFFCURVE",
"317 -11 CURVE SMOOTH"
);
}
);
width = 515;
},
{
layerId = "8A94633D-DA21-409C-A8B7-00A83612E8B2";
paths = (
{
closed = 1;
nodes = (
"449 -13 OFFCURVE",
"525 50 OFFCURVE",
"525 154 CURVE SMOOTH",
"525 243 OFFCURVE",
"468 284 OFFCURVE",
"416 322 CURVE SMOOTH",
"374 353 OFFCURVE",
"332 376 OFFCURVE",
"332 425 CURVE SMOOTH",
"332 437 OFFCURVE",
"334 447 OFFCURVE",
"339 457 CURVE",
"376 473 OFFCURVE",
"398 505 OFFCURVE",
"398 557 CURVE SMOOTH",
"398 639 OFFCURVE",
"344 701 OFFCURVE",
"245 701 CURVE SMOOTH",
"140 701 OFFCURVE",
"78 636 OFFCURVE",
"78 519 CURVE SMOOTH",
"78 0 LINE",
"187 0 LINE",
"187 506 LINE SMOOTH",
"187 566 OFFCURVE",
"207 596 OFFCURVE",
"246 596 CURVE SMOOTH",
"276 596 OFFCURVE",
"290 577 OFFCURVE",
"290 556 CURVE SMOOTH",
"290 535 OFFCURVE",
"275 507 OFFCURVE",
"241 507 CURVE",
"224 477 OFFCURVE",
"219 447 OFFCURVE",
"219 423 CURVE SMOOTH",
"219 348 OFFCURVE",
"269 298 OFFCURVE",
"329 256 CURVE SMOOTH",
"372 226 OFFCURVE",
"409 195 OFFCURVE",
"409 154 CURVE SMOOTH",
"409 122 OFFCURVE",
"387 93 OFFCURVE",
"352 93 CURVE SMOOTH",
"320 93 OFFCURVE",
"286 109 OFFCURVE",
"256 138 CURVE",
"208 37 LINE",
"249 3 OFFCURVE",
"309 -13 OFFCURVE",
"350 -13 CURVE SMOOTH"
);
}
);
width = 564;
}
);
unicode = 00DF;
},
{
glyphname = t;
lastChange = "2018-08-14 19:05:26 +0000";
layers = (
{
anchors = (
{
name = bottom;
position = "{122, 0}";
},
{
name = center;
position = "{95, 331}";
},
{
name = top;
position = "{72, 694}";
},
{
name = topright;
position = "{193, 694}";
}
);
layerId = "BADA37E3-C95E-4946-BA48-1F986F6D85A7";
paths = (
{
closed = 1;
nodes = (
"166 30 LINE",
"122 44.667 OFFCURVE",
"100 78.667 OFFCURVE",
"100 132 CURVE SMOOTH",
"100 448 LINE",
"196 448 LINE",
"220 501 LINE",
"100 501 LINE",
"100 700 LINE",
"44 700 LINE",
"44 132 LINE SMOOTH",
"44 53.333 OFFCURVE",
"75.333 8.333 OFFCURVE",
"150 -13 CURVE"
);
}
);
width = 243;
},
{
anchors = (
{
name = bottom;
position = "{131, 0}";
},
{
name = center;
position = "{90, 349}";
},
{
name = top;
position = "{54, 694}";
},
{
name = topright;
position = "{163, 694}";
}
);
layerId = "77B00D75-0619-4FB7-8D17-EB9FCD2DF18B";
paths = (
{
closed = 1;
nodes = (
"156 5 LINE",
"89.333 26.333 OFFCURVE",
"63 58.667 OFFCURVE",
"63 132 CURVE SMOOTH",
"63 482 LINE",
"211 482 LINE",
"220 501 LINE",
"63 501 LINE",
"63 700 LINE",
"44 700 LINE",
"44 132 LINE SMOOTH",
"44 53.333 OFFCURVE",
"75.333 8.333 OFFCURVE",
"150 -13 CURVE"
);
}
);
width = 243;
},
{
anchors = (
{
name = bottom;
position = "{137, 0}";
},
{
name = center;
position = "{116, 306}";
},
{
name = top;
position = "{100, 694}";
},
{
name = topright;
position = "{251, 694}";
}
);
layerId = "8A94633D-DA21-409C-A8B7-00A83612E8B2";
paths = (
{
closed = 1;
nodes = (
"229 75 LINE",
"182.333 75 OFFCURVE",
"156 86.667 OFFCURVE",
"156 132 CURVE SMOOTH",
"156 398 LINE",
"227 398 LINE",
"251 501 LINE",
"156 501 LINE",
"156 700 LINE",
"44 700 LINE",
"44 132 LINE SMOOTH",
"44 37.333 OFFCURVE",
"94.667 -11 OFFCURVE",
"196 -13 CURVE"
);
}
);
width = 274;
}
);
leftKerningGroup = t;
rightKerningGroup = t;
unicode = 0074;
},
{
glyphname = u;
lastChange = "2018-08-14 13:52:17 +0000";
layers = (
{
anchors = (
{
name = bottom;
position = "{224, 0}";
},
{
name = ogonek;
position = "{409, 0}";
},
{
name = top;
position = "{224, 501}";
},
{
name = topright;
position = "{427, 501}";
}
);
layerId = "BADA37E3-C95E-4946-BA48-1F986F6D85A7";
paths = (
{
closed = 1;
nodes = (
"283 -11 OFFCURVE",
"325 10 OFFCURVE",
"358 51 CURVE",
"354 0 LINE",
"409 0 LINE",
"409 501 LINE",
"353 501 LINE",
"353 165 LINE SMOOTH",
"353 81 OFFCURVE",
"310 39 OFFCURVE",
"224 39 CURVE SMOOTH",
"142.667 39 OFFCURVE",
"92 79.667 OFFCURVE",
"92 165 CURVE SMOOTH",
"92 501 LINE",
"36 501 LINE",
"36 172 LINE SMOOTH",
"36 50 OFFCURVE",
"110 -11 OFFCURVE",
"220 -11 CURVE SMOOTH"
);
}
);
width = 447;
},
{
anchors = (
{
name = bottom;
position = "{224, 0}";
},
{
name = ogonek;
position = "{409, 0}";
},
{
name = top;
position = "{224, 501}";
},
{
name = topright;
position = "{427, 501}";
}
);
layerId = "77B00D75-0619-4FB7-8D17-EB9FCD2DF18B";
paths = (
{
closed = 1;
nodes = (
"296 -11 OFFCURVE",
"355 19 OFFCURVE",
"390 78 CURVE",
"390 0 LINE",
"409 0 LINE",
"409 501 LINE",
"390 501 LINE",
"390 160 LINE SMOOTH",
"390 68 OFFCURVE",
"323.167 9 OFFCURVE",
"214.5 9 CURVE SMOOTH",
"105.833 9 OFFCURVE",
"55 68 OFFCURVE",
"55 176 CURVE SMOOTH",
"55 501 LINE",
"36 501 LINE",
"36 176 LINE SMOOTH",
"36 51.333 OFFCURVE",
"95 -11 OFFCURVE",
"214 -11 CURVE SMOOTH"
);
}
);
width = 447;
},
{
anchors = (
{
name = bottom;
position = "{224, 0}";
},
{
name = ogonek;
position = "{409, 0}";
},
{
name = top;
position = "{224, 501}";
},
{
name = topright;
position = "{427, 501}";
}
);
layerId = "8A94633D-DA21-409C-A8B7-00A83612E8B2";
paths = (
{
closed = 1;
nodes = (
"248 -11 OFFCURVE",
"275 1 OFFCURVE",
"299 14 CURVE",
"306 0 LINE",
"409 0 LINE",
"409 501 LINE",
"299 501 LINE",
"299 192 LINE SMOOTH",
"299 113 OFFCURVE",
"269 98 OFFCURVE",
"221 98 CURVE SMOOTH",
"173 98 OFFCURVE",
"146 119 OFFCURVE",
"146 188 CURVE SMOOTH",
"146 501 LINE",
"36 501 LINE",
"36 172 LINE SMOOTH",
"36 50 OFFCURVE",
"94 -11 OFFCURVE",
"202 -11 CURVE SMOOTH"
);
}
);
width = 447;
}
);
leftKerningGroup = u;
rightKerningGroup = u;
unicode = 0075;
},
{
glyphname = v;
lastChange = "2018-08-14 15:39:53 +0000";
layers = (
{
anchors = (
{
name = bottom;
position = "{212, 0}";
},
{
name = top;
position = "{212, 501}";
}
);
layerId = "BADA37E3-C95E-4946-BA48-1F986F6D85A7";
paths = (
{
closed = 1;
nodes = (
"248 0 LINE",
"403 501 LINE",
"344 501 LINE",
"210 58 LINE",
"77 501 LINE",
"18 501 LINE",
"171 0 LINE"
);
}
);
width = 424;
},
{
anchors = (
{
name = bottom;
position = "{211, 0}";
},
{
name = top;
position = "{211, 501}";
}
);
layerId = "77B00D75-0619-4FB7-8D17-EB9FCD2DF18B";
paths = (
{
closed = 1;
nodes = (
"217 0 LINE",
"403 501 LINE",
"384 501 LINE",
"210 37 LINE",
"37 501 LINE",
"18 501 LINE",
"204 0 LINE"
);
}
);
width = 430;
},
{
anchors = (
{
name = bottom;
position = "{227, 0}";
},
{
name = top;
position = "{227, 501}";
}
);
layerId = "8A94633D-DA21-409C-A8B7-00A83612E8B2";
paths = (
{
closed = 1;
nodes = (
"278 0 LINE",
"435 501 LINE",
"316 501 LINE",
"225 195 LINE",
"132 501 LINE",
"12 501 LINE",
"172 0 LINE"
);
}
);
width = 453;
}
);
leftKerningGroup = v;
rightKerningGroup = v;
unicode = 0076;
},
{
glyphname = w;
lastChange = "2018-08-14 15:40:06 +0000";
layers = (
{
anchors = (
{
name = bottom;
position = "{350, 0}";
},
{
name = top;
position = "{350, 501}";
}
);
layerId = "BADA37E3-C95E-4946-BA48-1F986F6D85A7";
paths = (
{
closed = 1;
nodes = (
"248 0 LINE",
"350 405 LINE",
"451 0 LINE",
"528 0 LINE",
"683 501 LINE",
"624 501 LINE",
"490 58 LINE",
"380 501 LINE",
"323 501 LINE",
"210 58 LINE",
"77 501 LINE",
"18 501 LINE",
"171 0 LINE"
);
}
);
width = 704;
},
{
anchors = (
{
name = bottom;
position = "{332, 0}";
},
{
name = top;
position = "{332, 501}";
}
);
layerId = "77B00D75-0619-4FB7-8D17-EB9FCD2DF18B";
paths = (
{
closed = 1;
nodes = (
"199 0 LINE",
"332 455 LINE",
"466 0 LINE",
"479 0 LINE",
"647 501 LINE",
"627 501 LINE",
"473 38 LINE",
"337 501 LINE",
"326 501 LINE",
"191 37 LINE",
"38 501 LINE",
"18 501 LINE",
"187 0 LINE"
);
}
);
width = 697;
},
{
anchors = (
{
name = bottom;
position = "{354, 0}";
},
{
name = top;
position = "{354, 501}";
}
);
layerId = "8A94633D-DA21-409C-A8B7-00A83612E8B2";
paths = (
{
closed = 1;
nodes = (
"280 0 LINE",
"353 267 LINE",
"425 0 LINE",
"530 0 LINE",
"692 501 LINE",
"574 501 LINE",
"492 195 LINE",
"408 501 LINE",
"304 501 LINE",
"223 195 LINE",
"132 501 LINE",
"12 501 LINE",
"173 0 LINE"
);
}
);
width = 710;
}
);
leftKerningGroup = v;
rightKerningGroup = v;
unicode = 0077;
},
{
glyphname = x;
lastChange = "2018-08-14 15:40:18 +0000";
layers = (
{
anchors = (
{
name = bottom;
position = "{267, 0}";
},
{
name = top;
position = "{267, 501}";
}
);
layerId = "BADA37E3-C95E-4946-BA48-1F986F6D85A7";
paths = (
{
closed = 1;
nodes = (
"144 0 LINE",
"267 197 LINE",
"390 0 LINE",
"456 0 LINE",
"299 249 LINE",
"456 501 LINE",
"393 501 LINE",
"267 301 LINE",
"141 501 LINE",
"78 501 LINE",
"234 249 LINE",
"78 0 LINE"
);
}
);
width = 489;
},
{
anchors = (
{
name = bottom;
position = "{223, 0}";
},
{
name = top;
position = "{223, 501}";
}
);
layerId = "77B00D75-0619-4FB7-8D17-EB9FCD2DF18B";
paths = (
{
closed = 1;
nodes = (
"77 0 LINE",
"224 234 LINE",
"365 0 LINE",
"386 0 LINE",
"236 250 LINE",
"389 501 LINE",
"367 501 LINE",
"224 266 LINE",
"84 501 LINE",
"61 501 LINE",
"213 251 LINE",
"55 0 LINE"
);
}
);
width = 443;
},
{
anchors = (
{
name = bottom;
position = "{286, 0}";
},
{
name = top;
position = "{286, 501}";
}
);
layerId = "8A94633D-DA21-409C-A8B7-00A83612E8B2";
paths = (
{
closed = 1;
nodes = (
"198 0 LINE",
"285 140 LINE",
"373 0 LINE",
"504 0 LINE",
"353 250 LINE",
"512 501 LINE",
"376 501 LINE",
"286 358 LINE",
"200 501 LINE",
"61 501 LINE",
"217 249 LINE",
"61 0 LINE"
);
}
);
width = 551;
}
);
leftKerningGroup = x;
rightKerningGroup = x;
unicode = 0078;
},
{
glyphname = y;
lastChange = "2018-08-14 14:24:53 +0000";
layers = (
{
anchors = (
{
name = bottom;
position = "{218, 0}";
},
{
name = top;
position = "{228, 501}";
}
);
layerId = "BADA37E3-C95E-4946-BA48-1F986F6D85A7";
paths = (
{
closed = 1;
nodes = (
"383 -186 OFFCURVE",
"412 -142.333 OFFCURVE",
"412 -61 CURVE SMOOTH",
"412 402 LINE SMOOTH",
"412 438.667 OFFCURVE",
"423.333 462 OFFCURVE",
"446 472 CURVE",
"431 510 LINE",
"361 487 OFFCURVE",
"358 446 OFFCURVE",
"358 363 CURVE SMOOTH",
"358 166 LINE SMOOTH",
"358 79 OFFCURVE",
"293 36 OFFCURVE",
"227 36 CURVE SMOOTH",
"159 36 OFFCURVE",
"91 80 OFFCURVE",
"91 166 CURVE SMOOTH",
"91 501 LINE",
"37 501 LINE",
"37 176 LINE SMOOTH",
"37 50.667 OFFCURVE",
"100.333 -12 OFFCURVE",
"227 -12 CURVE SMOOTH",
"290.333 -12 OFFCURVE",
"334.333 8.333 OFFCURVE",
"359 49 CURVE",
"359 -63 LINE SMOOTH",
"359 -115.667 OFFCURVE",
"336.667 -150.333 OFFCURVE",
"292 -167 CURVE",
"307 -210 LINE"
);
}
);
width = 480;
},
{
anchors = (
{
name = bottom;
position = "{211, 0}";
},
{
name = top;
position = "{225, 501}";
}
);
layerId = "77B00D75-0619-4FB7-8D17-EB9FCD2DF18B";
paths = (
{
closed = 1;
nodes = (
"383 -186 OFFCURVE",
"412 -142.333 OFFCURVE",
"412 -61 CURVE SMOOTH",
"412 404 LINE SMOOTH",
"412 450.667 OFFCURVE",
"421 480.667 OFFCURVE",
"439 494 CURVE",
"431 510 LINE",
"397.667 491.333 OFFCURVE",
"393 454.333 OFFCURVE",
"393 373 CURVE SMOOTH",
"393 166 LINE SMOOTH",
"393 74 OFFCURVE",
"324 7 OFFCURVE",
"216 7 CURVE SMOOTH",
"108 7 OFFCURVE",
"56 70 OFFCURVE",
"56 166 CURVE SMOOTH",
"56 501 LINE",
"37 501 LINE",
"37 176 LINE SMOOTH",
"37 52 OFFCURVE",
"102.667 -12 OFFCURVE",
"220 -12 CURVE SMOOTH",
"285.333 -12 OFFCURVE",
"358 15 OFFCURVE",
"394 87 CURVE",
"394 -63 LINE SMOOTH",
"394 -133 OFFCURVE",
"363 -176 OFFCURVE",
"301 -192 CURVE",
"307 -210 LINE"
);
}
);
width = 473;
},
{
anchors = (
{
name = bottom;
position = "{201, 0}";
},
{
name = top;
position = "{237, 501}";
}
);
layerId = "8A94633D-DA21-409C-A8B7-00A83612E8B2";
paths = (
{
closed = 1;
nodes = (
"375.333 -198 OFFCURVE",
"412 -147.667 OFFCURVE",
"412 -61 CURVE SMOOTH",
"412 347 LINE SMOOTH",
"412 380.333 OFFCURVE",
"433.333 410.667 OFFCURVE",
"472 420 CURVE",
"431 510 LINE",
"356.333 503.333 OFFCURVE",
"302 433.667 OFFCURVE",
"302 363 CURVE SMOOTH",
"302 206 LINE SMOOTH",
"302 119.333 OFFCURVE",
"278.667 98 OFFCURVE",
"220 98 CURVE SMOOTH",
"166.667 98 OFFCURVE",
"147 122 OFFCURVE",
"147 206 CURVE SMOOTH",
"147 501 LINE",
"37 501 LINE",
"37 176 LINE SMOOTH",
"37 52 OFFCURVE",
"102.667 -12 OFFCURVE",
"220 -12 CURVE SMOOTH",
"244.667 -12 OFFCURVE",
"272 -7.333 OFFCURVE",
"302 2 CURVE",
"302 -56 LINE SMOOTH",
"302 -102.667 OFFCURVE",
"269.667 -123 OFFCURVE",
"235 -123 CURVE",
"278 -210 LINE"
);
}
);
width = 506;
}
);
leftKerningGroup = u;
rightKerningGroup = y;
unicode = 0079;
},
{
glyphname = z;
lastChange = "2018-08-14 14:26:00 +0000";
layers = (
{
anchors = (
{
name = bottom;
position = "{244, 0}";
},
{
name = top;
position = "{244, 501}";
}
);
layerId = "BADA37E3-C95E-4946-BA48-1F986F6D85A7";
paths = (
{
closed = 1;
nodes = (
"445 0 LINE",
"445 51 LINE",
"147 51 LINE",
"424 451 LINE",
"424 501 LINE",
"87 501 LINE",
"87 450 LINE",
"353 450 LINE",
"78 50 LINE",
"78 0 LINE"
);
}
);
width = 478;
},
{
anchors = (
{
name = bottom;
position = "{269, 0}";
},
{
name = top;
position = "{250, 501}";
}
);
layerId = "77B00D75-0619-4FB7-8D17-EB9FCD2DF18B";
paths = (
{
closed = 1;
nodes = (
"445 0 LINE",
"445 19 LINE",
"101 19 LINE",
"424 482 LINE",
"424 501 LINE",
"87 501 LINE",
"87 482 LINE",
"401 482 LINE",
"78 19 LINE",
"78 0 LINE"
);
}
);
width = 484;
},
{
anchors = (
{
name = bottom;
position = "{259, 0}";
},
{
name = top;
position = "{260, 501}";
}
);
layerId = "8A94633D-DA21-409C-A8B7-00A83612E8B2";
paths = (
{
closed = 1;
nodes = (
"445 0 LINE",
"445 104 LINE",
"225 104 LINE",
"435 401 LINE",
"435 501 LINE",
"87 501 LINE",
"87 397 LINE",
"287 397 LINE",
"78 104 LINE",
"78 0 LINE"
);
}
);
width = 484;
}
);
leftKerningGroup = z;
rightKerningGroup = z;
unicode = 007A;
},
{
glyphname = y.ss01;
lastChange = "2018-08-14 15:57:16 +0000";
layers = (
{
anchors = (
{
name = bottom;
position = "{373, 0}";
},
{
name = top;
position = "{245, 501}";
}
);
layerId = "BADA37E3-C95E-4946-BA48-1F986F6D85A7";
paths = (
{
closed = 1;
nodes = (
"178 -198 LINE",
"481 501 LINE",
"418 501 LINE",
"240 87 LINE",
"76 501 LINE",
"13 501 LINE",
"211 20 LINE",
"119 -198 LINE"
);
}
);
width = 514;
},
{
anchors = (
{
name = bottom;
position = "{394, 0}";
},
{
name = top;
position = "{244, 501}";
}
);
layerId = "77B00D75-0619-4FB7-8D17-EB9FCD2DF18B";
paths = (
{
closed = 1;
nodes = (
"177 -198 LINE",
"480 501 LINE",
"460 501 LINE",
"260 43 LINE",
"32 501 LINE",
"12 501 LINE",
"250 20 LINE",
"155 -198 LINE"
);
}
);
width = 519;
},
{
anchors = (
{
name = bottom;
position = "{438, 0}";
},
{
name = top;
position = "{262, 501}";
}
);
layerId = "8A94633D-DA21-409C-A8B7-00A83612E8B2";
paths = (
{
closed = 1;
nodes = (
"237 -198 LINE",
"515 501 LINE",
"396 501 LINE",
"261 149 LINE",
"131 501 LINE",
"9 501 LINE",
"198 0 LINE",
"115 -198 LINE"
);
}
);
width = 554;
}
);
},
{
glyphname = f_f;
lastChange = "2018-08-14 20:00:43 +0000";
layers = (
{
anchors = (
{
name = bottom;
position = "{339, 0}";
},
{
name = top;
position = "{400, 694}";
}
);
layerId = "BADA37E3-C95E-4946-BA48-1F986F6D85A7";
paths = (
{
closed = 1;
nodes = (
"134 0 LINE",
"134 448 LINE",
"224 448 LINE",
"248 501 LINE",
"134 501 LINE",
"134 549 LINE SMOOTH",
"134 615 OFFCURVE",
"171 655 OFFCURVE",
"229 655 CURVE SMOOTH",
"270 655 OFFCURVE",
"299 635 OFFCURVE",
"321 598 CURVE",
"364 626 LINE",
"331 679 OFFCURVE",
"285 707 OFFCURVE",
"226 707 CURVE SMOOTH",
"140 707 OFFCURVE",
"78 647 OFFCURVE",
"78 546 CURVE SMOOTH",
"78 0 LINE"
);
},
{
closed = 1;
nodes = (
"367 0 LINE",
"367 448 LINE",
"457 448 LINE",
"481 501 LINE",
"367 501 LINE",
"367 549 LINE SMOOTH",
"367 623 OFFCURVE",
"398 660 OFFCURVE",
"460 660 CURVE SMOOTH",
"468 660 OFFCURVE",
"476 659 OFFCURVE",
"485 658 CURVE",
"494 707 LINE",
"481 710 OFFCURVE",
"470 711 OFFCURVE",
"459 711 CURVE SMOOTH",
"377 711 OFFCURVE",
"311 661 OFFCURVE",
"311 549 CURVE SMOOTH",
"311 0 LINE"
);
}
);
width = 527;
},
{
anchors = (
{
name = bottom;
position = "{322, 0}";
},
{
name = top;
position = "{405, 694}";
}
);
layerId = "77B00D75-0619-4FB7-8D17-EB9FCD2DF18B";
paths = (
{
closed = 1;
nodes = (
"96 0 LINE",
"96 482 LINE",
"240 482 LINE",
"248 501 LINE",
"96 501 LINE",
"96 556 LINE SMOOTH",
"96 640 OFFCURVE",
"151 691 OFFCURVE",
"224 691 CURVE SMOOTH",
"266 691 OFFCURVE",
"303 674 OFFCURVE",
"335 638 CURVE",
"348 650 LINE",
"313 690 OFFCURVE",
"271 709 OFFCURVE",
"224 709 CURVE SMOOTH",
"143 709 OFFCURVE",
"78 651.667 OFFCURVE",
"78 561 CURVE SMOOTH",
"78 0 LINE"
);
},
{
closed = 1;
nodes = (
"331 0 LINE",
"331 482 LINE",
"474 482 LINE",
"482 501 LINE",
"331 501 LINE",
"331 549 LINE SMOOTH",
"331 643 OFFCURVE",
"386 692 OFFCURVE",
"464 692 CURVE SMOOTH",
"475 692 OFFCURVE",
"484 691 OFFCURVE",
"492 690 CURVE",
"495 707 LINE",
"484 710 OFFCURVE",
"472 711 OFFCURVE",
"460 711 CURVE SMOOTH",
"381 711 OFFCURVE",
"312 661 OFFCURVE",
"312 549 CURVE SMOOTH",
"312 0 LINE"
);
}
);
width = 534;
},
{
anchors = (
{
name = bottom;
position = "{469, 0}";
},
{
name = top;
position = "{530, 694}";
}
);
layerId = "8A94633D-DA21-409C-A8B7-00A83612E8B2";
paths = (
{
closed = 1;
nodes = (
"190 0 LINE",
"190 398 LINE",
"253 398 LINE",
"277 501 LINE",
"190 501 LINE",
"190 542 LINE SMOOTH",
"190 586 OFFCURVE",
"218 611 OFFCURVE",
"257 611 CURVE SMOOTH",
"283 611 OFFCURVE",
"305 600 OFFCURVE",
"323 574 CURVE",
"404 638 LINE",
"359 696 OFFCURVE",
"309 710 OFFCURVE",
"260 710 CURVE SMOOTH",
"147 710 OFFCURVE",
"78 637 OFFCURVE",
"78 517 CURVE SMOOTH",
"78 0 LINE"
);
},
{
closed = 1;
nodes = (
"425 0 LINE",
"425 398 LINE",
"488 398 LINE",
"512 501 LINE",
"425 501 LINE",
"425 549 LINE SMOOTH",
"425 587 OFFCURVE",
"446 612 OFFCURVE",
"476 612 CURVE SMOOTH",
"485 612 OFFCURVE",
"494 610 OFFCURVE",
"503 607 CURVE",
"521 703 LINE",
"505 708 OFFCURVE",
"484 712 OFFCURVE",
"464 712 CURVE SMOOTH",
"385 712 OFFCURVE",
"313 646 OFFCURVE",
"313 549 CURVE SMOOTH",
"313 0 LINE"
);
}
);
width = 560;
}
);
leftMetricsKey = f;
rightMetricsKey = f;
unicode = FB00;
},
{
glyphname = f_f_l;
lastChange = "2018-08-14 20:01:18 +0000";
layers = (
{
layerId = "BADA37E3-C95E-4946-BA48-1F986F6D85A7";
paths = (
{
closed = 1;
nodes = (
"134 0 LINE",
"134 448 LINE",
"224 448 LINE",
"248 501 LINE",
"134 501 LINE",
"134 549 LINE SMOOTH",
"134 615 OFFCURVE",
"171 655 OFFCURVE",
"229 655 CURVE SMOOTH",
"270 655 OFFCURVE",
"299 635 OFFCURVE",
"321 598 CURVE",
"364 626 LINE",
"331 679 OFFCURVE",
"285 707 OFFCURVE",
"226 707 CURVE SMOOTH",
"140 707 OFFCURVE",
"78 647 OFFCURVE",
"78 546 CURVE SMOOTH",
"78 0 LINE"
);
},
{
closed = 1;
nodes = (
"367 0 LINE",
"367 448 LINE",
"457 448 LINE",
"481 501 LINE",
"367 501 LINE",
"367 549 LINE SMOOTH",
"367 615 OFFCURVE",
"405 655 OFFCURVE",
"461 655 CURVE SMOOTH",
"491 655 OFFCURVE",
"516 643 OFFCURVE",
"539 622 CURVE",
"539 0 LINE",
"595 0 LINE",
"595 646 LINE",
"555 686 OFFCURVE",
"509 707 OFFCURVE",
"459 707 CURVE SMOOTH",
"373 707 OFFCURVE",
"311 647 OFFCURVE",
"311 546 CURVE SMOOTH",
"311 0 LINE"
);
}
);
width = 675;
},
{
layerId = "77B00D75-0619-4FB7-8D17-EB9FCD2DF18B";
paths = (
{
closed = 1;
nodes = (
"96 0 LINE",
"96 482 LINE",
"240 482 LINE",
"248 501 LINE",
"96 501 LINE",
"96 556 LINE SMOOTH",
"96 640 OFFCURVE",
"151 691 OFFCURVE",
"224 691 CURVE SMOOTH",
"266 691 OFFCURVE",
"303 674 OFFCURVE",
"335 638 CURVE",
"348 650 LINE",
"313 690 OFFCURVE",
"271 709 OFFCURVE",
"224 709 CURVE SMOOTH",
"143 709 OFFCURVE",
"78 651.667 OFFCURVE",
"78 561 CURVE SMOOTH",
"78 0 LINE"
);
},
{
closed = 1;
nodes = (
"327 0 LINE",
"327 482 LINE",
"469 482 LINE",
"479 501 LINE",
"327 501 LINE",
"327 560 LINE SMOOTH",
"327 632 OFFCURVE",
"379 688 OFFCURVE",
"453 688 CURVE SMOOTH",
"490 688 OFFCURVE",
"525 674 OFFCURVE",
"555 647 CURVE",
"555 0 LINE",
"574 0 LINE",
"574 656 LINE",
"538 690 OFFCURVE",
"495 706 OFFCURVE",
"452 706 CURVE SMOOTH",
"372 706 OFFCURVE",
"308 648 OFFCURVE",
"308 560 CURVE SMOOTH",
"308 0 LINE"
);
}
);
width = 654;
},
{
layerId = "8A94633D-DA21-409C-A8B7-00A83612E8B2";
paths = (
{
closed = 1;
nodes = (
"190 0 LINE",
"190 398 LINE",
"253 398 LINE",
"277 501 LINE",
"190 501 LINE",
"190 542 LINE SMOOTH",
"190 586 OFFCURVE",
"218 611 OFFCURVE",
"257 611 CURVE SMOOTH",
"283 611 OFFCURVE",
"305 600 OFFCURVE",
"323 574 CURVE",
"404 638 LINE",
"359 696 OFFCURVE",
"309 710 OFFCURVE",
"260 710 CURVE SMOOTH",
"147 710 OFFCURVE",
"78 637 OFFCURVE",
"78 517 CURVE SMOOTH",
"78 0 LINE"
);
},
{
closed = 1;
nodes = (
"422 0 LINE",
"422 398 LINE",
"485 398 LINE",
"509 501 LINE",
"422 501 LINE",
"422 542 LINE SMOOTH",
"422 586 OFFCURVE",
"450 611 OFFCURVE",
"489 611 CURVE SMOOTH",
"507 611 OFFCURVE",
"523 606 OFFCURVE",
"535 595 CURVE",
"535 0 LINE",
"647 0 LINE",
"647 653 LINE",
"592 697 OFFCURVE",
"542 710 OFFCURVE",
"494 710 CURVE SMOOTH",
"379 710 OFFCURVE",
"310 637 OFFCURVE",
"310 517 CURVE SMOOTH",
"310 0 LINE"
);
}
);
width = 727;
}
);
leftMetricsKey = f;
rightMetricsKey = l;
unicode = FB04;
},
{
glyphname = f_i;
lastChange = "2018-08-14 20:01:27 +0000";
layers = (
{
layerId = "BADA37E3-C95E-4946-BA48-1F986F6D85A7";
paths = (
{
closed = 1;
nodes = (
"134 0 LINE",
"134 448 LINE",
"224 448 LINE",
"248 501 LINE",
"134 501 LINE",
"134 549 LINE SMOOTH",
"134 615 OFFCURVE",
"171 655 OFFCURVE",
"229 655 CURVE SMOOTH",
"270 655 OFFCURVE",
"299 635 OFFCURVE",
"321 598 CURVE",
"364 626 LINE",
"331 679 OFFCURVE",
"285 707 OFFCURVE",
"226 707 CURVE SMOOTH",
"140 707 OFFCURVE",
"78 647 OFFCURVE",
"78 546 CURVE SMOOTH",
"78 0 LINE"
);
},
{
closed = 1;
nodes = (
"362 0 LINE",
"362 501 LINE",
"306 501 LINE",
"306 0 LINE"
);
}
);
width = 444;
},
{
layerId = "77B00D75-0619-4FB7-8D17-EB9FCD2DF18B";
paths = (
{
closed = 1;
nodes = (
"96 0 LINE",
"96 482 LINE",
"240 482 LINE",
"248 501 LINE",
"96 501 LINE",
"96 556 LINE SMOOTH",
"96 640 OFFCURVE",
"151 691 OFFCURVE",
"224 691 CURVE SMOOTH",
"266 691 OFFCURVE",
"303 674 OFFCURVE",
"335 638 CURVE",
"348 650 LINE",
"313 690 OFFCURVE",
"271 709 OFFCURVE",
"224 709 CURVE SMOOTH",
"143 709 OFFCURVE",
"78 652 OFFCURVE",
"78 561 CURVE SMOOTH",
"78 0 LINE"
);
},
{
closed = 1;
nodes = (
"346 0 LINE",
"346 501 LINE",
"328 501 LINE",
"328 0 LINE"
);
}
);
width = 428;
},
{
layerId = "8A94633D-DA21-409C-A8B7-00A83612E8B2";
paths = (
{
closed = 1;
nodes = (
"190 0 LINE",
"190 398 LINE",
"253 398 LINE",
"277 501 LINE",
"190 501 LINE",
"190 542 LINE SMOOTH",
"190 586 OFFCURVE",
"218 611 OFFCURVE",
"257 611 CURVE SMOOTH",
"283 611 OFFCURVE",
"305 600 OFFCURVE",
"323 574 CURVE",
"404 638 LINE",
"359 696 OFFCURVE",
"309 710 OFFCURVE",
"259 710 CURVE SMOOTH",
"147 710 OFFCURVE",
"78 637 OFFCURVE",
"78 517 CURVE SMOOTH",
"78 0 LINE"
);
},
{
closed = 1;
nodes = (
"415 0 LINE",
"415 501 LINE",
"306 501 LINE",
"306 0 LINE"
);
}
);
width = 495;
}
);
leftMetricsKey = f;
rightMetricsKey = i;
unicode = FB01;
},
{
glyphname = f_l;
lastChange = "2018-08-14 19:54:03 +0000";
layers = (
{
layerId = "BADA37E3-C95E-4946-BA48-1F986F6D85A7";
paths = (
{
closed = 1;
nodes = (
"134 0 LINE",
"134 448 LINE",
"224 448 LINE",
"248 501 LINE",
"134 501 LINE",
"134 549 LINE SMOOTH",
"134 615 OFFCURVE",
"172 655 OFFCURVE",
"228 655 CURVE SMOOTH",
"258 655 OFFCURVE",
"283 643 OFFCURVE",
"306 622 CURVE",
"306 0 LINE",
"362 0 LINE",
"362 646 LINE",
"322 686 OFFCURVE",
"276 707 OFFCURVE",
"226 707 CURVE SMOOTH",
"140 707 OFFCURVE",
"78 647 OFFCURVE",
"78 546 CURVE SMOOTH",
"78 0 LINE"
);
}
);
width = 442;
},
{
layerId = "77B00D75-0619-4FB7-8D17-EB9FCD2DF18B";
paths = (
{
closed = 1;
nodes = (
"97 0 LINE",
"97 482 LINE",
"239 482 LINE",
"249 501 LINE",
"97 501 LINE",
"97 560 LINE SMOOTH",
"97 632 OFFCURVE",
"149 688 OFFCURVE",
"223 688 CURVE SMOOTH",
"260 688 OFFCURVE",
"295 674 OFFCURVE",
"325 647 CURVE",
"325 0 LINE",
"344 0 LINE",
"344 656 LINE",
"308 690 OFFCURVE",
"265 706 OFFCURVE",
"222 706 CURVE SMOOTH",
"142 706 OFFCURVE",
"78 648 OFFCURVE",
"78 560 CURVE SMOOTH",
"78 0 LINE"
);
}
);
width = 424;
},
{
layerId = "8A94633D-DA21-409C-A8B7-00A83612E8B2";
paths = (
{
closed = 1;
nodes = (
"190 0 LINE",
"190 398 LINE",
"253 398 LINE",
"277 501 LINE",
"190 501 LINE",
"190 542 LINE SMOOTH",
"190 586 OFFCURVE",
"218 611 OFFCURVE",
"257 611 CURVE SMOOTH",
"275 611 OFFCURVE",
"291 606 OFFCURVE",
"303 595 CURVE",
"303 0 LINE",
"415 0 LINE",
"415 653 LINE",
"360 697 OFFCURVE",
"310 710 OFFCURVE",
"262 710 CURVE SMOOTH",
"147 710 OFFCURVE",
"78 637 OFFCURVE",
"78 517 CURVE SMOOTH",
"78 0 LINE"
);
}
);
width = 495;
}
);
leftMetricsKey = f;
rightMetricsKey = l;
unicode = FB02;
},
{
glyphname = f_t;
lastChange = "2018-08-14 19:53:39 +0000";
layers = (
{
layerId = "BADA37E3-C95E-4946-BA48-1F986F6D85A7";
paths = (
{
closed = 1;
nodes = (
"428 30 LINE",
"384 44.667 OFFCURVE",
"362 78.667 OFFCURVE",
"362 132 CURVE SMOOTH",
"362 448 LINE",
"458 448 LINE",
"482 501 LINE",
"362 501 LINE",
"362 646 LINE",
"322 686 OFFCURVE",
"276 707 OFFCURVE",
"226 707 CURVE SMOOTH",
"140 707 OFFCURVE",
"78 647 OFFCURVE",
"78 546 CURVE SMOOTH",
"78 0 LINE",
"134 0 LINE",
"134 448 LINE",
"224 448 LINE",
"248 501 LINE",
"134 501 LINE",
"134 549 LINE SMOOTH",
"134 615 OFFCURVE",
"172 655 OFFCURVE",
"228 655 CURVE SMOOTH",
"258 655 OFFCURVE",
"283 643 OFFCURVE",
"306 622 CURVE",
"306 132 LINE SMOOTH",
"306 53.333 OFFCURVE",
"337.333 8.333 OFFCURVE",
"412 -13 CURVE"
);
}
);
width = 505;
},
{
layerId = "77B00D75-0619-4FB7-8D17-EB9FCD2DF18B";
paths = (
{
closed = 1;
nodes = (
"436 3 LINE",
"375 22 OFFCURVE",
"344 65 OFFCURVE",
"344 132 CURVE SMOOTH",
"344 482 LINE",
"472 482 LINE",
"480 501 LINE",
"344 501 LINE",
"344 656 LINE",
"308 690 OFFCURVE",
"265 706 OFFCURVE",
"222 706 CURVE SMOOTH",
"142 706 OFFCURVE",
"78 648 OFFCURVE",
"78 560 CURVE SMOOTH",
"78 0 LINE",
"97 0 LINE",
"97 482 LINE",
"239 482 LINE",
"249 501 LINE",
"97 501 LINE",
"97 560 LINE SMOOTH",
"97 632 OFFCURVE",
"149 688 OFFCURVE",
"223 688 CURVE SMOOTH",
"260 688 OFFCURVE",
"295 674 OFFCURVE",
"325 647 CURVE",
"325 132 LINE SMOOTH",
"325 56 OFFCURVE",
"356 8 OFFCURVE",
"431 -13 CURVE"
);
}
);
width = 503;
},
{
layerId = "8A94633D-DA21-409C-A8B7-00A83612E8B2";
paths = (
{
closed = 1;
nodes = (
"488 75 LINE",
"441.333 75 OFFCURVE",
"415 86.667 OFFCURVE",
"415 132 CURVE SMOOTH",
"415 398 LINE",
"486 398 LINE",
"510 501 LINE",
"415 501 LINE",
"415 653 LINE",
"360 697 OFFCURVE",
"310 710 OFFCURVE",
"262 710 CURVE SMOOTH",
"147 710 OFFCURVE",
"78 637 OFFCURVE",
"78 517 CURVE SMOOTH",
"78 0 LINE",
"190 0 LINE",
"190 398 LINE",
"253 398 LINE",
"277 501 LINE",
"190 501 LINE",
"190 542 LINE SMOOTH",
"190 586 OFFCURVE",
"218 611 OFFCURVE",
"257 611 CURVE SMOOTH",
"275 611 OFFCURVE",
"291 606 OFFCURVE",
"303 595 CURVE",
"303 132 LINE SMOOTH",
"303 37.333 OFFCURVE",
"353.667 -11 OFFCURVE",
"455 -13 CURVE"
);
}
);
width = 533;
}
);
leftMetricsKey = f;
rightMetricsKey = t;
},
{
glyphname = t_t;
lastChange = "2018-08-14 20:01:01 +0000";
layers = (
{
layerId = "BADA37E3-C95E-4946-BA48-1F986F6D85A7";
paths = (
{
closed = 1;
nodes = (
"166 30 LINE",
"122 45.333 OFFCURVE",
"100 79.333 OFFCURVE",
"100 132 CURVE SMOOTH",
"100 448 LINE",
"278 448 LINE",
"279 132 LINE SMOOTH",
"279 53.333 OFFCURVE",
"310.333 8.333 OFFCURVE",
"385 -13 CURVE",
"401 30 LINE",
"357 45.333 OFFCURVE",
"335 79.333 OFFCURVE",
"335 132 CURVE SMOOTH",
"335 448 LINE",
"431 448 LINE",
"455 501 LINE",
"335 501 LINE",
"335 700 LINE",
"279 700 LINE",
"279 501 LINE",
"100 501 LINE",
"100 700 LINE",
"44 700 LINE",
"44 132 LINE SMOOTH",
"44 53.333 OFFCURVE",
"75.333 8.333 OFFCURVE",
"150 -13 CURVE"
);
}
);
width = 478;
},
{
layerId = "77B00D75-0619-4FB7-8D17-EB9FCD2DF18B";
paths = (
{
closed = 1;
nodes = (
"156 5 LINE",
"89.333 26.333 OFFCURVE",
"63 58.667 OFFCURVE",
"63 132 CURVE SMOOTH",
"63 482 LINE",
"278 482 LINE",
"278 132 LINE SMOOTH",
"278 53.333 OFFCURVE",
"309.333 8.333 OFFCURVE",
"384 -13 CURVE",
"390 5 LINE",
"323.333 26.333 OFFCURVE",
"297 58.667 OFFCURVE",
"297 132 CURVE SMOOTH",
"297 482 LINE",
"445 482 LINE",
"454 501 LINE",
"297 501 LINE",
"297 700 LINE",
"278 700 LINE",
"278 501 LINE",
"63 501 LINE",
"63 700 LINE",
"44 700 LINE",
"44 132 LINE SMOOTH",
"44 53.333 OFFCURVE",
"75.333 8.333 OFFCURVE",
"150 -13 CURVE"
);
}
);
width = 477;
},
{
layerId = "8A94633D-DA21-409C-A8B7-00A83612E8B2";
paths = (
{
closed = 1;
nodes = (
"229 75 LINE",
"182.333 75 OFFCURVE",
"156 86.667 OFFCURVE",
"156 132 CURVE SMOOTH",
"156 398 LINE",
"278 398 LINE",
"278 132 LINE SMOOTH",
"278 37.333 OFFCURVE",
"328.667 -11 OFFCURVE",
"430 -13 CURVE",
"463 75 LINE",
"416.333 75 OFFCURVE",
"390 86.667 OFFCURVE",
"390 132 CURVE SMOOTH",
"390 398 LINE",
"461 398 LINE",
"485 501 LINE",
"390 501 LINE",
"390 700 LINE",
"278 700 LINE",
"278 501 LINE",
"156 501 LINE",
"156 700 LINE",
"44 700 LINE",
"44 132 LINE SMOOTH",
"44 37.333 OFFCURVE",
"94.667 -11 OFFCURVE",
"196 -13 CURVE"
);
}
);
width = 508;
}
);
leftMetricsKey = t;
rightMetricsKey = t;
},
{
glyphname = ordfeminine;
lastChange = "2018-08-20 21:18:03 +0000";
layers = (
{
layerId = "BADA37E3-C95E-4946-BA48-1F986F6D85A7";
paths = (
{
closed = 1;
nodes = (
"254 382 OFFCURVE",
"302 386 OFFCURVE",
"347 395 CURVE",
"347 555 LINE SMOOTH",
"347 660.333 OFFCURVE",
"311.667 709 OFFCURVE",
"181 709 CURVE",
"178 666 LINE",
"260.667 666 OFFCURVE",
"295 633 OFFCURVE",
"295 589 CURVE",
"251 615 OFFCURVE",
"212 628 OFFCURVE",
"179 628 CURVE SMOOTH",
"118 628 OFFCURVE",
"78 589 OFFCURVE",
"78 519 CURVE SMOOTH",
"78 438 OFFCURVE",
"118 382 OFFCURVE",
"223 382 CURVE SMOOTH"
);
},
{
closed = 1;
nodes = (
"170 426 OFFCURVE",
"125 451 OFFCURVE",
"125 513 CURVE SMOOTH",
"125 558 OFFCURVE",
"143 580 OFFCURVE",
"180 580 CURVE SMOOTH",
"208 580 OFFCURVE",
"246 566 OFFCURVE",
"295 539 CURVE",
"295 433 LINE",
"270 428 OFFCURVE",
"248 426 OFFCURVE",
"228 426 CURVE SMOOTH"
);
}
);
width = 380;
},
{
layerId = "77B00D75-0619-4FB7-8D17-EB9FCD2DF18B";
paths = (
{
closed = 1;
nodes = (
"273 384 OFFCURVE",
"314 388 OFFCURVE",
"347 395 CURVE",
"347 564 LINE SMOOTH",
"347 662 OFFCURVE",
"304 709 OFFCURVE",
"181 709 CURVE",
"179 693 LINE",
"284.333 690.333 OFFCURVE",
"328 661 OFFCURVE",
"328 569 CURVE",
"275 610 OFFCURVE",
"224 630 OFFCURVE",
"179 630 CURVE SMOOTH",
"117 630 OFFCURVE",
"78 593 OFFCURVE",
"78 508 CURVE SMOOTH",
"78 428 OFFCURVE",
"112 384 OFFCURVE",
"235 384 CURVE SMOOTH"
);
},
{
closed = 1;
nodes = (
"122 402 OFFCURVE",
"97 438 OFFCURVE",
"97 508 CURVE SMOOTH",
"97 576 OFFCURVE",
"122 612 OFFCURVE",
"180 612 CURVE SMOOTH",
"225 612 OFFCURVE",
"274 590 OFFCURVE",
"328 547 CURVE",
"328 410 LINE",
"292 404 OFFCURVE",
"263 402 OFFCURVE",
"235 402 CURVE SMOOTH"
);
}
);
width = 386;
},
{
layerId = "8A94633D-DA21-409C-A8B7-00A83612E8B2";
paths = (
{
closed = 1;
nodes = (
"273 380 OFFCURVE",
"308 384 OFFCURVE",
"347 391 CURVE",
"347 559 LINE SMOOTH",
"347 668 OFFCURVE",
"309 710 OFFCURVE",
"184 710 CURVE",
"174 648 LINE",
"236 648 OFFCURVE",
"259 634 OFFCURVE",
"259 601 CURVE",
"233 614 OFFCURVE",
"208 620 OFFCURVE",
"184 620 CURVE SMOOTH",
"122 620 OFFCURVE",
"78 580 OFFCURVE",
"78 507 CURVE SMOOTH",
"78 432 OFFCURVE",
"127 380 OFFCURVE",
"238 380 CURVE SMOOTH"
);
},
{
closed = 1;
nodes = (
"182 455 OFFCURVE",
"160 474 OFFCURVE",
"160 505 CURVE SMOOTH",
"160 531 OFFCURVE",
"175 547 OFFCURVE",
"203 547 CURVE SMOOTH",
"221 547 OFFCURVE",
"240 540 OFFCURVE",
"259 529 CURVE",
"259 458 LINE",
"246 456 OFFCURVE",
"235 455 OFFCURVE",
"225 455 CURVE SMOOTH"
);
}
);
width = 386;
}
);
unicode = 00AA;
},
{
glyphname = ordmasculine;
lastChange = "2018-08-20 21:24:27 +0000";
layers = (
{
layerId = "77B00D75-0619-4FB7-8D17-EB9FCD2DF18B";
paths = (
{
closed = 1;
nodes = (
"267 384 OFFCURVE",
"310 442 OFFCURVE",
"310 520 CURVE SMOOTH",
"310 573 LINE SMOOTH",
"310 658 OFFCURVE",
"262 711 OFFCURVE",
"179 711 CURVE SMOOTH",
"96 711 OFFCURVE",
"49 662 OFFCURVE",
"49 573 CURVE SMOOTH",
"49 520 LINE SMOOTH",
"49 443 OFFCURVE",
"94 384 OFFCURVE",
"181 384 CURVE SMOOTH"
);
},
{
closed = 1;
nodes = (
"108 401 OFFCURVE",
"68 450 OFFCURVE",
"68 518 CURVE SMOOTH",
"68 575 LINE SMOOTH",
"68 653 OFFCURVE",
"115 693 OFFCURVE",
"180 693 CURVE SMOOTH",
"245 693 OFFCURVE",
"291 653 OFFCURVE",
"291 575 CURVE SMOOTH",
"291 518 LINE SMOOTH",
"291 449 OFFCURVE",
"252 401 OFFCURVE",
"180 401 CURVE SMOOTH"
);
}
);
width = 349;
},
{
layerId = "BADA37E3-C95E-4946-BA48-1F986F6D85A7";
paths = (
{
closed = 1;
nodes = (
"298 382 OFFCURVE",
"341 437 OFFCURVE",
"341 512 CURVE SMOOTH",
"341 579 LINE SMOOTH",
"341 660 OFFCURVE",
"293 711 OFFCURVE",
"210 711 CURVE SMOOTH",
"125 711 OFFCURVE",
"78 664 OFFCURVE",
"78 579 CURVE SMOOTH",
"78 512 LINE SMOOTH",
"78 437 OFFCURVE",
"124 382 OFFCURVE",
"211 382 CURVE SMOOTH"
);
},
{
closed = 1;
nodes = (
"168 435 OFFCURVE",
"134 459 OFFCURVE",
"134 506 CURVE SMOOTH",
"134 579 LINE SMOOTH",
"134 630 OFFCURVE",
"160 656 OFFCURVE",
"211 656 CURVE SMOOTH",
"263 656 OFFCURVE",
"285 630 OFFCURVE",
"285 579 CURVE SMOOTH",
"285 506 LINE SMOOTH",
"285 459 OFFCURVE",
"249 435 OFFCURVE",
"210 435 CURVE SMOOTH"
);
}
);
width = 374;
},
{
layerId = "8A94633D-DA21-409C-A8B7-00A83612E8B2";
paths = (
{
closed = 1;
nodes = (
"307 380 OFFCURVE",
"352 441 OFFCURVE",
"352 524 CURVE SMOOTH",
"352 567 LINE SMOOTH",
"352 656 OFFCURVE",
"302 712 OFFCURVE",
"216 712 CURVE SMOOTH",
"128 712 OFFCURVE",
"78 661 OFFCURVE",
"78 567 CURVE SMOOTH",
"78 524 LINE SMOOTH",
"78 442 OFFCURVE",
"125 380 OFFCURVE",
"216 380 CURVE SMOOTH"
);
},
{
closed = 1;
nodes = (
"181 466 OFFCURVE",
"166 483 OFFCURVE",
"166 517 CURVE SMOOTH",
"166 566 LINE SMOOTH",
"166 606 OFFCURVE",
"180 624 OFFCURVE",
"216 624 CURVE SMOOTH",
"247 624 OFFCURVE",
"265 611 OFFCURVE",
"265 566 CURVE SMOOTH",
"265 517 LINE SMOOTH",
"265 484 OFFCURVE",
"250 466 OFFCURVE",
"215 466 CURVE SMOOTH"
);
}
);
width = 391;
}
);
unicode = 00BA;
},
{
glyphname = Gamma;
lastChange = "2018-08-09 15:14:16 +0000";
layers = (
{
layerId = "BADA37E3-C95E-4946-BA48-1F986F6D85A7";
paths = (
{
closed = 1;
nodes = (
"134 0 LINE",
"134 647 LINE",
"412 647 LINE",
"412 700 LINE",
"78 700 LINE",
"78 0 LINE"
);
}
);
width = 445;
},
{
layerId = "77B00D75-0619-4FB7-8D17-EB9FCD2DF18B";
paths = (
{
closed = 1;
nodes = (
"97 0 LINE",
"97 680 LINE",
"412 680 LINE",
"412 700 LINE",
"78 700 LINE",
"78 0 LINE"
);
}
);
width = 451;
},
{
layerId = "8A94633D-DA21-409C-A8B7-00A83612E8B2";
paths = (
{
closed = 1;
nodes = (
"189 0 LINE",
"189 590 LINE",
"412 590 LINE",
"412 700 LINE",
"78 700 LINE",
"78 0 LINE"
);
}
);
width = 451;
}
);
unicode = 0393;
},
{
glyphname = Delta;
lastChange = "2018-08-20 20:19:23 +0000";
layers = (
{
layerId = "BADA37E3-C95E-4946-BA48-1F986F6D85A7";
paths = (
{
closed = 1;
nodes = (
"517 0 LINE",
"289 700 LINE",
"236 700 LINE",
"12 0 LINE"
);
},
{
closed = 1;
nodes = (
"262 613 LINE",
"441 50 LINE",
"86 50 LINE"
);
}
);
width = 523;
},
{
layerId = "77B00D75-0619-4FB7-8D17-EB9FCD2DF18B";
paths = (
{
closed = 1;
nodes = (
"517 0 LINE",
"271 700 LINE",
"252 700 LINE",
"12 0 LINE"
);
},
{
closed = 1;
nodes = (
"262 674 LINE",
"490 19 LINE",
"39 19 LINE"
);
}
);
width = 528;
},
{
layerId = "8A94633D-DA21-409C-A8B7-00A83612E8B2";
paths = (
{
closed = 1;
nodes = (
"526 0 LINE",
"322 700 LINE",
"212 700 LINE",
"21 0 LINE"
);
},
{
closed = 1;
nodes = (
"272 482 LINE",
"377 101 LINE",
"170 101 LINE"
);
}
);
width = 532;
}
);
unicode = 0394;
},
{
glyphname = Theta;
lastChange = "2018-08-20 16:33:15 +0000";
layers = (
{
layerId = "BADA37E3-C95E-4946-BA48-1F986F6D85A7";
paths = (
{
closed = 1;
nodes = (
"389 -11 OFFCURVE",
"483 59 OFFCURVE",
"483 194 CURVE SMOOTH",
"483 506 LINE SMOOTH",
"483 637 OFFCURVE",
"407 716 OFFCURVE",
"275 716 CURVE SMOOTH",
"143 716 OFFCURVE",
"63 644 OFFCURVE",
"63 507 CURVE SMOOTH",
"63 194 LINE SMOOTH",
"63 59 OFFCURVE",
"159 -11 OFFCURVE",
"274 -11 CURVE SMOOTH"
);
},
{
closed = 1;
nodes = (
"197 40 OFFCURVE",
"119 89 OFFCURVE",
"119 186 CURVE SMOOTH",
"119 330 LINE",
"428 330 LINE",
"428 187 LINE SMOOTH",
"428 88 OFFCURVE",
"352 40 OFFCURVE",
"275 40 CURVE SMOOTH"
);
},
{
closed = 1;
nodes = (
"119 516 LINE SMOOTH",
"119 613 OFFCURVE",
"180 663 OFFCURVE",
"273 663 CURVE SMOOTH",
"366 663 OFFCURVE",
"428 613 OFFCURVE",
"428 516 CURVE SMOOTH",
"428 385 LINE",
"119 385 LINE"
);
}
);
width = 549;
},
{
layerId = "77B00D75-0619-4FB7-8D17-EB9FCD2DF18B";
paths = (
{
closed = 1;
nodes = (
"389 -11 OFFCURVE",
"483 50 OFFCURVE",
"483 185 CURVE SMOOTH",
"483 506 LINE SMOOTH",
"483 637 OFFCURVE",
"407 716 OFFCURVE",
"275 716 CURVE SMOOTH",
"143 716 OFFCURVE",
"63 644 OFFCURVE",
"63 507 CURVE SMOOTH",
"63 185 LINE SMOOTH",
"63 50 OFFCURVE",
"159 -11 OFFCURVE",
"274 -11 CURVE SMOOTH"
);
},
{
closed = 1;
nodes = (
"167 8 OFFCURVE",
"82 68 OFFCURVE",
"82 184 CURVE SMOOTH",
"82 347 LINE",
"464 347 LINE",
"464 184 LINE SMOOTH",
"464 61 OFFCURVE",
"381 8 OFFCURVE",
"274 8 CURVE SMOOTH"
);
},
{
closed = 1;
nodes = (
"82 508 LINE SMOOTH",
"82 623 OFFCURVE",
"146 695 OFFCURVE",
"273 695 CURVE SMOOTH",
"400 695 OFFCURVE",
"464 625 OFFCURVE",
"464 510 CURVE SMOOTH",
"464 366 LINE",
"82 366 LINE"
);
}
);
width = 549;
},
{
layerId = "8A94633D-DA21-409C-A8B7-00A83612E8B2";
paths = (
{
closed = 1;
nodes = (
"389 -11 OFFCURVE",
"483 50 OFFCURVE",
"483 185 CURVE SMOOTH",
"483 506 LINE SMOOTH",
"483 637 OFFCURVE",
"407 716 OFFCURVE",
"275 716 CURVE SMOOTH",
"143 716 OFFCURVE",
"63 644 OFFCURVE",
"63 507 CURVE SMOOTH",
"63 185 LINE SMOOTH",
"63 50 OFFCURVE",
"159 -11 OFFCURVE",
"274 -11 CURVE SMOOTH"
);
},
{
closed = 1;
nodes = (
"205 101 OFFCURVE",
"173 140 OFFCURVE",
"173 204 CURVE SMOOTH",
"173 301 LINE",
"373 301 LINE",
"373 206 LINE SMOOTH",
"373 143 OFFCURVE",
"336 101 OFFCURVE",
"273 101 CURVE SMOOTH"
);
},
{
closed = 1;
nodes = (
"173 471 LINE SMOOTH",
"173 558 OFFCURVE",
"192 597 OFFCURVE",
"273 597 CURVE SMOOTH",
"354 597 OFFCURVE",
"373 555 OFFCURVE",
"373 470 CURVE SMOOTH",
"373 392 LINE",
"173 392 LINE"
);
}
);
width = 549;
}
);
leftMetricsKey = O;
rightMetricsKey = O;
unicode = 0398;
},
{
glyphname = Lambda;
lastChange = "2018-08-09 15:14:16 +0000";
layers = (
{
layerId = "BADA37E3-C95E-4946-BA48-1F986F6D85A7";
paths = (
{
closed = 1;
nodes = (
"71 0 LINE",
"262 613 LINE",
"457 0 LINE",
"517 0 LINE",
"289 700 LINE",
"236 700 LINE",
"12 0 LINE"
);
}
);
width = 523;
},
{
layerId = "77B00D75-0619-4FB7-8D17-EB9FCD2DF18B";
paths = (
{
closed = 1;
nodes = (
"31 0 LINE",
"262 670 LINE",
"497 0 LINE",
"517 0 LINE",
"272 700 LINE",
"253 700 LINE",
"12 0 LINE"
);
}
);
width = 533;
},
{
layerId = "8A94633D-DA21-409C-A8B7-00A83612E8B2";
paths = (
{
closed = 1;
nodes = (
"145 0 LINE",
"271 454 LINE",
"400 0 LINE",
"526 0 LINE",
"323 700 LINE",
"221 700 LINE",
"21 0 LINE"
);
}
);
width = 532;
}
);
unicode = 039B;
},
{
glyphname = Xi;
lastChange = "2018-08-14 20:05:39 +0000";
layers = (
{
layerId = "BADA37E3-C95E-4946-BA48-1F986F6D85A7";
paths = (
{
closed = 1;
nodes = (
"137 625.667 OFFCURVE",
"171 649 OFFCURVE",
"223 649 CURVE SMOOTH",
"527 649 LINE",
"548 701 LINE",
"223 701 LINE SMOOTH",
"144.333 701 OFFCURVE",
"99.333 669.667 OFFCURVE",
"78 595 CURVE",
"121 579 LINE"
);
},
{
closed = 1;
nodes = (
"442 0 LINE SMOOTH",
"520.667 0 OFFCURVE",
"565.667 31.333 OFFCURVE",
"587 106 CURVE",
"544 122 LINE",
"528 75.333 OFFCURVE",
"494 52 OFFCURVE",
"442 52 CURVE SMOOTH",
"138 52 LINE",
"117 0 LINE"
);
},
{
closed = 1;
nodes = (
"469 358 LINE",
"469 413 LINE",
"205 413 LINE",
"205 358 LINE"
);
}
);
width = 620;
},
{
layerId = "77B00D75-0619-4FB7-8D17-EB9FCD2DF18B";
paths = (
{
closed = 1;
nodes = (
"116 646.667 OFFCURVE",
"143 680 OFFCURVE",
"223 680 CURVE SMOOTH",
"539 680 LINE",
"548 700 LINE",
"223 700 LINE SMOOTH",
"144.333 700 OFFCURVE",
"99.333 669.667 OFFCURVE",
"78 595 CURVE",
"96 588 LINE"
);
},
{
closed = 1;
nodes = (
"442 0 LINE SMOOTH",
"520.667 0 OFFCURVE",
"565.667 31.333 OFFCURVE",
"587 106 CURVE",
"568 113 LINE",
"548 53 OFFCURVE",
"522 19 OFFCURVE",
"442 19 CURVE SMOOTH",
"125 19 LINE",
"117 0 LINE"
);
},
{
closed = 1;
nodes = (
"469 394 LINE",
"469 413 LINE",
"205 413 LINE",
"205 394 LINE"
);
}
);
width = 626;
},
{
layerId = "8A94633D-DA21-409C-A8B7-00A83612E8B2";
paths = (
{
closed = 1;
nodes = (
"165.667 575 OFFCURVE",
"195.333 590 OFFCURVE",
"244 590 CURVE SMOOTH",
"527 590 LINE",
"548 701 LINE",
"223 701 LINE SMOOTH",
"144.333 701 OFFCURVE",
"99.333 669.667 OFFCURVE",
"78 595 CURVE",
"155 545 LINE"
);
},
{
closed = 1;
nodes = (
"442 0 LINE SMOOTH",
"520.667 0 OFFCURVE",
"565.667 31.333 OFFCURVE",
"587 106 CURVE",
"495 157 LINE",
"480.333 113 OFFCURVE",
"455.333 101 OFFCURVE",
"402 101 CURVE SMOOTH",
"148 101 LINE",
"117 0 LINE"
);
},
{
closed = 1;
nodes = (
"469 308 LINE",
"469 413 LINE",
"205 413 LINE",
"205 308 LINE"
);
}
);
width = 626;
}
);
unicode = 039E;
},
{
glyphname = Pi;
lastChange = "2018-08-09 15:14:16 +0000";
layers = (
{
layerId = "BADA37E3-C95E-4946-BA48-1F986F6D85A7";
paths = (
{
closed = 1;
nodes = (
"136 0 LINE",
"136 645 LINE",
"454 645 LINE",
"454 0 LINE",
"510 0 LINE",
"510 700 LINE",
"80 700 LINE",
"80 0 LINE"
);
}
);
width = 581;
},
{
layerId = "77B00D75-0619-4FB7-8D17-EB9FCD2DF18B";
paths = (
{
closed = 1;
nodes = (
"99 0 LINE",
"99 680 LINE",
"491 680 LINE",
"491 0 LINE",
"510 0 LINE",
"510 700 LINE",
"80 700 LINE",
"80 0 LINE"
);
}
);
width = 590;
},
{
layerId = "8A94633D-DA21-409C-A8B7-00A83612E8B2";
paths = (
{
closed = 1;
nodes = (
"190 0 LINE",
"190 590 LINE",
"400 590 LINE",
"400 0 LINE",
"510 0 LINE",
"510 700 LINE",
"80 700 LINE",
"80 0 LINE"
);
}
);
width = 581;
}
);
unicode = 03A0;
},
{
glyphname = Sigma;
lastChange = "2018-08-09 15:14:16 +0000";
layers = (
{
layerId = "BADA37E3-C95E-4946-BA48-1F986F6D85A7";
paths = (
{
closed = 1;
nodes = (
"401 0 LINE SMOOTH",
"479.667 0 OFFCURVE",
"524.667 31.333 OFFCURVE",
"546 106 CURVE",
"503 122 LINE",
"487 76.667 OFFCURVE",
"447.667 51 OFFCURVE",
"397 51 CURVE SMOOTH",
"171 51 LINE",
"371 387 LINE",
"195 649 LINE",
"504 649 LINE",
"522 702 LINE",
"94 702 LINE",
"304 384 LINE",
"78 0 LINE"
);
}
);
width = 579;
},
{
layerId = "77B00D75-0619-4FB7-8D17-EB9FCD2DF18B";
paths = (
{
closed = 1;
nodes = (
"401 0 LINE SMOOTH",
"479.667 0 OFFCURVE",
"524.667 31.333 OFFCURVE",
"546 106 CURVE",
"526 113 LINE",
"504.667 38.333 OFFCURVE",
"463.667 20 OFFCURVE",
"385 20 CURVE SMOOTH",
"112 20 LINE",
"327 384 LINE",
"132 678 LINE",
"514 678 LINE",
"522 700 LINE",
"94 700 LINE",
"304 384 LINE",
"78 0 LINE"
);
}
);
width = 585;
},
{
layerId = "8A94633D-DA21-409C-A8B7-00A83612E8B2";
paths = (
{
closed = 1;
nodes = (
"401 0 LINE SMOOTH",
"479.667 0 OFFCURVE",
"524.667 31.333 OFFCURVE",
"546 106 CURVE",
"452 157 LINE",
"436 110.333 OFFCURVE",
"420.667 101 OFFCURVE",
"370 101 CURVE SMOOTH",
"265 101 LINE",
"434 387 LINE",
"297 590 LINE",
"488 590 LINE",
"522 702 LINE",
"94 702 LINE",
"304 384 LINE",
"78 0 LINE"
);
}
);
width = 585;
}
);
unicode = 03A3;
},
{
glyphname = Phi;
lastChange = "2018-08-14 20:20:42 +0000";
layers = (
{
layerId = "BADA37E3-C95E-4946-BA48-1F986F6D85A7";
paths = (
{
closed = 1;
nodes = (
"403 0 LINE",
"403 99 LINE",
"465 99 LINE SMOOTH",
"621 99 OFFCURVE",
"672 220 OFFCURVE",
"672 360 CURVE SMOOTH",
"672 527 OFFCURVE",
"603 614 OFFCURVE",
"458 614 CURVE SMOOTH",
"403 614 LINE",
"403 700 LINE",
"347 700 LINE",
"347 614 LINE",
"292 614 LINE SMOOTH",
"147 614 OFFCURVE",
"78 527 OFFCURVE",
"78 360 CURVE SMOOTH",
"78 220 OFFCURVE",
"130 99 OFFCURVE",
"285 99 CURVE SMOOTH",
"347 99 LINE",
"347 0 LINE"
);
},
{
closed = 1;
nodes = (
"161 154 OFFCURVE",
"133 249 OFFCURVE",
"133 360 CURVE SMOOTH",
"133 508 OFFCURVE",
"192 561 OFFCURVE",
"288 561 CURVE SMOOTH",
"347 561 LINE",
"347 154 LINE",
"284 154 LINE SMOOTH"
);
},
{
closed = 1;
nodes = (
"403 561 LINE",
"462 561 LINE SMOOTH",
"558 561 OFFCURVE",
"617 508 OFFCURVE",
"617 360 CURVE SMOOTH",
"617 249 OFFCURVE",
"589 154 OFFCURVE",
"466 154 CURVE SMOOTH",
"403 154 LINE"
);
}
);
width = 706;
},
{
layerId = "77B00D75-0619-4FB7-8D17-EB9FCD2DF18B";
paths = (
{
closed = 1;
nodes = (
"371 0 LINE",
"371 100 LINE",
"438 100 LINE SMOOTH",
"576 100 OFFCURVE",
"645 184 OFFCURVE",
"645 352 CURVE SMOOTH",
"645 512 OFFCURVE",
"582 613 OFFCURVE",
"451 613 CURVE SMOOTH",
"371 613 LINE",
"371 700 LINE",
"352 700 LINE",
"352 613 LINE",
"272 613 LINE SMOOTH",
"141 613 OFFCURVE",
"78 512 OFFCURVE",
"78 352 CURVE SMOOTH",
"78 184 OFFCURVE",
"147 100 OFFCURVE",
"285 100 CURVE SMOOTH",
"352 100 LINE",
"352 0 LINE"
);
},
{
closed = 1;
nodes = (
"160 119 OFFCURVE",
"97 197 OFFCURVE",
"97 352 CURVE SMOOTH",
"97 500 OFFCURVE",
"151 593 OFFCURVE",
"271 593 CURVE SMOOTH",
"352 593 LINE",
"352 119 LINE",
"287 119 LINE SMOOTH"
);
},
{
closed = 1;
nodes = (
"371 593 LINE",
"452 593 LINE SMOOTH",
"572 593 OFFCURVE",
"626 500 OFFCURVE",
"626 352 CURVE SMOOTH",
"626 197 OFFCURVE",
"563 119 OFFCURVE",
"436 119 CURVE SMOOTH",
"371 119 LINE"
);
}
);
width = 684;
},
{
layerId = "8A94633D-DA21-409C-A8B7-00A83612E8B2";
paths = (
{
closed = 1;
nodes = (
"465 0 LINE",
"465 77 LINE",
"535 77 LINE SMOOTH",
"672 77 OFFCURVE",
"742 174 OFFCURVE",
"742 358 CURVE SMOOTH",
"742 518 OFFCURVE",
"673 628 OFFCURVE",
"526 628 CURVE SMOOTH",
"465 628 LINE",
"465 700 LINE",
"355 700 LINE",
"355 628 LINE",
"294 628 LINE SMOOTH",
"147 628 OFFCURVE",
"78 518 OFFCURVE",
"78 358 CURVE SMOOTH",
"78 174 OFFCURVE",
"148 77 OFFCURVE",
"285 77 CURVE SMOOTH",
"355 77 LINE",
"355 0 LINE"
);
},
{
closed = 1;
nodes = (
"212 182 OFFCURVE",
"188 247 OFFCURVE",
"188 357 CURVE SMOOTH",
"188 475 OFFCURVE",
"217 518 OFFCURVE",
"322 518 CURVE SMOOTH",
"355 518 LINE",
"355 182 LINE",
"319 182 LINE SMOOTH"
);
},
{
closed = 1;
nodes = (
"465 518 LINE",
"498 518 LINE SMOOTH",
"603 518 OFFCURVE",
"632 475 OFFCURVE",
"632 357 CURVE SMOOTH",
"632 247 OFFCURVE",
"608 182 OFFCURVE",
"501 182 CURVE SMOOTH",
"465 182 LINE"
);
}
);
width = 781;
},
{
associatedMasterId = "8A94633D-DA21-409C-A8B7-00A83612E8B2";
layerId = "C08CFD2E-5E8F-4859-8ED5-3D4C00A38A6F";
name = "Aug 14 18, 16:16";
paths = (
{
closed = 1;
nodes = (
"394 15 LINE",
"417 15 LINE SMOOTH",
"557 15 OFFCURVE",
"605 94.333 OFFCURVE",
"605 225 CURVE SMOOTH",
"605 513 LINE SMOOTH",
"605 633 OFFCURVE",
"558 711 OFFCURVE",
"439 711 CURVE SMOOTH",
"344 711 OFFCURVE",
"284 661 OFFCURVE",
"284 561 CURVE SMOOTH",
"284 101 LINE",
"266 101 LINE SMOOTH",
"191 101 OFFCURVE",
"191 153 OFFCURVE",
"188 251 CURVE SMOOTH",
"188 517 LINE SMOOTH",
"188 593.319 OFFCURVE",
"204.578 603.934 OFFCURVE",
"252 622 CURVE",
"194 706 LINE",
"116.667 681.333 OFFCURVE",
"78 618.333 OFFCURVE",
"78 517 CURVE SMOOTH",
"78 225 LINE SMOOTH",
"78 94.658 OFFCURVE",
"122.84 15 OFFCURVE",
"266 15 CURVE SMOOTH",
"284 15 LINE",
"284 -22 LINE",
"394 -35 LINE"
);
},
{
closed = 1;
nodes = (
"394 545 LINE SMOOTH",
"394 582 OFFCURVE",
"406 601 OFFCURVE",
"439 601 CURVE SMOOTH",
"490 601 OFFCURVE",
"493 555 OFFCURVE",
"493 479 CURVE SMOOTH",
"493 251 LINE SMOOTH",
"493 128 OFFCURVE",
"464 101 OFFCURVE",
"417 101 CURVE SMOOTH",
"394 101 LINE"
);
}
);
width = 644;
},
{
associatedMasterId = "BADA37E3-C95E-4946-BA48-1F986F6D85A7";
layerId = "CD575D91-D60A-46B2-B960-054AE4F2DCCB";
name = "Aug 14 18, 16:17";
paths = (
{
closed = 1;
nodes = (
"368 30 LINE",
"417 30 LINE SMOOTH",
"543.667 30 OFFCURVE",
"605 103.667 OFFCURVE",
"605 225 CURVE SMOOTH",
"605 511 LINE SMOOTH",
"605 632.333 OFFCURVE",
"534 711 OFFCURVE",
"418 711 CURVE SMOOTH",
"355.333 711 OFFCURVE",
"314 671.667 OFFCURVE",
"310 605 CURVE",
"310 81 LINE",
"266 81 LINE SMOOTH",
"186 81 OFFCURVE",
"134 127 OFFCURVE",
"134 215 CURVE SMOOTH",
"134 517 LINE SMOOTH",
"134 597.667 OFFCURVE",
"164 645.667 OFFCURVE",
"224 661 CURVE",
"194 706 LINE",
"116.667 681.333 OFFCURVE",
"78 618.333 OFFCURVE",
"78 517 CURVE SMOOTH",
"78 225 LINE SMOOTH",
"78 103.667 OFFCURVE",
"139.333 30 OFFCURVE",
"266 30 CURVE SMOOTH",
"310 30 LINE",
"310 -22 LINE",
"368 -35 LINE"
);
},
{
closed = 1;
nodes = (
"368 596 LINE SMOOTH",
"368 637.333 OFFCURVE",
"387.333 658 OFFCURVE",
"426 658 CURVE SMOOTH",
"487.333 658 OFFCURVE",
"549 611.667 OFFCURVE",
"549 521 CURVE SMOOTH",
"549 215 LINE SMOOTH",
"549 127 OFFCURVE",
"497 81 OFFCURVE",
"417 81 CURVE SMOOTH",
"368 81 LINE"
);
}
);
width = 638;
},
{
associatedMasterId = "77B00D75-0619-4FB7-8D17-EB9FCD2DF18B";
layerId = "F2CECFC7-21A8-4E0A-871D-1C1021119436";
name = "Aug 14 18, 16:17";
paths = (
{
closed = 1;
nodes = (
"349 30 LINE",
"417 30 LINE SMOOTH",
"544 30 OFFCURVE",
"605 104 OFFCURVE",
"605 225 CURVE SMOOTH",
"605 511 LINE SMOOTH",
"605 631 OFFCURVE",
"535 711 OFFCURVE",
"435 711 CURVE SMOOTH",
"362 711 OFFCURVE",
"330 669 OFFCURVE",
"330 601 CURVE SMOOTH",
"330 48 LINE",
"266 48 LINE SMOOTH",
"159 48 OFFCURVE",
"97 104 OFFCURVE",
"97 215 CURVE SMOOTH",
"97 517 LINE SMOOTH",
"97 610 OFFCURVE",
"132 668 OFFCURVE",
"202 691 CURVE",
"194 706 LINE",
"117 681 OFFCURVE",
"78 618 OFFCURVE",
"78 517 CURVE SMOOTH",
"78 225 LINE SMOOTH",
"78 104 OFFCURVE",
"139 30 OFFCURVE",
"266 30 CURVE SMOOTH",
"330 30 LINE",
"330 -26 LINE",
"349 -30 LINE"
);
},
{
closed = 1;
nodes = (
"349 601 LINE SMOOTH",
"349 663 OFFCURVE",
"374 694 OFFCURVE",
"435 694 CURVE SMOOTH",
"530 694 OFFCURVE",
"586 614 OFFCURVE",
"586 512 CURVE SMOOTH",
"586 215 LINE SMOOTH",
"586 114 OFFCURVE",
"528 48 OFFCURVE",
"423 48 CURVE SMOOTH",
"349 48 LINE"
);
}
);
width = 644;
}
);
leftMetricsKey = Thorn;
rightMetricsKey = Thorn;
unicode = 03A6;
},
{
glyphname = Chi;
lastChange = "2018-08-09 15:14:16 +0000";
layers = (
{
layerId = "BADA37E3-C95E-4946-BA48-1F986F6D85A7";
paths = (
{
closed = 1;
nodes = (
"147 0 LINE",
"332 294 LINE",
"516 0 LINE",
"585 0 LINE",
"366 352 LINE",
"569 700 LINE",
"506 700 LINE",
"332 406 LINE",
"160 700 LINE",
"97 700 LINE",
"299 352 LINE",
"78 0 LINE"
);
}
);
width = 618;
},
{
layerId = "77B00D75-0619-4FB7-8D17-EB9FCD2DF18B";
paths = (
{
closed = 1;
nodes = (
"103 0 LINE",
"332 346 LINE",
"563 0 LINE",
"585 3 LINE",
"345 364 LINE",
"569 700 LINE",
"545 700 LINE",
"332 382 LINE",
"119 700 LINE",
"97 700 LINE",
"321 364 LINE",
"78 0 LINE"
);
}
);
width = 624;
},
{
layerId = "8A94633D-DA21-409C-A8B7-00A83612E8B2";
paths = (
{
closed = 1;
nodes = (
"215 0 LINE",
"362 244 LINE",
"514 0 LINE",
"655 0 LINE",
"433 359 LINE",
"638 700 LINE",
"507 700 LINE",
"367 468 LINE",
"220 700 LINE",
"90 700 LINE",
"296 350 LINE",
"78 0 LINE"
);
}
);
width = 694;
}
);
unicode = 03A7;
},
{
glyphname = Psi;
lastChange = "2018-08-14 20:32:14 +0000";
layers = (
{
layerId = "BADA37E3-C95E-4946-BA48-1F986F6D85A7";
paths = (
{
closed = 1;
nodes = (
"351 0 LINE",
"351 212 LINE",
"400 212 LINE SMOOTH",
"526.667 212 OFFCURVE",
"588 284.667 OFFCURVE",
"588 406 CURVE SMOOTH",
"588 554 LINE SMOOTH",
"588 616 OFFCURVE",
"587 676 OFFCURVE",
"524 714 CURVE",
"490 682 LINE",
"522 650 OFFCURVE",
"532 631 OFFCURVE",
"532 569 CURVE SMOOTH",
"532 396 LINE SMOOTH",
"532 308 OFFCURVE",
"480 262 OFFCURVE",
"400 262 CURVE SMOOTH",
"351 262 LINE",
"351 700 LINE",
"293 700 LINE",
"293 262 LINE",
"249 262 LINE SMOOTH",
"169 262 OFFCURVE",
"117 308 OFFCURVE",
"117 396 CURVE SMOOTH",
"117 700 LINE",
"61 700 LINE",
"61 406 LINE SMOOTH",
"61 284.667 OFFCURVE",
"122.333 212 OFFCURVE",
"249 212 CURVE SMOOTH",
"293 212 LINE",
"294 0 LINE"
);
}
);
width = 632;
},
{
layerId = "77B00D75-0619-4FB7-8D17-EB9FCD2DF18B";
paths = (
{
closed = 1;
nodes = (
"314 0 LINE",
"314 212 LINE",
"383 212 LINE SMOOTH",
"509.667 212 OFFCURVE",
"571 284.667 OFFCURVE",
"571 406 CURVE SMOOTH",
"571 546 LINE SMOOTH",
"571 608 OFFCURVE",
"571 671 OFFCURVE",
"515 706 CURVE",
"505 694 LINE",
"541 664 OFFCURVE",
"552 640 OFFCURVE",
"552 561 CURVE SMOOTH",
"552 406 LINE SMOOTH",
"552 294 OFFCURVE",
"495 231 OFFCURVE",
"383 231 CURVE SMOOTH",
"314 231 LINE",
"314 700 LINE",
"295 700 LINE",
"295 231 LINE",
"232 231 LINE SMOOTH",
"129.333 231 OFFCURVE",
"63 284.667 OFFCURVE",
"63 406 CURVE SMOOTH",
"63 700 LINE",
"44 700 LINE",
"44 406 LINE SMOOTH",
"44 284.667 OFFCURVE",
"105.333 212 OFFCURVE",
"232 212 CURVE SMOOTH",
"295 212 LINE",
"295 0 LINE"
);
}
);
width = 627;
},
{
layerId = "8A94633D-DA21-409C-A8B7-00A83612E8B2";
paths = (
{
closed = 1;
nodes = (
"370 0 LINE",
"370 212 LINE",
"393 212 LINE SMOOTH",
"519.667 212 OFFCURVE",
"581 284.667 OFFCURVE",
"581 406 CURVE SMOOTH",
"581 557 LINE SMOOTH",
"581 627 OFFCURVE",
"581 674 OFFCURVE",
"515 717 CURVE",
"442 668 LINE",
"459 651 OFFCURVE",
"472 626 OFFCURVE",
"472 572 CURVE SMOOTH",
"472 443 LINE SMOOTH",
"472 339 OFFCURVE",
"463.667 308 OFFCURVE",
"393 308 CURVE SMOOTH",
"370 308 LINE",
"370 700 LINE",
"261 700 LINE",
"261 308 LINE",
"242 308 LINE SMOOTH",
"171.333 308 OFFCURVE",
"163 337 OFFCURVE",
"163 441 CURVE SMOOTH",
"163 700 LINE",
"54 700 LINE",
"54 406 LINE SMOOTH",
"54 284.667 OFFCURVE",
"115.333 212 OFFCURVE",
"242 212 CURVE SMOOTH",
"261 212 LINE",
"262 0 LINE"
);
}
);
width = 632;
}
);
unicode = 03A8;
},
{
glyphname = Omega;
lastChange = "2018-08-14 21:29:55 +0000";
layers = (
{
anchors = (
{
name = bottom;
position = "{319, 0}";
},
{
name = topleft;
position = "{127, 694}";
}
);
layerId = "BADA37E3-C95E-4946-BA48-1F986F6D85A7";
paths = (
{
closed = 1;
nodes = (
"306 0 LINE",
"306 51 LINE",
"213 64 OFFCURVE",
"147 91 OFFCURVE",
"147 196 CURVE SMOOTH",
"147 513 LINE SMOOTH",
"147 602.333 OFFCURVE",
"200.333 656 OFFCURVE",
"279 656 CURVE SMOOTH",
"391 656 LINE SMOOTH",
"469.667 656 OFFCURVE",
"523 602.333 OFFCURVE",
"523 513 CURVE SMOOTH",
"523 196 LINE SMOOTH",
"523 96 OFFCURVE",
"471 72 OFFCURVE",
"364 51 CURVE",
"364 0 LINE",
"592 0 LINE",
"575 51 LINE",
"506 51 LINE",
"555 81 OFFCURVE",
"579 129 OFFCURVE",
"579 196 CURVE SMOOTH",
"579 503 LINE SMOOTH",
"579 625.667 OFFCURVE",
"516.333 707 OFFCURVE",
"391 707 CURVE SMOOTH",
"279 707 LINE SMOOTH",
"153.667 707 OFFCURVE",
"91 625.667 OFFCURVE",
"91 503 CURVE SMOOTH",
"91 196 LINE SMOOTH",
"91 128 OFFCURVE",
"114 80 OFFCURVE",
"160 51 CURVE",
"95 51 LINE",
"78 0 LINE"
);
}
);
width = 638;
},
{
anchors = (
{
name = bottom;
position = "{326, 0}";
},
{
name = topleft;
position = "{90, 694}";
}
);
layerId = "77B00D75-0619-4FB7-8D17-EB9FCD2DF18B";
paths = (
{
closed = 1;
nodes = (
"306 0 LINE",
"306 20 LINE",
"216.667 20 OFFCURVE",
"109 86 OFFCURVE",
"109 205 CURVE SMOOTH",
"109 503 LINE SMOOTH",
"109 627 OFFCURVE",
"175 688 OFFCURVE",
"279 688 CURVE SMOOTH",
"391 688 LINE SMOOTH",
"495 688 OFFCURVE",
"563 628.667 OFFCURVE",
"563 502 CURVE SMOOTH",
"563 205 LINE SMOOTH",
"563 86 OFFCURVE",
"453 20 OFFCURVE",
"364 20 CURVE",
"364 0 LINE",
"595 0 LINE",
"586 20 LINE",
"450 20 LINE",
"530 51 OFFCURVE",
"582 116 OFFCURVE",
"582 205 CURVE SMOOTH",
"582 503 LINE SMOOTH",
"582 626 OFFCURVE",
"518 707 OFFCURVE",
"391 707 CURVE SMOOTH",
"279 707 LINE SMOOTH",
"153 707 OFFCURVE",
"90 626 OFFCURVE",
"90 503 CURVE SMOOTH",
"90 205 LINE SMOOTH",
"90 116 OFFCURVE",
"140 51 OFFCURVE",
"220 20 CURVE",
"85 20 LINE",
"78 0 LINE"
);
}
);
width = 652;
},
{
anchors = (
{
name = bottom;
position = "{329, 0}";
},
{
name = topleft;
position = "{130, 694}";
}
);
layerId = "8A94633D-DA21-409C-A8B7-00A83612E8B2";
paths = (
{
closed = 1;
nodes = (
"306 0 LINE",
"306 101 LINE",
"223 111 OFFCURVE",
"200 135 OFFCURVE",
"200 225 CURVE SMOOTH",
"200 469 LINE SMOOTH",
"200 558 OFFCURVE",
"229.667 590 OFFCURVE",
"299 590 CURVE SMOOTH",
"376 590 LINE SMOOTH",
"436 590 OFFCURVE",
"469 545 OFFCURVE",
"469 469 CURVE SMOOTH",
"469 226 LINE SMOOTH",
"469 135 OFFCURVE",
"436 111 OFFCURVE",
"364 101 CURVE",
"364 0 LINE",
"592 0 LINE",
"575 101 LINE",
"537 101 LINE",
"564 129 OFFCURVE",
"579 153 OFFCURVE",
"579 226 CURVE SMOOTH",
"579 503 LINE SMOOTH",
"579 625.667 OFFCURVE",
"516.333 707 OFFCURVE",
"391 707 CURVE SMOOTH",
"279 707 LINE SMOOTH",
"153.667 707 OFFCURVE",
"91 625.667 OFFCURVE",
"91 503 CURVE SMOOTH",
"91 226 LINE SMOOTH",
"91 153 OFFCURVE",
"104 129 OFFCURVE",
"133 101 CURVE",
"95 101 LINE",
"78 0 LINE"
);
}
);
width = 658;
}
);
unicode = 03A9;
},
